G04 #@! TF.GenerationSoftware,KiCad,Pcbnew,(5.1.4)-1*
G04 #@! TF.CreationDate,2019-10-26T16:41:07-04:00*
G04 #@! TF.ProjectId,USB_HubSwitch,5553425f-4875-4625-9377-697463682e6b,rev?*
G04 #@! TF.SameCoordinates,Original*
G04 #@! TF.FileFunction,Copper,L2,Bot*
G04 #@! TF.FilePolarity,Positive*
%FSLAX46Y46*%
G04 Gerber Fmt 4.6, Leading zero omitted, Abs format (unit mm)*
G04 Created by KiCad (PCBNEW (5.1.4)-1) date 2019-10-26 16:41:07*
%MOMM*%
%LPD*%
G04 APERTURE LIST*
%ADD10C,5.400000*%
%ADD11R,2.500000X2.000000*%
%ADD12R,2.300000X0.500000*%
%ADD13C,1.524000*%
%ADD14C,3.300000*%
%ADD15C,1.900000*%
%ADD16O,2.100000X1.700000*%
%ADD17R,1.300000X0.600000*%
%ADD18R,1.900000X1.900000*%
%ADD19C,0.100000*%
%ADD20C,0.975000*%
%ADD21R,0.650000X1.060000*%
%ADD22C,0.800000*%
%ADD23C,0.500000*%
%ADD24C,0.400000*%
%ADD25C,0.250000*%
%ADD26C,0.254000*%
G04 APERTURE END LIST*
D10*
X103000000Y-81400000D03*
X132000000Y-112000000D03*
X132000000Y-81400000D03*
X103000000Y-112000000D03*
D11*
X103250000Y-94700000D03*
X103250000Y-103600000D03*
X108750000Y-103600000D03*
X108750000Y-94700000D03*
D12*
X108850000Y-100750000D03*
X108850000Y-99950000D03*
X108850000Y-99150000D03*
X108850000Y-98350000D03*
X108850000Y-97550000D03*
D13*
X131580000Y-106740000D03*
X131600000Y-104200000D03*
D14*
X124510000Y-99770000D03*
X124510000Y-86630000D03*
D15*
X121800000Y-96700000D03*
D16*
X121800000Y-94200000D03*
X121800000Y-92200000D03*
D15*
X121800000Y-89700000D03*
D17*
X101700000Y-91050000D03*
X103800000Y-92000000D03*
X103800000Y-90100000D03*
D18*
X108600000Y-107400000D03*
D15*
X111100000Y-107400000D03*
X113600000Y-107400000D03*
D19*
G36*
X104067642Y-86701174D02*
G01*
X104091303Y-86704684D01*
X104114507Y-86710496D01*
X104137029Y-86718554D01*
X104158653Y-86728782D01*
X104179170Y-86741079D01*
X104198383Y-86755329D01*
X104216107Y-86771393D01*
X104232171Y-86789117D01*
X104246421Y-86808330D01*
X104258718Y-86828847D01*
X104268946Y-86850471D01*
X104277004Y-86872993D01*
X104282816Y-86896197D01*
X104286326Y-86919858D01*
X104287500Y-86943750D01*
X104287500Y-87856250D01*
X104286326Y-87880142D01*
X104282816Y-87903803D01*
X104277004Y-87927007D01*
X104268946Y-87949529D01*
X104258718Y-87971153D01*
X104246421Y-87991670D01*
X104232171Y-88010883D01*
X104216107Y-88028607D01*
X104198383Y-88044671D01*
X104179170Y-88058921D01*
X104158653Y-88071218D01*
X104137029Y-88081446D01*
X104114507Y-88089504D01*
X104091303Y-88095316D01*
X104067642Y-88098826D01*
X104043750Y-88100000D01*
X103556250Y-88100000D01*
X103532358Y-88098826D01*
X103508697Y-88095316D01*
X103485493Y-88089504D01*
X103462971Y-88081446D01*
X103441347Y-88071218D01*
X103420830Y-88058921D01*
X103401617Y-88044671D01*
X103383893Y-88028607D01*
X103367829Y-88010883D01*
X103353579Y-87991670D01*
X103341282Y-87971153D01*
X103331054Y-87949529D01*
X103322996Y-87927007D01*
X103317184Y-87903803D01*
X103313674Y-87880142D01*
X103312500Y-87856250D01*
X103312500Y-86943750D01*
X103313674Y-86919858D01*
X103317184Y-86896197D01*
X103322996Y-86872993D01*
X103331054Y-86850471D01*
X103341282Y-86828847D01*
X103353579Y-86808330D01*
X103367829Y-86789117D01*
X103383893Y-86771393D01*
X103401617Y-86755329D01*
X103420830Y-86741079D01*
X103441347Y-86728782D01*
X103462971Y-86718554D01*
X103485493Y-86710496D01*
X103508697Y-86704684D01*
X103532358Y-86701174D01*
X103556250Y-86700000D01*
X104043750Y-86700000D01*
X104067642Y-86701174D01*
X104067642Y-86701174D01*
G37*
D20*
X103800000Y-87400000D03*
D19*
G36*
X102192642Y-86701174D02*
G01*
X102216303Y-86704684D01*
X102239507Y-86710496D01*
X102262029Y-86718554D01*
X102283653Y-86728782D01*
X102304170Y-86741079D01*
X102323383Y-86755329D01*
X102341107Y-86771393D01*
X102357171Y-86789117D01*
X102371421Y-86808330D01*
X102383718Y-86828847D01*
X102393946Y-86850471D01*
X102402004Y-86872993D01*
X102407816Y-86896197D01*
X102411326Y-86919858D01*
X102412500Y-86943750D01*
X102412500Y-87856250D01*
X102411326Y-87880142D01*
X102407816Y-87903803D01*
X102402004Y-87927007D01*
X102393946Y-87949529D01*
X102383718Y-87971153D01*
X102371421Y-87991670D01*
X102357171Y-88010883D01*
X102341107Y-88028607D01*
X102323383Y-88044671D01*
X102304170Y-88058921D01*
X102283653Y-88071218D01*
X102262029Y-88081446D01*
X102239507Y-88089504D01*
X102216303Y-88095316D01*
X102192642Y-88098826D01*
X102168750Y-88100000D01*
X101681250Y-88100000D01*
X101657358Y-88098826D01*
X101633697Y-88095316D01*
X101610493Y-88089504D01*
X101587971Y-88081446D01*
X101566347Y-88071218D01*
X101545830Y-88058921D01*
X101526617Y-88044671D01*
X101508893Y-88028607D01*
X101492829Y-88010883D01*
X101478579Y-87991670D01*
X101466282Y-87971153D01*
X101456054Y-87949529D01*
X101447996Y-87927007D01*
X101442184Y-87903803D01*
X101438674Y-87880142D01*
X101437500Y-87856250D01*
X101437500Y-86943750D01*
X101438674Y-86919858D01*
X101442184Y-86896197D01*
X101447996Y-86872993D01*
X101456054Y-86850471D01*
X101466282Y-86828847D01*
X101478579Y-86808330D01*
X101492829Y-86789117D01*
X101508893Y-86771393D01*
X101526617Y-86755329D01*
X101545830Y-86741079D01*
X101566347Y-86728782D01*
X101587971Y-86718554D01*
X101610493Y-86710496D01*
X101633697Y-86704684D01*
X101657358Y-86701174D01*
X101681250Y-86700000D01*
X102168750Y-86700000D01*
X102192642Y-86701174D01*
X102192642Y-86701174D01*
G37*
D20*
X101925000Y-87400000D03*
D19*
G36*
X130667642Y-96101174D02*
G01*
X130691303Y-96104684D01*
X130714507Y-96110496D01*
X130737029Y-96118554D01*
X130758653Y-96128782D01*
X130779170Y-96141079D01*
X130798383Y-96155329D01*
X130816107Y-96171393D01*
X130832171Y-96189117D01*
X130846421Y-96208330D01*
X130858718Y-96228847D01*
X130868946Y-96250471D01*
X130877004Y-96272993D01*
X130882816Y-96296197D01*
X130886326Y-96319858D01*
X130887500Y-96343750D01*
X130887500Y-97256250D01*
X130886326Y-97280142D01*
X130882816Y-97303803D01*
X130877004Y-97327007D01*
X130868946Y-97349529D01*
X130858718Y-97371153D01*
X130846421Y-97391670D01*
X130832171Y-97410883D01*
X130816107Y-97428607D01*
X130798383Y-97444671D01*
X130779170Y-97458921D01*
X130758653Y-97471218D01*
X130737029Y-97481446D01*
X130714507Y-97489504D01*
X130691303Y-97495316D01*
X130667642Y-97498826D01*
X130643750Y-97500000D01*
X130156250Y-97500000D01*
X130132358Y-97498826D01*
X130108697Y-97495316D01*
X130085493Y-97489504D01*
X130062971Y-97481446D01*
X130041347Y-97471218D01*
X130020830Y-97458921D01*
X130001617Y-97444671D01*
X129983893Y-97428607D01*
X129967829Y-97410883D01*
X129953579Y-97391670D01*
X129941282Y-97371153D01*
X129931054Y-97349529D01*
X129922996Y-97327007D01*
X129917184Y-97303803D01*
X129913674Y-97280142D01*
X129912500Y-97256250D01*
X129912500Y-96343750D01*
X129913674Y-96319858D01*
X129917184Y-96296197D01*
X129922996Y-96272993D01*
X129931054Y-96250471D01*
X129941282Y-96228847D01*
X129953579Y-96208330D01*
X129967829Y-96189117D01*
X129983893Y-96171393D01*
X130001617Y-96155329D01*
X130020830Y-96141079D01*
X130041347Y-96128782D01*
X130062971Y-96118554D01*
X130085493Y-96110496D01*
X130108697Y-96104684D01*
X130132358Y-96101174D01*
X130156250Y-96100000D01*
X130643750Y-96100000D01*
X130667642Y-96101174D01*
X130667642Y-96101174D01*
G37*
D20*
X130400000Y-96800000D03*
D19*
G36*
X128792642Y-96101174D02*
G01*
X128816303Y-96104684D01*
X128839507Y-96110496D01*
X128862029Y-96118554D01*
X128883653Y-96128782D01*
X128904170Y-96141079D01*
X128923383Y-96155329D01*
X128941107Y-96171393D01*
X128957171Y-96189117D01*
X128971421Y-96208330D01*
X128983718Y-96228847D01*
X128993946Y-96250471D01*
X129002004Y-96272993D01*
X129007816Y-96296197D01*
X129011326Y-96319858D01*
X129012500Y-96343750D01*
X129012500Y-97256250D01*
X129011326Y-97280142D01*
X129007816Y-97303803D01*
X129002004Y-97327007D01*
X128993946Y-97349529D01*
X128983718Y-97371153D01*
X128971421Y-97391670D01*
X128957171Y-97410883D01*
X128941107Y-97428607D01*
X128923383Y-97444671D01*
X128904170Y-97458921D01*
X128883653Y-97471218D01*
X128862029Y-97481446D01*
X128839507Y-97489504D01*
X128816303Y-97495316D01*
X128792642Y-97498826D01*
X128768750Y-97500000D01*
X128281250Y-97500000D01*
X128257358Y-97498826D01*
X128233697Y-97495316D01*
X128210493Y-97489504D01*
X128187971Y-97481446D01*
X128166347Y-97471218D01*
X128145830Y-97458921D01*
X128126617Y-97444671D01*
X128108893Y-97428607D01*
X128092829Y-97410883D01*
X128078579Y-97391670D01*
X128066282Y-97371153D01*
X128056054Y-97349529D01*
X128047996Y-97327007D01*
X128042184Y-97303803D01*
X128038674Y-97280142D01*
X128037500Y-97256250D01*
X128037500Y-96343750D01*
X128038674Y-96319858D01*
X128042184Y-96296197D01*
X128047996Y-96272993D01*
X128056054Y-96250471D01*
X128066282Y-96228847D01*
X128078579Y-96208330D01*
X128092829Y-96189117D01*
X128108893Y-96171393D01*
X128126617Y-96155329D01*
X128145830Y-96141079D01*
X128166347Y-96128782D01*
X128187971Y-96118554D01*
X128210493Y-96110496D01*
X128233697Y-96104684D01*
X128257358Y-96101174D01*
X128281250Y-96100000D01*
X128768750Y-96100000D01*
X128792642Y-96101174D01*
X128792642Y-96101174D01*
G37*
D20*
X128525000Y-96800000D03*
D19*
G36*
X125380142Y-92138674D02*
G01*
X125403803Y-92142184D01*
X125427007Y-92147996D01*
X125449529Y-92156054D01*
X125471153Y-92166282D01*
X125491670Y-92178579D01*
X125510883Y-92192829D01*
X125528607Y-92208893D01*
X125544671Y-92226617D01*
X125558921Y-92245830D01*
X125571218Y-92266347D01*
X125581446Y-92287971D01*
X125589504Y-92310493D01*
X125595316Y-92333697D01*
X125598826Y-92357358D01*
X125600000Y-92381250D01*
X125600000Y-92868750D01*
X125598826Y-92892642D01*
X125595316Y-92916303D01*
X125589504Y-92939507D01*
X125581446Y-92962029D01*
X125571218Y-92983653D01*
X125558921Y-93004170D01*
X125544671Y-93023383D01*
X125528607Y-93041107D01*
X125510883Y-93057171D01*
X125491670Y-93071421D01*
X125471153Y-93083718D01*
X125449529Y-93093946D01*
X125427007Y-93102004D01*
X125403803Y-93107816D01*
X125380142Y-93111326D01*
X125356250Y-93112500D01*
X124443750Y-93112500D01*
X124419858Y-93111326D01*
X124396197Y-93107816D01*
X124372993Y-93102004D01*
X124350471Y-93093946D01*
X124328847Y-93083718D01*
X124308330Y-93071421D01*
X124289117Y-93057171D01*
X124271393Y-93041107D01*
X124255329Y-93023383D01*
X124241079Y-93004170D01*
X124228782Y-92983653D01*
X124218554Y-92962029D01*
X124210496Y-92939507D01*
X124204684Y-92916303D01*
X124201174Y-92892642D01*
X124200000Y-92868750D01*
X124200000Y-92381250D01*
X124201174Y-92357358D01*
X124204684Y-92333697D01*
X124210496Y-92310493D01*
X124218554Y-92287971D01*
X124228782Y-92266347D01*
X124241079Y-92245830D01*
X124255329Y-92226617D01*
X124271393Y-92208893D01*
X124289117Y-92192829D01*
X124308330Y-92178579D01*
X124328847Y-92166282D01*
X124350471Y-92156054D01*
X124372993Y-92147996D01*
X124396197Y-92142184D01*
X124419858Y-92138674D01*
X124443750Y-92137500D01*
X125356250Y-92137500D01*
X125380142Y-92138674D01*
X125380142Y-92138674D01*
G37*
D20*
X124900000Y-92625000D03*
D19*
G36*
X125380142Y-94013674D02*
G01*
X125403803Y-94017184D01*
X125427007Y-94022996D01*
X125449529Y-94031054D01*
X125471153Y-94041282D01*
X125491670Y-94053579D01*
X125510883Y-94067829D01*
X125528607Y-94083893D01*
X125544671Y-94101617D01*
X125558921Y-94120830D01*
X125571218Y-94141347D01*
X125581446Y-94162971D01*
X125589504Y-94185493D01*
X125595316Y-94208697D01*
X125598826Y-94232358D01*
X125600000Y-94256250D01*
X125600000Y-94743750D01*
X125598826Y-94767642D01*
X125595316Y-94791303D01*
X125589504Y-94814507D01*
X125581446Y-94837029D01*
X125571218Y-94858653D01*
X125558921Y-94879170D01*
X125544671Y-94898383D01*
X125528607Y-94916107D01*
X125510883Y-94932171D01*
X125491670Y-94946421D01*
X125471153Y-94958718D01*
X125449529Y-94968946D01*
X125427007Y-94977004D01*
X125403803Y-94982816D01*
X125380142Y-94986326D01*
X125356250Y-94987500D01*
X124443750Y-94987500D01*
X124419858Y-94986326D01*
X124396197Y-94982816D01*
X124372993Y-94977004D01*
X124350471Y-94968946D01*
X124328847Y-94958718D01*
X124308330Y-94946421D01*
X124289117Y-94932171D01*
X124271393Y-94916107D01*
X124255329Y-94898383D01*
X124241079Y-94879170D01*
X124228782Y-94858653D01*
X124218554Y-94837029D01*
X124210496Y-94814507D01*
X124204684Y-94791303D01*
X124201174Y-94767642D01*
X124200000Y-94743750D01*
X124200000Y-94256250D01*
X124201174Y-94232358D01*
X124204684Y-94208697D01*
X124210496Y-94185493D01*
X124218554Y-94162971D01*
X124228782Y-94141347D01*
X124241079Y-94120830D01*
X124255329Y-94101617D01*
X124271393Y-94083893D01*
X124289117Y-94067829D01*
X124308330Y-94053579D01*
X124328847Y-94041282D01*
X124350471Y-94031054D01*
X124372993Y-94022996D01*
X124396197Y-94017184D01*
X124419858Y-94013674D01*
X124443750Y-94012500D01*
X125356250Y-94012500D01*
X125380142Y-94013674D01*
X125380142Y-94013674D01*
G37*
D20*
X124900000Y-94500000D03*
D19*
G36*
X116280142Y-112188674D02*
G01*
X116303803Y-112192184D01*
X116327007Y-112197996D01*
X116349529Y-112206054D01*
X116371153Y-112216282D01*
X116391670Y-112228579D01*
X116410883Y-112242829D01*
X116428607Y-112258893D01*
X116444671Y-112276617D01*
X116458921Y-112295830D01*
X116471218Y-112316347D01*
X116481446Y-112337971D01*
X116489504Y-112360493D01*
X116495316Y-112383697D01*
X116498826Y-112407358D01*
X116500000Y-112431250D01*
X116500000Y-112918750D01*
X116498826Y-112942642D01*
X116495316Y-112966303D01*
X116489504Y-112989507D01*
X116481446Y-113012029D01*
X116471218Y-113033653D01*
X116458921Y-113054170D01*
X116444671Y-113073383D01*
X116428607Y-113091107D01*
X116410883Y-113107171D01*
X116391670Y-113121421D01*
X116371153Y-113133718D01*
X116349529Y-113143946D01*
X116327007Y-113152004D01*
X116303803Y-113157816D01*
X116280142Y-113161326D01*
X116256250Y-113162500D01*
X115343750Y-113162500D01*
X115319858Y-113161326D01*
X115296197Y-113157816D01*
X115272993Y-113152004D01*
X115250471Y-113143946D01*
X115228847Y-113133718D01*
X115208330Y-113121421D01*
X115189117Y-113107171D01*
X115171393Y-113091107D01*
X115155329Y-113073383D01*
X115141079Y-113054170D01*
X115128782Y-113033653D01*
X115118554Y-113012029D01*
X115110496Y-112989507D01*
X115104684Y-112966303D01*
X115101174Y-112942642D01*
X115100000Y-112918750D01*
X115100000Y-112431250D01*
X115101174Y-112407358D01*
X115104684Y-112383697D01*
X115110496Y-112360493D01*
X115118554Y-112337971D01*
X115128782Y-112316347D01*
X115141079Y-112295830D01*
X115155329Y-112276617D01*
X115171393Y-112258893D01*
X115189117Y-112242829D01*
X115208330Y-112228579D01*
X115228847Y-112216282D01*
X115250471Y-112206054D01*
X115272993Y-112197996D01*
X115296197Y-112192184D01*
X115319858Y-112188674D01*
X115343750Y-112187500D01*
X116256250Y-112187500D01*
X116280142Y-112188674D01*
X116280142Y-112188674D01*
G37*
D20*
X115800000Y-112675000D03*
D19*
G36*
X116280142Y-110313674D02*
G01*
X116303803Y-110317184D01*
X116327007Y-110322996D01*
X116349529Y-110331054D01*
X116371153Y-110341282D01*
X116391670Y-110353579D01*
X116410883Y-110367829D01*
X116428607Y-110383893D01*
X116444671Y-110401617D01*
X116458921Y-110420830D01*
X116471218Y-110441347D01*
X116481446Y-110462971D01*
X116489504Y-110485493D01*
X116495316Y-110508697D01*
X116498826Y-110532358D01*
X116500000Y-110556250D01*
X116500000Y-111043750D01*
X116498826Y-111067642D01*
X116495316Y-111091303D01*
X116489504Y-111114507D01*
X116481446Y-111137029D01*
X116471218Y-111158653D01*
X116458921Y-111179170D01*
X116444671Y-111198383D01*
X116428607Y-111216107D01*
X116410883Y-111232171D01*
X116391670Y-111246421D01*
X116371153Y-111258718D01*
X116349529Y-111268946D01*
X116327007Y-111277004D01*
X116303803Y-111282816D01*
X116280142Y-111286326D01*
X116256250Y-111287500D01*
X115343750Y-111287500D01*
X115319858Y-111286326D01*
X115296197Y-111282816D01*
X115272993Y-111277004D01*
X115250471Y-111268946D01*
X115228847Y-111258718D01*
X115208330Y-111246421D01*
X115189117Y-111232171D01*
X115171393Y-111216107D01*
X115155329Y-111198383D01*
X115141079Y-111179170D01*
X115128782Y-111158653D01*
X115118554Y-111137029D01*
X115110496Y-111114507D01*
X115104684Y-111091303D01*
X115101174Y-111067642D01*
X115100000Y-111043750D01*
X115100000Y-110556250D01*
X115101174Y-110532358D01*
X115104684Y-110508697D01*
X115110496Y-110485493D01*
X115118554Y-110462971D01*
X115128782Y-110441347D01*
X115141079Y-110420830D01*
X115155329Y-110401617D01*
X115171393Y-110383893D01*
X115189117Y-110367829D01*
X115208330Y-110353579D01*
X115228847Y-110341282D01*
X115250471Y-110331054D01*
X115272993Y-110322996D01*
X115296197Y-110317184D01*
X115319858Y-110313674D01*
X115343750Y-110312500D01*
X116256250Y-110312500D01*
X116280142Y-110313674D01*
X116280142Y-110313674D01*
G37*
D20*
X115800000Y-110800000D03*
D19*
G36*
X104147642Y-106561174D02*
G01*
X104171303Y-106564684D01*
X104194507Y-106570496D01*
X104217029Y-106578554D01*
X104238653Y-106588782D01*
X104259170Y-106601079D01*
X104278383Y-106615329D01*
X104296107Y-106631393D01*
X104312171Y-106649117D01*
X104326421Y-106668330D01*
X104338718Y-106688847D01*
X104348946Y-106710471D01*
X104357004Y-106732993D01*
X104362816Y-106756197D01*
X104366326Y-106779858D01*
X104367500Y-106803750D01*
X104367500Y-107716250D01*
X104366326Y-107740142D01*
X104362816Y-107763803D01*
X104357004Y-107787007D01*
X104348946Y-107809529D01*
X104338718Y-107831153D01*
X104326421Y-107851670D01*
X104312171Y-107870883D01*
X104296107Y-107888607D01*
X104278383Y-107904671D01*
X104259170Y-107918921D01*
X104238653Y-107931218D01*
X104217029Y-107941446D01*
X104194507Y-107949504D01*
X104171303Y-107955316D01*
X104147642Y-107958826D01*
X104123750Y-107960000D01*
X103636250Y-107960000D01*
X103612358Y-107958826D01*
X103588697Y-107955316D01*
X103565493Y-107949504D01*
X103542971Y-107941446D01*
X103521347Y-107931218D01*
X103500830Y-107918921D01*
X103481617Y-107904671D01*
X103463893Y-107888607D01*
X103447829Y-107870883D01*
X103433579Y-107851670D01*
X103421282Y-107831153D01*
X103411054Y-107809529D01*
X103402996Y-107787007D01*
X103397184Y-107763803D01*
X103393674Y-107740142D01*
X103392500Y-107716250D01*
X103392500Y-106803750D01*
X103393674Y-106779858D01*
X103397184Y-106756197D01*
X103402996Y-106732993D01*
X103411054Y-106710471D01*
X103421282Y-106688847D01*
X103433579Y-106668330D01*
X103447829Y-106649117D01*
X103463893Y-106631393D01*
X103481617Y-106615329D01*
X103500830Y-106601079D01*
X103521347Y-106588782D01*
X103542971Y-106578554D01*
X103565493Y-106570496D01*
X103588697Y-106564684D01*
X103612358Y-106561174D01*
X103636250Y-106560000D01*
X104123750Y-106560000D01*
X104147642Y-106561174D01*
X104147642Y-106561174D01*
G37*
D20*
X103880000Y-107260000D03*
D19*
G36*
X102272642Y-106561174D02*
G01*
X102296303Y-106564684D01*
X102319507Y-106570496D01*
X102342029Y-106578554D01*
X102363653Y-106588782D01*
X102384170Y-106601079D01*
X102403383Y-106615329D01*
X102421107Y-106631393D01*
X102437171Y-106649117D01*
X102451421Y-106668330D01*
X102463718Y-106688847D01*
X102473946Y-106710471D01*
X102482004Y-106732993D01*
X102487816Y-106756197D01*
X102491326Y-106779858D01*
X102492500Y-106803750D01*
X102492500Y-107716250D01*
X102491326Y-107740142D01*
X102487816Y-107763803D01*
X102482004Y-107787007D01*
X102473946Y-107809529D01*
X102463718Y-107831153D01*
X102451421Y-107851670D01*
X102437171Y-107870883D01*
X102421107Y-107888607D01*
X102403383Y-107904671D01*
X102384170Y-107918921D01*
X102363653Y-107931218D01*
X102342029Y-107941446D01*
X102319507Y-107949504D01*
X102296303Y-107955316D01*
X102272642Y-107958826D01*
X102248750Y-107960000D01*
X101761250Y-107960000D01*
X101737358Y-107958826D01*
X101713697Y-107955316D01*
X101690493Y-107949504D01*
X101667971Y-107941446D01*
X101646347Y-107931218D01*
X101625830Y-107918921D01*
X101606617Y-107904671D01*
X101588893Y-107888607D01*
X101572829Y-107870883D01*
X101558579Y-107851670D01*
X101546282Y-107831153D01*
X101536054Y-107809529D01*
X101527996Y-107787007D01*
X101522184Y-107763803D01*
X101518674Y-107740142D01*
X101517500Y-107716250D01*
X101517500Y-106803750D01*
X101518674Y-106779858D01*
X101522184Y-106756197D01*
X101527996Y-106732993D01*
X101536054Y-106710471D01*
X101546282Y-106688847D01*
X101558579Y-106668330D01*
X101572829Y-106649117D01*
X101588893Y-106631393D01*
X101606617Y-106615329D01*
X101625830Y-106601079D01*
X101646347Y-106588782D01*
X101667971Y-106578554D01*
X101690493Y-106570496D01*
X101713697Y-106564684D01*
X101737358Y-106561174D01*
X101761250Y-106560000D01*
X102248750Y-106560000D01*
X102272642Y-106561174D01*
X102272642Y-106561174D01*
G37*
D20*
X102005000Y-107260000D03*
D19*
G36*
X133080142Y-100913674D02*
G01*
X133103803Y-100917184D01*
X133127007Y-100922996D01*
X133149529Y-100931054D01*
X133171153Y-100941282D01*
X133191670Y-100953579D01*
X133210883Y-100967829D01*
X133228607Y-100983893D01*
X133244671Y-101001617D01*
X133258921Y-101020830D01*
X133271218Y-101041347D01*
X133281446Y-101062971D01*
X133289504Y-101085493D01*
X133295316Y-101108697D01*
X133298826Y-101132358D01*
X133300000Y-101156250D01*
X133300000Y-101643750D01*
X133298826Y-101667642D01*
X133295316Y-101691303D01*
X133289504Y-101714507D01*
X133281446Y-101737029D01*
X133271218Y-101758653D01*
X133258921Y-101779170D01*
X133244671Y-101798383D01*
X133228607Y-101816107D01*
X133210883Y-101832171D01*
X133191670Y-101846421D01*
X133171153Y-101858718D01*
X133149529Y-101868946D01*
X133127007Y-101877004D01*
X133103803Y-101882816D01*
X133080142Y-101886326D01*
X133056250Y-101887500D01*
X132143750Y-101887500D01*
X132119858Y-101886326D01*
X132096197Y-101882816D01*
X132072993Y-101877004D01*
X132050471Y-101868946D01*
X132028847Y-101858718D01*
X132008330Y-101846421D01*
X131989117Y-101832171D01*
X131971393Y-101816107D01*
X131955329Y-101798383D01*
X131941079Y-101779170D01*
X131928782Y-101758653D01*
X131918554Y-101737029D01*
X131910496Y-101714507D01*
X131904684Y-101691303D01*
X131901174Y-101667642D01*
X131900000Y-101643750D01*
X131900000Y-101156250D01*
X131901174Y-101132358D01*
X131904684Y-101108697D01*
X131910496Y-101085493D01*
X131918554Y-101062971D01*
X131928782Y-101041347D01*
X131941079Y-101020830D01*
X131955329Y-101001617D01*
X131971393Y-100983893D01*
X131989117Y-100967829D01*
X132008330Y-100953579D01*
X132028847Y-100941282D01*
X132050471Y-100931054D01*
X132072993Y-100922996D01*
X132096197Y-100917184D01*
X132119858Y-100913674D01*
X132143750Y-100912500D01*
X133056250Y-100912500D01*
X133080142Y-100913674D01*
X133080142Y-100913674D01*
G37*
D20*
X132600000Y-101400000D03*
D19*
G36*
X133080142Y-99038674D02*
G01*
X133103803Y-99042184D01*
X133127007Y-99047996D01*
X133149529Y-99056054D01*
X133171153Y-99066282D01*
X133191670Y-99078579D01*
X133210883Y-99092829D01*
X133228607Y-99108893D01*
X133244671Y-99126617D01*
X133258921Y-99145830D01*
X133271218Y-99166347D01*
X133281446Y-99187971D01*
X133289504Y-99210493D01*
X133295316Y-99233697D01*
X133298826Y-99257358D01*
X133300000Y-99281250D01*
X133300000Y-99768750D01*
X133298826Y-99792642D01*
X133295316Y-99816303D01*
X133289504Y-99839507D01*
X133281446Y-99862029D01*
X133271218Y-99883653D01*
X133258921Y-99904170D01*
X133244671Y-99923383D01*
X133228607Y-99941107D01*
X133210883Y-99957171D01*
X133191670Y-99971421D01*
X133171153Y-99983718D01*
X133149529Y-99993946D01*
X133127007Y-100002004D01*
X133103803Y-100007816D01*
X133080142Y-100011326D01*
X133056250Y-100012500D01*
X132143750Y-100012500D01*
X132119858Y-100011326D01*
X132096197Y-100007816D01*
X132072993Y-100002004D01*
X132050471Y-99993946D01*
X132028847Y-99983718D01*
X132008330Y-99971421D01*
X131989117Y-99957171D01*
X131971393Y-99941107D01*
X131955329Y-99923383D01*
X131941079Y-99904170D01*
X131928782Y-99883653D01*
X131918554Y-99862029D01*
X131910496Y-99839507D01*
X131904684Y-99816303D01*
X131901174Y-99792642D01*
X131900000Y-99768750D01*
X131900000Y-99281250D01*
X131901174Y-99257358D01*
X131904684Y-99233697D01*
X131910496Y-99210493D01*
X131918554Y-99187971D01*
X131928782Y-99166347D01*
X131941079Y-99145830D01*
X131955329Y-99126617D01*
X131971393Y-99108893D01*
X131989117Y-99092829D01*
X132008330Y-99078579D01*
X132028847Y-99066282D01*
X132050471Y-99056054D01*
X132072993Y-99047996D01*
X132096197Y-99042184D01*
X132119858Y-99038674D01*
X132143750Y-99037500D01*
X133056250Y-99037500D01*
X133080142Y-99038674D01*
X133080142Y-99038674D01*
G37*
D20*
X132600000Y-99525000D03*
D19*
G36*
X110542642Y-80701174D02*
G01*
X110566303Y-80704684D01*
X110589507Y-80710496D01*
X110612029Y-80718554D01*
X110633653Y-80728782D01*
X110654170Y-80741079D01*
X110673383Y-80755329D01*
X110691107Y-80771393D01*
X110707171Y-80789117D01*
X110721421Y-80808330D01*
X110733718Y-80828847D01*
X110743946Y-80850471D01*
X110752004Y-80872993D01*
X110757816Y-80896197D01*
X110761326Y-80919858D01*
X110762500Y-80943750D01*
X110762500Y-81856250D01*
X110761326Y-81880142D01*
X110757816Y-81903803D01*
X110752004Y-81927007D01*
X110743946Y-81949529D01*
X110733718Y-81971153D01*
X110721421Y-81991670D01*
X110707171Y-82010883D01*
X110691107Y-82028607D01*
X110673383Y-82044671D01*
X110654170Y-82058921D01*
X110633653Y-82071218D01*
X110612029Y-82081446D01*
X110589507Y-82089504D01*
X110566303Y-82095316D01*
X110542642Y-82098826D01*
X110518750Y-82100000D01*
X110031250Y-82100000D01*
X110007358Y-82098826D01*
X109983697Y-82095316D01*
X109960493Y-82089504D01*
X109937971Y-82081446D01*
X109916347Y-82071218D01*
X109895830Y-82058921D01*
X109876617Y-82044671D01*
X109858893Y-82028607D01*
X109842829Y-82010883D01*
X109828579Y-81991670D01*
X109816282Y-81971153D01*
X109806054Y-81949529D01*
X109797996Y-81927007D01*
X109792184Y-81903803D01*
X109788674Y-81880142D01*
X109787500Y-81856250D01*
X109787500Y-80943750D01*
X109788674Y-80919858D01*
X109792184Y-80896197D01*
X109797996Y-80872993D01*
X109806054Y-80850471D01*
X109816282Y-80828847D01*
X109828579Y-80808330D01*
X109842829Y-80789117D01*
X109858893Y-80771393D01*
X109876617Y-80755329D01*
X109895830Y-80741079D01*
X109916347Y-80728782D01*
X109937971Y-80718554D01*
X109960493Y-80710496D01*
X109983697Y-80704684D01*
X110007358Y-80701174D01*
X110031250Y-80700000D01*
X110518750Y-80700000D01*
X110542642Y-80701174D01*
X110542642Y-80701174D01*
G37*
D20*
X110275000Y-81400000D03*
D19*
G36*
X108667642Y-80701174D02*
G01*
X108691303Y-80704684D01*
X108714507Y-80710496D01*
X108737029Y-80718554D01*
X108758653Y-80728782D01*
X108779170Y-80741079D01*
X108798383Y-80755329D01*
X108816107Y-80771393D01*
X108832171Y-80789117D01*
X108846421Y-80808330D01*
X108858718Y-80828847D01*
X108868946Y-80850471D01*
X108877004Y-80872993D01*
X108882816Y-80896197D01*
X108886326Y-80919858D01*
X108887500Y-80943750D01*
X108887500Y-81856250D01*
X108886326Y-81880142D01*
X108882816Y-81903803D01*
X108877004Y-81927007D01*
X108868946Y-81949529D01*
X108858718Y-81971153D01*
X108846421Y-81991670D01*
X108832171Y-82010883D01*
X108816107Y-82028607D01*
X108798383Y-82044671D01*
X108779170Y-82058921D01*
X108758653Y-82071218D01*
X108737029Y-82081446D01*
X108714507Y-82089504D01*
X108691303Y-82095316D01*
X108667642Y-82098826D01*
X108643750Y-82100000D01*
X108156250Y-82100000D01*
X108132358Y-82098826D01*
X108108697Y-82095316D01*
X108085493Y-82089504D01*
X108062971Y-82081446D01*
X108041347Y-82071218D01*
X108020830Y-82058921D01*
X108001617Y-82044671D01*
X107983893Y-82028607D01*
X107967829Y-82010883D01*
X107953579Y-81991670D01*
X107941282Y-81971153D01*
X107931054Y-81949529D01*
X107922996Y-81927007D01*
X107917184Y-81903803D01*
X107913674Y-81880142D01*
X107912500Y-81856250D01*
X107912500Y-80943750D01*
X107913674Y-80919858D01*
X107917184Y-80896197D01*
X107922996Y-80872993D01*
X107931054Y-80850471D01*
X107941282Y-80828847D01*
X107953579Y-80808330D01*
X107967829Y-80789117D01*
X107983893Y-80771393D01*
X108001617Y-80755329D01*
X108020830Y-80741079D01*
X108041347Y-80728782D01*
X108062971Y-80718554D01*
X108085493Y-80710496D01*
X108108697Y-80704684D01*
X108132358Y-80701174D01*
X108156250Y-80700000D01*
X108643750Y-80700000D01*
X108667642Y-80701174D01*
X108667642Y-80701174D01*
G37*
D20*
X108400000Y-81400000D03*
D21*
X130100000Y-101600000D03*
X129150000Y-101600000D03*
X128200000Y-101600000D03*
X128200000Y-99400000D03*
X130100000Y-99400000D03*
D22*
X113400000Y-92400000D03*
X116000000Y-95400000D03*
X108800000Y-92800000D03*
X112400000Y-84600000D03*
X108750000Y-103600000D03*
X113050000Y-102500000D03*
X127650000Y-106100000D03*
X118750000Y-106100000D03*
X118750000Y-111600000D03*
X127650000Y-111600000D03*
X103250000Y-103600000D03*
X103250000Y-94700000D03*
X108750000Y-94700000D03*
X108750000Y-85750000D03*
X103250000Y-85750000D03*
X121850000Y-79050000D03*
X115850000Y-82550000D03*
X110850000Y-97500000D03*
X129150000Y-100450000D03*
X127400000Y-96800000D03*
X102200000Y-89130000D03*
X132050000Y-90600000D03*
X121750000Y-100550000D03*
X120100000Y-101050000D03*
X119550000Y-97450000D03*
X119250000Y-95600000D03*
X115500000Y-99350000D03*
X112600000Y-104050000D03*
X117050000Y-104850000D03*
X122900000Y-103650000D03*
X129300000Y-105050000D03*
X110000000Y-111100000D03*
X111870000Y-112870000D03*
X120920000Y-112970000D03*
X124850000Y-112890000D03*
X103850000Y-100350000D03*
X105050000Y-98800000D03*
X102720000Y-96750000D03*
X105850000Y-105600000D03*
X111300000Y-94300000D03*
X107450000Y-87050000D03*
X113150000Y-87700000D03*
X116700000Y-87950000D03*
X117850000Y-90850000D03*
X119450000Y-90050000D03*
X118200000Y-85700000D03*
X121650000Y-87000000D03*
X121600000Y-84650000D03*
X122950000Y-83900000D03*
X106450000Y-79500000D03*
X110650000Y-79450000D03*
X102000000Y-85100000D03*
X109650000Y-83700000D03*
X121550000Y-82000000D03*
X126100000Y-80300000D03*
X126600000Y-83200000D03*
X128150000Y-84700000D03*
X127700000Y-87150000D03*
X133500000Y-96400000D03*
X133700000Y-93050000D03*
X126700000Y-104550000D03*
X123050000Y-108700000D03*
X119650000Y-107600000D03*
X106550000Y-110150000D03*
X106640000Y-112960000D03*
X111990000Y-111130000D03*
X110000000Y-112600000D03*
X122750000Y-112550000D03*
X126500000Y-112950000D03*
X118350000Y-112950000D03*
X117550000Y-97350000D03*
X112000000Y-97500000D03*
X110900000Y-93000000D03*
X116150000Y-89750000D03*
X114550000Y-88550000D03*
X104290000Y-105600000D03*
X105850000Y-103400000D03*
X132050000Y-88138000D03*
X132050000Y-85852000D03*
X133604000Y-85852000D03*
X133604000Y-88138000D03*
X126300000Y-96450000D03*
X126350000Y-97700000D03*
X126350000Y-92500000D03*
X123650000Y-89200000D03*
X127250000Y-89950000D03*
X128800000Y-92500000D03*
X112900000Y-101100000D03*
X114600000Y-93000000D03*
X114000000Y-97400000D03*
X117400000Y-93000000D03*
X120650000Y-80200000D03*
X112200000Y-90600000D03*
X101550000Y-105700000D03*
X105450000Y-94650012D03*
X128200000Y-103100000D03*
D23*
X108850000Y-97550000D02*
X110700000Y-97550000D01*
X108850000Y-94800000D02*
X108750000Y-94700000D01*
X108850000Y-97550000D02*
X108850000Y-94800000D01*
X103800000Y-94150000D02*
X103250000Y-94700000D01*
X103800000Y-92000000D02*
X103800000Y-94150000D01*
X129150000Y-101600000D02*
X129150000Y-100450000D01*
X128525000Y-96800000D02*
X127400000Y-96800000D01*
X101925000Y-87400000D02*
X101925000Y-88975000D01*
X101925000Y-88975000D02*
X101900000Y-89000000D01*
X108850000Y-100750000D02*
X112550000Y-100750000D01*
X112550000Y-100750000D02*
X112900000Y-101100000D01*
D24*
X112634002Y-99950000D02*
X114800000Y-97784002D01*
X108850000Y-99950000D02*
X112634002Y-99950000D01*
X114800000Y-97784002D02*
X114800000Y-93200000D01*
X114800000Y-93200000D02*
X114600000Y-93000000D01*
X108850000Y-99150000D02*
X112250000Y-99150000D01*
X112250000Y-99150000D02*
X114000000Y-97400000D01*
D23*
X132600000Y-103200000D02*
X131600000Y-104200000D01*
X132600000Y-101400000D02*
X132600000Y-103200000D01*
D24*
X118600000Y-94200000D02*
X117400000Y-93000000D01*
X121800000Y-94200000D02*
X118600000Y-94200000D01*
D23*
X110275000Y-81400000D02*
X110862500Y-81400000D01*
X110862500Y-81400000D02*
X111400000Y-81400000D01*
X111400000Y-81400000D02*
X112600000Y-80200000D01*
X112600000Y-80200000D02*
X120650000Y-80200000D01*
X130400000Y-84891998D02*
X130400000Y-96800000D01*
X127358002Y-81850000D02*
X130400000Y-84891998D01*
X125108002Y-81850000D02*
X127358002Y-81850000D01*
X120650000Y-80200000D02*
X123458002Y-80200000D01*
X123458002Y-80200000D02*
X125108002Y-81850000D01*
D25*
X112836000Y-105664000D02*
X111100000Y-107400000D01*
X115316000Y-105664000D02*
X112836000Y-105664000D01*
X119634000Y-109982000D02*
X115316000Y-105664000D01*
X127254000Y-109982000D02*
X119634000Y-109982000D01*
X133815000Y-99525000D02*
X134112000Y-99822000D01*
X132600000Y-99525000D02*
X133815000Y-99525000D01*
X134112000Y-99822000D02*
X134112000Y-106426000D01*
X134112000Y-106426000D02*
X132080000Y-108458000D01*
X132080000Y-108458000D02*
X128778000Y-108458000D01*
X128778000Y-108458000D02*
X127254000Y-109982000D01*
D23*
X103800000Y-87400000D02*
X103800000Y-90100000D01*
X105550000Y-90100000D02*
X103800000Y-90100000D01*
X108400000Y-82800000D02*
X108400000Y-81400000D01*
X103800000Y-87400000D02*
X108400000Y-82800000D01*
X111634315Y-90600000D02*
X110584315Y-91650000D01*
X112200000Y-90600000D02*
X111634315Y-90600000D01*
X107100000Y-91650000D02*
X105550000Y-90100000D01*
X110584315Y-91650000D02*
X107100000Y-91650000D01*
X107100000Y-93000012D02*
X107100000Y-91650000D01*
X105450000Y-94650012D02*
X107100000Y-93000012D01*
X102005000Y-106155000D02*
X101550000Y-105700000D01*
X102005000Y-107260000D02*
X102005000Y-106155000D01*
X128200000Y-103100000D02*
X128200000Y-101600000D01*
X128765685Y-103100000D02*
X128200000Y-103100000D01*
X129630000Y-103100000D02*
X128765685Y-103100000D01*
X130100000Y-102630000D02*
X129630000Y-103100000D01*
X130100000Y-101600000D02*
X130100000Y-102630000D01*
X108460000Y-107260000D02*
X108600000Y-107400000D01*
X103880000Y-107260000D02*
X108460000Y-107260000D01*
X115800000Y-109600000D02*
X113600000Y-107400000D01*
X115800000Y-110800000D02*
X115800000Y-109600000D01*
D26*
G36*
X119150320Y-110420387D02*
G01*
X119170736Y-110445264D01*
X119270016Y-110526741D01*
X119325224Y-110556250D01*
X119383283Y-110587283D01*
X119506185Y-110624565D01*
X119633999Y-110637154D01*
X119666021Y-110634000D01*
X127221978Y-110634000D01*
X127254000Y-110637154D01*
X127286022Y-110634000D01*
X127381814Y-110624565D01*
X127504717Y-110587283D01*
X127617984Y-110526741D01*
X127717264Y-110445264D01*
X127737685Y-110420381D01*
X129048067Y-109110000D01*
X130544520Y-109110000D01*
X130471442Y-109140270D01*
X129942907Y-109493425D01*
X129493425Y-109942907D01*
X129140270Y-110471442D01*
X128897012Y-111058719D01*
X128773000Y-111682168D01*
X128773000Y-112317832D01*
X128897012Y-112941281D01*
X129113115Y-113463000D01*
X106065352Y-113463000D01*
X106025858Y-113455144D01*
X105992382Y-113432776D01*
X105926637Y-113367031D01*
X106102988Y-112941281D01*
X106227000Y-112317832D01*
X106227000Y-111682168D01*
X106102988Y-111058719D01*
X105859730Y-110471442D01*
X105506575Y-109942907D01*
X105057093Y-109493425D01*
X104528558Y-109140270D01*
X103941281Y-108897012D01*
X103317832Y-108773000D01*
X102682168Y-108773000D01*
X102058719Y-108897012D01*
X101632969Y-109073363D01*
X101367224Y-108807618D01*
X101344856Y-108774142D01*
X101337000Y-108734648D01*
X101337000Y-108362096D01*
X101465321Y-108430685D01*
X101610387Y-108474690D01*
X101761250Y-108489549D01*
X102248750Y-108489549D01*
X102399613Y-108474690D01*
X102544679Y-108430685D01*
X102678372Y-108359225D01*
X102795555Y-108263055D01*
X102891725Y-108145872D01*
X102942500Y-108050878D01*
X102993275Y-108145872D01*
X103089445Y-108263055D01*
X103206628Y-108359225D01*
X103340321Y-108430685D01*
X103485387Y-108474690D01*
X103636250Y-108489549D01*
X104123750Y-108489549D01*
X104274613Y-108474690D01*
X104419679Y-108430685D01*
X104553372Y-108359225D01*
X104670555Y-108263055D01*
X104766725Y-108145872D01*
X104824918Y-108037000D01*
X107120451Y-108037000D01*
X107120451Y-108350000D01*
X107130626Y-108453310D01*
X107160761Y-108552650D01*
X107209696Y-108644202D01*
X107275552Y-108724448D01*
X107355798Y-108790304D01*
X107447350Y-108839239D01*
X107546690Y-108869374D01*
X107650000Y-108879549D01*
X109550000Y-108879549D01*
X109653310Y-108869374D01*
X109752650Y-108839239D01*
X109844202Y-108790304D01*
X109924448Y-108724448D01*
X109990304Y-108644202D01*
X110039239Y-108552650D01*
X110068243Y-108457037D01*
X110158467Y-108547261D01*
X110400378Y-108708901D01*
X110669175Y-108820240D01*
X110954528Y-108877000D01*
X111245472Y-108877000D01*
X111530825Y-108820240D01*
X111799622Y-108708901D01*
X112041533Y-108547261D01*
X112247261Y-108341533D01*
X112350000Y-108187773D01*
X112452739Y-108341533D01*
X112658467Y-108547261D01*
X112900378Y-108708901D01*
X113169175Y-108820240D01*
X113454528Y-108877000D01*
X113745472Y-108877000D01*
X113939552Y-108838395D01*
X114979493Y-109878337D01*
X114914128Y-109913275D01*
X114796945Y-110009445D01*
X114700775Y-110126628D01*
X114629315Y-110260321D01*
X114585310Y-110405387D01*
X114570451Y-110556250D01*
X114570451Y-111043750D01*
X114585310Y-111194613D01*
X114629315Y-111339679D01*
X114700775Y-111473372D01*
X114796945Y-111590555D01*
X114914128Y-111686725D01*
X115047821Y-111758185D01*
X115192887Y-111802190D01*
X115343750Y-111817049D01*
X116256250Y-111817049D01*
X116407113Y-111802190D01*
X116552179Y-111758185D01*
X116685872Y-111686725D01*
X116803055Y-111590555D01*
X116899225Y-111473372D01*
X116970685Y-111339679D01*
X117014690Y-111194613D01*
X117029549Y-111043750D01*
X117029549Y-110556250D01*
X117014690Y-110405387D01*
X116970685Y-110260321D01*
X116899225Y-110126628D01*
X116803055Y-110009445D01*
X116685872Y-109913275D01*
X116577000Y-109855082D01*
X116577000Y-109638163D01*
X116580759Y-109600000D01*
X116570262Y-109493425D01*
X116565757Y-109447681D01*
X116521327Y-109301216D01*
X116485252Y-109233725D01*
X116449177Y-109166233D01*
X116376409Y-109077565D01*
X116376408Y-109077564D01*
X116352080Y-109047920D01*
X116322436Y-109023592D01*
X115038395Y-107739552D01*
X115077000Y-107545472D01*
X115077000Y-107254528D01*
X115020240Y-106969175D01*
X114908901Y-106700378D01*
X114747261Y-106458467D01*
X114604794Y-106316000D01*
X115045934Y-106316000D01*
X119150320Y-110420387D01*
X119150320Y-110420387D01*
G37*
X119150320Y-110420387D02*
X119170736Y-110445264D01*
X119270016Y-110526741D01*
X119325224Y-110556250D01*
X119383283Y-110587283D01*
X119506185Y-110624565D01*
X119633999Y-110637154D01*
X119666021Y-110634000D01*
X127221978Y-110634000D01*
X127254000Y-110637154D01*
X127286022Y-110634000D01*
X127381814Y-110624565D01*
X127504717Y-110587283D01*
X127617984Y-110526741D01*
X127717264Y-110445264D01*
X127737685Y-110420381D01*
X129048067Y-109110000D01*
X130544520Y-109110000D01*
X130471442Y-109140270D01*
X129942907Y-109493425D01*
X129493425Y-109942907D01*
X129140270Y-110471442D01*
X128897012Y-111058719D01*
X128773000Y-111682168D01*
X128773000Y-112317832D01*
X128897012Y-112941281D01*
X129113115Y-113463000D01*
X106065352Y-113463000D01*
X106025858Y-113455144D01*
X105992382Y-113432776D01*
X105926637Y-113367031D01*
X106102988Y-112941281D01*
X106227000Y-112317832D01*
X106227000Y-111682168D01*
X106102988Y-111058719D01*
X105859730Y-110471442D01*
X105506575Y-109942907D01*
X105057093Y-109493425D01*
X104528558Y-109140270D01*
X103941281Y-108897012D01*
X103317832Y-108773000D01*
X102682168Y-108773000D01*
X102058719Y-108897012D01*
X101632969Y-109073363D01*
X101367224Y-108807618D01*
X101344856Y-108774142D01*
X101337000Y-108734648D01*
X101337000Y-108362096D01*
X101465321Y-108430685D01*
X101610387Y-108474690D01*
X101761250Y-108489549D01*
X102248750Y-108489549D01*
X102399613Y-108474690D01*
X102544679Y-108430685D01*
X102678372Y-108359225D01*
X102795555Y-108263055D01*
X102891725Y-108145872D01*
X102942500Y-108050878D01*
X102993275Y-108145872D01*
X103089445Y-108263055D01*
X103206628Y-108359225D01*
X103340321Y-108430685D01*
X103485387Y-108474690D01*
X103636250Y-108489549D01*
X104123750Y-108489549D01*
X104274613Y-108474690D01*
X104419679Y-108430685D01*
X104553372Y-108359225D01*
X104670555Y-108263055D01*
X104766725Y-108145872D01*
X104824918Y-108037000D01*
X107120451Y-108037000D01*
X107120451Y-108350000D01*
X107130626Y-108453310D01*
X107160761Y-108552650D01*
X107209696Y-108644202D01*
X107275552Y-108724448D01*
X107355798Y-108790304D01*
X107447350Y-108839239D01*
X107546690Y-108869374D01*
X107650000Y-108879549D01*
X109550000Y-108879549D01*
X109653310Y-108869374D01*
X109752650Y-108839239D01*
X109844202Y-108790304D01*
X109924448Y-108724448D01*
X109990304Y-108644202D01*
X110039239Y-108552650D01*
X110068243Y-108457037D01*
X110158467Y-108547261D01*
X110400378Y-108708901D01*
X110669175Y-108820240D01*
X110954528Y-108877000D01*
X111245472Y-108877000D01*
X111530825Y-108820240D01*
X111799622Y-108708901D01*
X112041533Y-108547261D01*
X112247261Y-108341533D01*
X112350000Y-108187773D01*
X112452739Y-108341533D01*
X112658467Y-108547261D01*
X112900378Y-108708901D01*
X113169175Y-108820240D01*
X113454528Y-108877000D01*
X113745472Y-108877000D01*
X113939552Y-108838395D01*
X114979493Y-109878337D01*
X114914128Y-109913275D01*
X114796945Y-110009445D01*
X114700775Y-110126628D01*
X114629315Y-110260321D01*
X114585310Y-110405387D01*
X114570451Y-110556250D01*
X114570451Y-111043750D01*
X114585310Y-111194613D01*
X114629315Y-111339679D01*
X114700775Y-111473372D01*
X114796945Y-111590555D01*
X114914128Y-111686725D01*
X115047821Y-111758185D01*
X115192887Y-111802190D01*
X115343750Y-111817049D01*
X116256250Y-111817049D01*
X116407113Y-111802190D01*
X116552179Y-111758185D01*
X116685872Y-111686725D01*
X116803055Y-111590555D01*
X116899225Y-111473372D01*
X116970685Y-111339679D01*
X117014690Y-111194613D01*
X117029549Y-111043750D01*
X117029549Y-110556250D01*
X117014690Y-110405387D01*
X116970685Y-110260321D01*
X116899225Y-110126628D01*
X116803055Y-110009445D01*
X116685872Y-109913275D01*
X116577000Y-109855082D01*
X116577000Y-109638163D01*
X116580759Y-109600000D01*
X116570262Y-109493425D01*
X116565757Y-109447681D01*
X116521327Y-109301216D01*
X116485252Y-109233725D01*
X116449177Y-109166233D01*
X116376409Y-109077565D01*
X116376408Y-109077564D01*
X116352080Y-109047920D01*
X116322436Y-109023592D01*
X115038395Y-107739552D01*
X115077000Y-107545472D01*
X115077000Y-107254528D01*
X115020240Y-106969175D01*
X114908901Y-106700378D01*
X114747261Y-106458467D01*
X114604794Y-106316000D01*
X115045934Y-106316000D01*
X119150320Y-110420387D01*
G36*
X120210901Y-81021496D02*
G01*
X120379604Y-81091376D01*
X120558699Y-81127000D01*
X120741301Y-81127000D01*
X120920396Y-81091376D01*
X121089099Y-81021496D01*
X121155693Y-80977000D01*
X123136159Y-80977000D01*
X124531592Y-82372434D01*
X124555922Y-82402080D01*
X124585566Y-82426408D01*
X124585567Y-82426409D01*
X124674235Y-82499177D01*
X124808017Y-82570685D01*
X124809218Y-82571327D01*
X124955683Y-82615757D01*
X125069836Y-82627000D01*
X125069845Y-82627000D01*
X125108001Y-82630758D01*
X125146157Y-82627000D01*
X127036159Y-82627000D01*
X129623000Y-85213842D01*
X129623001Y-93353827D01*
X123448363Y-93373003D01*
X123333260Y-93386093D01*
X123235245Y-93418742D01*
X123165126Y-93458694D01*
X123150473Y-93431279D01*
X122978397Y-93221603D01*
X122952074Y-93200000D01*
X122978397Y-93178397D01*
X123150473Y-92968721D01*
X123278337Y-92729505D01*
X123357075Y-92469939D01*
X123383662Y-92200000D01*
X123357075Y-91930061D01*
X123278337Y-91670495D01*
X123150473Y-91431279D01*
X122978397Y-91221603D01*
X122768721Y-91049527D01*
X122529505Y-90921663D01*
X122269939Y-90842925D01*
X122067640Y-90823000D01*
X121532360Y-90823000D01*
X121330061Y-90842925D01*
X121070495Y-90921663D01*
X120831279Y-91049527D01*
X120621603Y-91221603D01*
X120449527Y-91431279D01*
X120321663Y-91670495D01*
X120242925Y-91930061D01*
X120216338Y-92200000D01*
X120242925Y-92469939D01*
X120321663Y-92729505D01*
X120449527Y-92968721D01*
X120621603Y-93178397D01*
X120647926Y-93200000D01*
X120621603Y-93221603D01*
X120449527Y-93431279D01*
X120427227Y-93473000D01*
X118901133Y-93473000D01*
X118324559Y-92896427D01*
X118291376Y-92729604D01*
X118221496Y-92560901D01*
X118120048Y-92409072D01*
X117990928Y-92279952D01*
X117839099Y-92178504D01*
X117670396Y-92108624D01*
X117491301Y-92073000D01*
X117308699Y-92073000D01*
X117129604Y-92108624D01*
X116960901Y-92178504D01*
X116809072Y-92279952D01*
X116679952Y-92409072D01*
X116578504Y-92560901D01*
X116508624Y-92729604D01*
X116473000Y-92908699D01*
X116473000Y-93091301D01*
X116508624Y-93270396D01*
X116578504Y-93439099D01*
X116679952Y-93590928D01*
X116809072Y-93720048D01*
X116960901Y-93821496D01*
X117129604Y-93891376D01*
X117296427Y-93924559D01*
X118060679Y-94688812D01*
X118083446Y-94716554D01*
X118194147Y-94807403D01*
X118320443Y-94874910D01*
X118457483Y-94916480D01*
X118564292Y-94927000D01*
X118564294Y-94927000D01*
X118599999Y-94930517D01*
X118635705Y-94927000D01*
X120427227Y-94927000D01*
X120449527Y-94968721D01*
X120621603Y-95178397D01*
X120831279Y-95350473D01*
X121014562Y-95448440D01*
X120858467Y-95552739D01*
X120652739Y-95758467D01*
X120491099Y-96000378D01*
X120379760Y-96269175D01*
X120323000Y-96554528D01*
X120323000Y-96845472D01*
X120379760Y-97130825D01*
X120491099Y-97399622D01*
X120652739Y-97641533D01*
X120858467Y-97847261D01*
X121100378Y-98008901D01*
X121369175Y-98120240D01*
X121654528Y-98177000D01*
X121945472Y-98177000D01*
X122230825Y-98120240D01*
X122499622Y-98008901D01*
X122741533Y-97847261D01*
X122911794Y-97677000D01*
X125400000Y-97677000D01*
X125502813Y-97666874D01*
X125601674Y-97636885D01*
X125692786Y-97588184D01*
X125772645Y-97522645D01*
X125838184Y-97442786D01*
X125886885Y-97351674D01*
X125916874Y-97252813D01*
X125927000Y-97150000D01*
X125927000Y-96077000D01*
X129073000Y-96077000D01*
X129073000Y-99950000D01*
X129084524Y-100059604D01*
X129115811Y-100158063D01*
X129165706Y-100248525D01*
X129232290Y-100327516D01*
X129313005Y-100391999D01*
X129404749Y-100439496D01*
X129503997Y-100468182D01*
X129606934Y-100476954D01*
X131506934Y-100451954D01*
X131602813Y-100441874D01*
X131701674Y-100411885D01*
X131709334Y-100407791D01*
X131714128Y-100411725D01*
X131809122Y-100462500D01*
X131714128Y-100513275D01*
X131596945Y-100609445D01*
X131500775Y-100726628D01*
X131429315Y-100860321D01*
X131385310Y-101005387D01*
X131370451Y-101156250D01*
X131370451Y-101643750D01*
X131385310Y-101794613D01*
X131429315Y-101939679D01*
X131500775Y-102073372D01*
X131596945Y-102190555D01*
X131714128Y-102286725D01*
X131823001Y-102344918D01*
X131823001Y-102878155D01*
X131779671Y-102921486D01*
X131726955Y-102911000D01*
X131473045Y-102911000D01*
X131224013Y-102960535D01*
X130989430Y-103057703D01*
X130778310Y-103198768D01*
X130598768Y-103378310D01*
X130457703Y-103589430D01*
X130360535Y-103824013D01*
X130311000Y-104073045D01*
X130311000Y-104326955D01*
X130360535Y-104575987D01*
X130457703Y-104810570D01*
X130598768Y-105021690D01*
X130778310Y-105201232D01*
X130989430Y-105342297D01*
X131224013Y-105439465D01*
X131352711Y-105465064D01*
X131110188Y-105532972D01*
X130883736Y-105647820D01*
X130837406Y-105678777D01*
X130773714Y-105901188D01*
X131580000Y-106707473D01*
X132386286Y-105901188D01*
X132322594Y-105678777D01*
X132101290Y-105554295D01*
X131859955Y-105475379D01*
X131819744Y-105470543D01*
X131975987Y-105439465D01*
X132210570Y-105342297D01*
X132421690Y-105201232D01*
X132601232Y-105021690D01*
X132742297Y-104810570D01*
X132839465Y-104575987D01*
X132889000Y-104326955D01*
X132889000Y-104073045D01*
X132878514Y-104020329D01*
X133122436Y-103776408D01*
X133152080Y-103752080D01*
X133213232Y-103677566D01*
X133249178Y-103633766D01*
X133299778Y-103539099D01*
X133321327Y-103498784D01*
X133365757Y-103352319D01*
X133377000Y-103238166D01*
X133377000Y-103238164D01*
X133380759Y-103200000D01*
X133377000Y-103161837D01*
X133377000Y-102344918D01*
X133460000Y-102300554D01*
X133460001Y-106155932D01*
X132873022Y-106742912D01*
X132855491Y-106514695D01*
X132787028Y-106270188D01*
X132672180Y-106043736D01*
X132641223Y-105997406D01*
X132418812Y-105933714D01*
X131612527Y-106740000D01*
X131626669Y-106754142D01*
X131594142Y-106786669D01*
X131580000Y-106772527D01*
X130773714Y-107578812D01*
X130837406Y-107801223D01*
X130845899Y-107806000D01*
X128810014Y-107806000D01*
X128777999Y-107802847D01*
X128745985Y-107806000D01*
X128745978Y-107806000D01*
X128662827Y-107814190D01*
X128650185Y-107815435D01*
X128589756Y-107833766D01*
X128527283Y-107852717D01*
X128414016Y-107913259D01*
X128314736Y-107994736D01*
X128294320Y-108019613D01*
X126983934Y-109330000D01*
X126254302Y-109330000D01*
X126265806Y-109312783D01*
X126339454Y-109134980D01*
X126377000Y-108946226D01*
X126377000Y-108753774D01*
X126339454Y-108565020D01*
X126265806Y-108387217D01*
X126158885Y-108227199D01*
X126022801Y-108091115D01*
X125862783Y-107984194D01*
X125684980Y-107910546D01*
X125496226Y-107873000D01*
X125303774Y-107873000D01*
X125115020Y-107910546D01*
X124937217Y-107984194D01*
X124777199Y-108091115D01*
X124641115Y-108227199D01*
X124534194Y-108387217D01*
X124460546Y-108565020D01*
X124423000Y-108753774D01*
X124423000Y-108946226D01*
X124460546Y-109134980D01*
X124534194Y-109312783D01*
X124545698Y-109330000D01*
X121854302Y-109330000D01*
X121865806Y-109312783D01*
X121939454Y-109134980D01*
X121977000Y-108946226D01*
X121977000Y-108753774D01*
X121939454Y-108565020D01*
X121865806Y-108387217D01*
X121758885Y-108227199D01*
X121622801Y-108091115D01*
X121462783Y-107984194D01*
X121284980Y-107910546D01*
X121096226Y-107873000D01*
X120903774Y-107873000D01*
X120715020Y-107910546D01*
X120537217Y-107984194D01*
X120377199Y-108091115D01*
X120241115Y-108227199D01*
X120134194Y-108387217D01*
X120060546Y-108565020D01*
X120023000Y-108753774D01*
X120023000Y-108946226D01*
X120060546Y-109134980D01*
X120134194Y-109312783D01*
X120145698Y-109330000D01*
X119904067Y-109330000D01*
X117286206Y-106712139D01*
X130285062Y-106712139D01*
X130304509Y-106965305D01*
X130372972Y-107209812D01*
X130487820Y-107436264D01*
X130518777Y-107482594D01*
X130741188Y-107546286D01*
X131547473Y-106740000D01*
X130741188Y-105933714D01*
X130518777Y-105997406D01*
X130394295Y-106218710D01*
X130315379Y-106460045D01*
X130285062Y-106712139D01*
X117286206Y-106712139D01*
X115799685Y-105225619D01*
X115779264Y-105200736D01*
X115679984Y-105119259D01*
X115566717Y-105058717D01*
X115443814Y-105021435D01*
X115348022Y-105012000D01*
X115316000Y-105008846D01*
X115283978Y-105012000D01*
X112868022Y-105012000D01*
X112836000Y-105008846D01*
X112708185Y-105021435D01*
X112585283Y-105058717D01*
X112472016Y-105119259D01*
X112372736Y-105200736D01*
X112352320Y-105225613D01*
X111578448Y-105999486D01*
X111530825Y-105979760D01*
X111245472Y-105923000D01*
X110954528Y-105923000D01*
X110669175Y-105979760D01*
X110400378Y-106091099D01*
X110158467Y-106252739D01*
X110068243Y-106342963D01*
X110039239Y-106247350D01*
X109990304Y-106155798D01*
X109924448Y-106075552D01*
X109844202Y-106009696D01*
X109752650Y-105960761D01*
X109653310Y-105930626D01*
X109550000Y-105920451D01*
X107650000Y-105920451D01*
X107546690Y-105930626D01*
X107447350Y-105960761D01*
X107355798Y-106009696D01*
X107275552Y-106075552D01*
X107209696Y-106155798D01*
X107160761Y-106247350D01*
X107130626Y-106346690D01*
X107120451Y-106450000D01*
X107120451Y-106483000D01*
X104824918Y-106483000D01*
X104766725Y-106374128D01*
X104670555Y-106256945D01*
X104553372Y-106160775D01*
X104419679Y-106089315D01*
X104274613Y-106045310D01*
X104123750Y-106030451D01*
X103636250Y-106030451D01*
X103485387Y-106045310D01*
X103340321Y-106089315D01*
X103206628Y-106160775D01*
X103089445Y-106256945D01*
X102993275Y-106374128D01*
X102942500Y-106469122D01*
X102891725Y-106374128D01*
X102795555Y-106256945D01*
X102782000Y-106245821D01*
X102782000Y-106193155D01*
X102785758Y-106154999D01*
X102782000Y-106116843D01*
X102782000Y-106116834D01*
X102770757Y-106002681D01*
X102726327Y-105856216D01*
X102691629Y-105791301D01*
X102654177Y-105721233D01*
X102593928Y-105647820D01*
X102557080Y-105602920D01*
X102527430Y-105578587D01*
X102457001Y-105508158D01*
X102441376Y-105429604D01*
X102371496Y-105260901D01*
X102270048Y-105109072D01*
X102140928Y-104979952D01*
X101989099Y-104878504D01*
X101820396Y-104808624D01*
X101641301Y-104773000D01*
X101458699Y-104773000D01*
X101337000Y-104797207D01*
X101337000Y-103008699D01*
X127273000Y-103008699D01*
X127273000Y-103191301D01*
X127308624Y-103370396D01*
X127378504Y-103539099D01*
X127479952Y-103690928D01*
X127609072Y-103820048D01*
X127760901Y-103921496D01*
X127929604Y-103991376D01*
X128108699Y-104027000D01*
X128291301Y-104027000D01*
X128470396Y-103991376D01*
X128639099Y-103921496D01*
X128705693Y-103877000D01*
X129591837Y-103877000D01*
X129630000Y-103880759D01*
X129668163Y-103877000D01*
X129668166Y-103877000D01*
X129782319Y-103865757D01*
X129928784Y-103821327D01*
X130063766Y-103749177D01*
X130182080Y-103652080D01*
X130206413Y-103622430D01*
X130622430Y-103206413D01*
X130652080Y-103182080D01*
X130719441Y-103100000D01*
X130749177Y-103063767D01*
X130821327Y-102928784D01*
X130829689Y-102901217D01*
X130865757Y-102782319D01*
X130877000Y-102668166D01*
X130877000Y-102668157D01*
X130880758Y-102630001D01*
X130877000Y-102591845D01*
X130877000Y-102402320D01*
X130914239Y-102332650D01*
X130944374Y-102233310D01*
X130954549Y-102130000D01*
X130954549Y-101070000D01*
X130944374Y-100966690D01*
X130914239Y-100867350D01*
X130865304Y-100775798D01*
X130799448Y-100695552D01*
X130719202Y-100629696D01*
X130627650Y-100580761D01*
X130528310Y-100550626D01*
X130425000Y-100540451D01*
X129775000Y-100540451D01*
X129671690Y-100550626D01*
X129572350Y-100580761D01*
X129480798Y-100629696D01*
X129400552Y-100695552D01*
X129334696Y-100775798D01*
X129285761Y-100867350D01*
X129255626Y-100966690D01*
X129245451Y-101070000D01*
X129245451Y-102130000D01*
X129255626Y-102233310D01*
X129282834Y-102323000D01*
X129017166Y-102323000D01*
X129044374Y-102233310D01*
X129054549Y-102130000D01*
X129054549Y-101070000D01*
X129044374Y-100966690D01*
X129014239Y-100867350D01*
X128965304Y-100775798D01*
X128899448Y-100695552D01*
X128819202Y-100629696D01*
X128727650Y-100580761D01*
X128628310Y-100550626D01*
X128525000Y-100540451D01*
X127875000Y-100540451D01*
X127771690Y-100550626D01*
X127672350Y-100580761D01*
X127580798Y-100629696D01*
X127500552Y-100695552D01*
X127434696Y-100775798D01*
X127385761Y-100867350D01*
X127355626Y-100966690D01*
X127345451Y-101070000D01*
X127345451Y-102130000D01*
X127355626Y-102233310D01*
X127385761Y-102332650D01*
X127423000Y-102402321D01*
X127423000Y-102594307D01*
X127378504Y-102660901D01*
X127308624Y-102829604D01*
X127273000Y-103008699D01*
X101337000Y-103008699D01*
X101337000Y-101253774D01*
X105023000Y-101253774D01*
X105023000Y-101446226D01*
X105060546Y-101634980D01*
X105134194Y-101812783D01*
X105241115Y-101972801D01*
X105377199Y-102108885D01*
X105537217Y-102215806D01*
X105715020Y-102289454D01*
X105903774Y-102327000D01*
X106096226Y-102327000D01*
X106284980Y-102289454D01*
X106462783Y-102215806D01*
X106622801Y-102108885D01*
X106758885Y-101972801D01*
X106865806Y-101812783D01*
X106939454Y-101634980D01*
X106977000Y-101446226D01*
X106977000Y-101253774D01*
X106939454Y-101065020D01*
X106865806Y-100887217D01*
X106758885Y-100727199D01*
X106622801Y-100591115D01*
X106462783Y-100484194D01*
X106284980Y-100410546D01*
X106096226Y-100373000D01*
X105903774Y-100373000D01*
X105715020Y-100410546D01*
X105537217Y-100484194D01*
X105377199Y-100591115D01*
X105241115Y-100727199D01*
X105134194Y-100887217D01*
X105060546Y-101065020D01*
X105023000Y-101253774D01*
X101337000Y-101253774D01*
X101337000Y-98100000D01*
X107170451Y-98100000D01*
X107170451Y-98600000D01*
X107180626Y-98703310D01*
X107194790Y-98750000D01*
X107180626Y-98796690D01*
X107170451Y-98900000D01*
X107170451Y-99400000D01*
X107180626Y-99503310D01*
X107194790Y-99550000D01*
X107180626Y-99596690D01*
X107170451Y-99700000D01*
X107170451Y-100200000D01*
X107180626Y-100303310D01*
X107194790Y-100350000D01*
X107180626Y-100396690D01*
X107170451Y-100500000D01*
X107170451Y-101000000D01*
X107180626Y-101103310D01*
X107210761Y-101202650D01*
X107259696Y-101294202D01*
X107325552Y-101374448D01*
X107405798Y-101440304D01*
X107497350Y-101489239D01*
X107596690Y-101519374D01*
X107700000Y-101529549D01*
X110000000Y-101529549D01*
X110025881Y-101527000D01*
X112073492Y-101527000D01*
X112078504Y-101539099D01*
X112179952Y-101690928D01*
X112309072Y-101820048D01*
X112460901Y-101921496D01*
X112629604Y-101991376D01*
X112808699Y-102027000D01*
X112991301Y-102027000D01*
X113170396Y-101991376D01*
X113339099Y-101921496D01*
X113490928Y-101820048D01*
X113620048Y-101690928D01*
X113721496Y-101539099D01*
X113791376Y-101370396D01*
X113827000Y-101191301D01*
X113827000Y-101008699D01*
X113791376Y-100829604D01*
X113721496Y-100660901D01*
X113620048Y-100509072D01*
X113490928Y-100379952D01*
X113339099Y-100278504D01*
X113335232Y-100276902D01*
X114742135Y-98870000D01*
X127345451Y-98870000D01*
X127345451Y-99930000D01*
X127355626Y-100033310D01*
X127385761Y-100132650D01*
X127434696Y-100224202D01*
X127500552Y-100304448D01*
X127580798Y-100370304D01*
X127672350Y-100419239D01*
X127771690Y-100449374D01*
X127875000Y-100459549D01*
X128525000Y-100459549D01*
X128628310Y-100449374D01*
X128727650Y-100419239D01*
X128819202Y-100370304D01*
X128899448Y-100304448D01*
X128965304Y-100224202D01*
X129014239Y-100132650D01*
X129044374Y-100033310D01*
X129054549Y-99930000D01*
X129054549Y-98870000D01*
X129044374Y-98766690D01*
X129014239Y-98667350D01*
X128965304Y-98575798D01*
X128899448Y-98495552D01*
X128819202Y-98429696D01*
X128727650Y-98380761D01*
X128628310Y-98350626D01*
X128525000Y-98340451D01*
X127875000Y-98340451D01*
X127771690Y-98350626D01*
X127672350Y-98380761D01*
X127580798Y-98429696D01*
X127500552Y-98495552D01*
X127434696Y-98575798D01*
X127385761Y-98667350D01*
X127355626Y-98766690D01*
X127345451Y-98870000D01*
X114742135Y-98870000D01*
X115288822Y-98323314D01*
X115316553Y-98300556D01*
X115339312Y-98272824D01*
X115339316Y-98272820D01*
X115381989Y-98220822D01*
X115407403Y-98189855D01*
X115474910Y-98063559D01*
X115516480Y-97926519D01*
X115527000Y-97819710D01*
X115527000Y-97819709D01*
X115530517Y-97784002D01*
X115527000Y-97748294D01*
X115527000Y-93235708D01*
X115530517Y-93200000D01*
X115522192Y-93115474D01*
X115527000Y-93091301D01*
X115527000Y-92908699D01*
X115491376Y-92729604D01*
X115421496Y-92560901D01*
X115320048Y-92409072D01*
X115190928Y-92279952D01*
X115039099Y-92178504D01*
X114870396Y-92108624D01*
X114691301Y-92073000D01*
X114508699Y-92073000D01*
X114329604Y-92108624D01*
X114160901Y-92178504D01*
X114009072Y-92279952D01*
X113879952Y-92409072D01*
X113778504Y-92560901D01*
X113708624Y-92729604D01*
X113673000Y-92908699D01*
X113673000Y-93091301D01*
X113708624Y-93270396D01*
X113778504Y-93439099D01*
X113879952Y-93590928D01*
X114009072Y-93720048D01*
X114073001Y-93762764D01*
X114073000Y-96473000D01*
X113908699Y-96473000D01*
X113729604Y-96508624D01*
X113560901Y-96578504D01*
X113409072Y-96679952D01*
X113279952Y-96809072D01*
X113178504Y-96960901D01*
X113108624Y-97129604D01*
X113075441Y-97296425D01*
X111948868Y-98423000D01*
X110529549Y-98423000D01*
X110529549Y-98100000D01*
X110519374Y-97996690D01*
X110489239Y-97897350D01*
X110440304Y-97805798D01*
X110428927Y-97791936D01*
X110427000Y-97679750D01*
X110320250Y-97573000D01*
X110025881Y-97573000D01*
X110000000Y-97570451D01*
X107700000Y-97570451D01*
X107674119Y-97573000D01*
X107379750Y-97573000D01*
X107273000Y-97679750D01*
X107271073Y-97791936D01*
X107259696Y-97805798D01*
X107210761Y-97897350D01*
X107180626Y-97996690D01*
X107170451Y-98100000D01*
X101337000Y-98100000D01*
X101337000Y-96853774D01*
X105023000Y-96853774D01*
X105023000Y-97046226D01*
X105060546Y-97234980D01*
X105134194Y-97412783D01*
X105241115Y-97572801D01*
X105377199Y-97708885D01*
X105537217Y-97815806D01*
X105715020Y-97889454D01*
X105903774Y-97927000D01*
X106096226Y-97927000D01*
X106284980Y-97889454D01*
X106462783Y-97815806D01*
X106622801Y-97708885D01*
X106758885Y-97572801D01*
X106865806Y-97412783D01*
X106912521Y-97300000D01*
X107270934Y-97300000D01*
X107273000Y-97420250D01*
X107379750Y-97527000D01*
X108827000Y-97527000D01*
X108827000Y-96979750D01*
X108873000Y-96979750D01*
X108873000Y-97527000D01*
X110320250Y-97527000D01*
X110427000Y-97420250D01*
X110429066Y-97300000D01*
X110420822Y-97216293D01*
X110396405Y-97135804D01*
X110356755Y-97061624D01*
X110303395Y-96996605D01*
X110238376Y-96943245D01*
X110164196Y-96903595D01*
X110083707Y-96879178D01*
X110000000Y-96870934D01*
X108979750Y-96873000D01*
X108873000Y-96979750D01*
X108827000Y-96979750D01*
X108720250Y-96873000D01*
X107700000Y-96870934D01*
X107616293Y-96879178D01*
X107535804Y-96903595D01*
X107461624Y-96943245D01*
X107396605Y-96996605D01*
X107343245Y-97061624D01*
X107303595Y-97135804D01*
X107279178Y-97216293D01*
X107270934Y-97300000D01*
X106912521Y-97300000D01*
X106939454Y-97234980D01*
X106977000Y-97046226D01*
X106977000Y-96853774D01*
X106939454Y-96665020D01*
X106865806Y-96487217D01*
X106758885Y-96327199D01*
X106622801Y-96191115D01*
X106462783Y-96084194D01*
X106284980Y-96010546D01*
X106096226Y-95973000D01*
X105903774Y-95973000D01*
X105715020Y-96010546D01*
X105537217Y-96084194D01*
X105377199Y-96191115D01*
X105241115Y-96327199D01*
X105134194Y-96487217D01*
X105060546Y-96665020D01*
X105023000Y-96853774D01*
X101337000Y-96853774D01*
X101337000Y-91879549D01*
X102350000Y-91879549D01*
X102453310Y-91869374D01*
X102552650Y-91839239D01*
X102644202Y-91790304D01*
X102724448Y-91724448D01*
X102790304Y-91644202D01*
X102839239Y-91552650D01*
X102869374Y-91453310D01*
X102879549Y-91350000D01*
X102879549Y-90852999D01*
X102947350Y-90889239D01*
X103046690Y-90919374D01*
X103150000Y-90929549D01*
X104450000Y-90929549D01*
X104553310Y-90919374D01*
X104652650Y-90889239D01*
X104675548Y-90877000D01*
X105228157Y-90877000D01*
X105795662Y-91444505D01*
X105715020Y-91460546D01*
X105537217Y-91534194D01*
X105377199Y-91641115D01*
X105241115Y-91777199D01*
X105134194Y-91937217D01*
X105060546Y-92115020D01*
X105023000Y-92303774D01*
X105023000Y-92496226D01*
X105060546Y-92684980D01*
X105134194Y-92862783D01*
X105241115Y-93022801D01*
X105377199Y-93158885D01*
X105537217Y-93265806D01*
X105677327Y-93323841D01*
X105258158Y-93743011D01*
X105179604Y-93758636D01*
X105010901Y-93828516D01*
X104859072Y-93929964D01*
X104729952Y-94059084D01*
X104628504Y-94210913D01*
X104558624Y-94379616D01*
X104523000Y-94558711D01*
X104523000Y-94741313D01*
X104558624Y-94920408D01*
X104628504Y-95089111D01*
X104729952Y-95240940D01*
X104859072Y-95370060D01*
X105010901Y-95471508D01*
X105179604Y-95541388D01*
X105358699Y-95577012D01*
X105541301Y-95577012D01*
X105720396Y-95541388D01*
X105889099Y-95471508D01*
X106040928Y-95370060D01*
X106170048Y-95240940D01*
X106271496Y-95089111D01*
X106341376Y-94920408D01*
X106357001Y-94841854D01*
X107622437Y-93576419D01*
X107652080Y-93552092D01*
X107676409Y-93522447D01*
X107749177Y-93433779D01*
X107821327Y-93298796D01*
X107844743Y-93221603D01*
X107865757Y-93152331D01*
X107877000Y-93038178D01*
X107877000Y-93038169D01*
X107880758Y-93000013D01*
X107877000Y-92961857D01*
X107877000Y-92427000D01*
X110546152Y-92427000D01*
X110584315Y-92430759D01*
X110622478Y-92427000D01*
X110622481Y-92427000D01*
X110736634Y-92415757D01*
X110883099Y-92371327D01*
X111018081Y-92299177D01*
X111136395Y-92202080D01*
X111160727Y-92172431D01*
X111867505Y-91465653D01*
X111929604Y-91491376D01*
X112108699Y-91527000D01*
X112291301Y-91527000D01*
X112470396Y-91491376D01*
X112639099Y-91421496D01*
X112790928Y-91320048D01*
X112920048Y-91190928D01*
X113021496Y-91039099D01*
X113091376Y-90870396D01*
X113127000Y-90691301D01*
X113127000Y-90508699D01*
X113091376Y-90329604D01*
X113021496Y-90160901D01*
X112920048Y-90009072D01*
X112790928Y-89879952D01*
X112639099Y-89778504D01*
X112470396Y-89708624D01*
X112291301Y-89673000D01*
X112108699Y-89673000D01*
X111929604Y-89708624D01*
X111760901Y-89778504D01*
X111694307Y-89823000D01*
X111672470Y-89823000D01*
X111634314Y-89819242D01*
X111596158Y-89823000D01*
X111596149Y-89823000D01*
X111481996Y-89834243D01*
X111335531Y-89878673D01*
X111200548Y-89950823D01*
X111111880Y-90023591D01*
X111082235Y-90047920D01*
X111057907Y-90077564D01*
X110262472Y-90873000D01*
X107421844Y-90873000D01*
X106126412Y-89577569D01*
X106102080Y-89547920D01*
X105983766Y-89450823D01*
X105848784Y-89378673D01*
X105702319Y-89334243D01*
X105588166Y-89323000D01*
X105588163Y-89323000D01*
X105550000Y-89319241D01*
X105511837Y-89323000D01*
X104675548Y-89323000D01*
X104652650Y-89310761D01*
X104577000Y-89287812D01*
X104577000Y-88414179D01*
X104590555Y-88403055D01*
X104686725Y-88285872D01*
X104758185Y-88152179D01*
X104802190Y-88007113D01*
X104812368Y-87903774D01*
X105023000Y-87903774D01*
X105023000Y-88096226D01*
X105060546Y-88284980D01*
X105134194Y-88462783D01*
X105241115Y-88622801D01*
X105377199Y-88758885D01*
X105537217Y-88865806D01*
X105715020Y-88939454D01*
X105903774Y-88977000D01*
X106096226Y-88977000D01*
X106284980Y-88939454D01*
X106462783Y-88865806D01*
X106622801Y-88758885D01*
X106758885Y-88622801D01*
X106865806Y-88462783D01*
X106939454Y-88284980D01*
X106977000Y-88096226D01*
X106977000Y-87903774D01*
X106939454Y-87715020D01*
X106865806Y-87537217D01*
X106758885Y-87377199D01*
X106622801Y-87241115D01*
X106462783Y-87134194D01*
X106284980Y-87060546D01*
X106096226Y-87023000D01*
X105903774Y-87023000D01*
X105715020Y-87060546D01*
X105537217Y-87134194D01*
X105377199Y-87241115D01*
X105241115Y-87377199D01*
X105134194Y-87537217D01*
X105060546Y-87715020D01*
X105023000Y-87903774D01*
X104812368Y-87903774D01*
X104817049Y-87856250D01*
X104817049Y-87481794D01*
X108922437Y-83376407D01*
X108952080Y-83352080D01*
X108976409Y-83322435D01*
X109049177Y-83233767D01*
X109121327Y-83098784D01*
X109121327Y-83098783D01*
X109165757Y-82952319D01*
X109177000Y-82838166D01*
X109177000Y-82838157D01*
X109180758Y-82800001D01*
X109177000Y-82761845D01*
X109177000Y-82414179D01*
X109190555Y-82403055D01*
X109286725Y-82285872D01*
X109337500Y-82190878D01*
X109388275Y-82285872D01*
X109484445Y-82403055D01*
X109601628Y-82499225D01*
X109735321Y-82570685D01*
X109880387Y-82614690D01*
X110031250Y-82629549D01*
X110518750Y-82629549D01*
X110669613Y-82614690D01*
X110814679Y-82570685D01*
X110948372Y-82499225D01*
X111065555Y-82403055D01*
X111161725Y-82285872D01*
X111219918Y-82177000D01*
X111361837Y-82177000D01*
X111400000Y-82180759D01*
X111438163Y-82177000D01*
X111438166Y-82177000D01*
X111552319Y-82165757D01*
X111698784Y-82121327D01*
X111833766Y-82049177D01*
X111952080Y-81952080D01*
X111976412Y-81922431D01*
X112921844Y-80977000D01*
X120144307Y-80977000D01*
X120210901Y-81021496D01*
X120210901Y-81021496D01*
G37*
X120210901Y-81021496D02*
X120379604Y-81091376D01*
X120558699Y-81127000D01*
X120741301Y-81127000D01*
X120920396Y-81091376D01*
X121089099Y-81021496D01*
X121155693Y-80977000D01*
X123136159Y-80977000D01*
X124531592Y-82372434D01*
X124555922Y-82402080D01*
X124585566Y-82426408D01*
X124585567Y-82426409D01*
X124674235Y-82499177D01*
X124808017Y-82570685D01*
X124809218Y-82571327D01*
X124955683Y-82615757D01*
X125069836Y-82627000D01*
X125069845Y-82627000D01*
X125108001Y-82630758D01*
X125146157Y-82627000D01*
X127036159Y-82627000D01*
X129623000Y-85213842D01*
X129623001Y-93353827D01*
X123448363Y-93373003D01*
X123333260Y-93386093D01*
X123235245Y-93418742D01*
X123165126Y-93458694D01*
X123150473Y-93431279D01*
X122978397Y-93221603D01*
X122952074Y-93200000D01*
X122978397Y-93178397D01*
X123150473Y-92968721D01*
X123278337Y-92729505D01*
X123357075Y-92469939D01*
X123383662Y-92200000D01*
X123357075Y-91930061D01*
X123278337Y-91670495D01*
X123150473Y-91431279D01*
X122978397Y-91221603D01*
X122768721Y-91049527D01*
X122529505Y-90921663D01*
X122269939Y-90842925D01*
X122067640Y-90823000D01*
X121532360Y-90823000D01*
X121330061Y-90842925D01*
X121070495Y-90921663D01*
X120831279Y-91049527D01*
X120621603Y-91221603D01*
X120449527Y-91431279D01*
X120321663Y-91670495D01*
X120242925Y-91930061D01*
X120216338Y-92200000D01*
X120242925Y-92469939D01*
X120321663Y-92729505D01*
X120449527Y-92968721D01*
X120621603Y-93178397D01*
X120647926Y-93200000D01*
X120621603Y-93221603D01*
X120449527Y-93431279D01*
X120427227Y-93473000D01*
X118901133Y-93473000D01*
X118324559Y-92896427D01*
X118291376Y-92729604D01*
X118221496Y-92560901D01*
X118120048Y-92409072D01*
X117990928Y-92279952D01*
X117839099Y-92178504D01*
X117670396Y-92108624D01*
X117491301Y-92073000D01*
X117308699Y-92073000D01*
X117129604Y-92108624D01*
X116960901Y-92178504D01*
X116809072Y-92279952D01*
X116679952Y-92409072D01*
X116578504Y-92560901D01*
X116508624Y-92729604D01*
X116473000Y-92908699D01*
X116473000Y-93091301D01*
X116508624Y-93270396D01*
X116578504Y-93439099D01*
X116679952Y-93590928D01*
X116809072Y-93720048D01*
X116960901Y-93821496D01*
X117129604Y-93891376D01*
X117296427Y-93924559D01*
X118060679Y-94688812D01*
X118083446Y-94716554D01*
X118194147Y-94807403D01*
X118320443Y-94874910D01*
X118457483Y-94916480D01*
X118564292Y-94927000D01*
X118564294Y-94927000D01*
X118599999Y-94930517D01*
X118635705Y-94927000D01*
X120427227Y-94927000D01*
X120449527Y-94968721D01*
X120621603Y-95178397D01*
X120831279Y-95350473D01*
X121014562Y-95448440D01*
X120858467Y-95552739D01*
X120652739Y-95758467D01*
X120491099Y-96000378D01*
X120379760Y-96269175D01*
X120323000Y-96554528D01*
X120323000Y-96845472D01*
X120379760Y-97130825D01*
X120491099Y-97399622D01*
X120652739Y-97641533D01*
X120858467Y-97847261D01*
X121100378Y-98008901D01*
X121369175Y-98120240D01*
X121654528Y-98177000D01*
X121945472Y-98177000D01*
X122230825Y-98120240D01*
X122499622Y-98008901D01*
X122741533Y-97847261D01*
X122911794Y-97677000D01*
X125400000Y-97677000D01*
X125502813Y-97666874D01*
X125601674Y-97636885D01*
X125692786Y-97588184D01*
X125772645Y-97522645D01*
X125838184Y-97442786D01*
X125886885Y-97351674D01*
X125916874Y-97252813D01*
X125927000Y-97150000D01*
X125927000Y-96077000D01*
X129073000Y-96077000D01*
X129073000Y-99950000D01*
X129084524Y-100059604D01*
X129115811Y-100158063D01*
X129165706Y-100248525D01*
X129232290Y-100327516D01*
X129313005Y-100391999D01*
X129404749Y-100439496D01*
X129503997Y-100468182D01*
X129606934Y-100476954D01*
X131506934Y-100451954D01*
X131602813Y-100441874D01*
X131701674Y-100411885D01*
X131709334Y-100407791D01*
X131714128Y-100411725D01*
X131809122Y-100462500D01*
X131714128Y-100513275D01*
X131596945Y-100609445D01*
X131500775Y-100726628D01*
X131429315Y-100860321D01*
X131385310Y-101005387D01*
X131370451Y-101156250D01*
X131370451Y-101643750D01*
X131385310Y-101794613D01*
X131429315Y-101939679D01*
X131500775Y-102073372D01*
X131596945Y-102190555D01*
X131714128Y-102286725D01*
X131823001Y-102344918D01*
X131823001Y-102878155D01*
X131779671Y-102921486D01*
X131726955Y-102911000D01*
X131473045Y-102911000D01*
X131224013Y-102960535D01*
X130989430Y-103057703D01*
X130778310Y-103198768D01*
X130598768Y-103378310D01*
X130457703Y-103589430D01*
X130360535Y-103824013D01*
X130311000Y-104073045D01*
X130311000Y-104326955D01*
X130360535Y-104575987D01*
X130457703Y-104810570D01*
X130598768Y-105021690D01*
X130778310Y-105201232D01*
X130989430Y-105342297D01*
X131224013Y-105439465D01*
X131352711Y-105465064D01*
X131110188Y-105532972D01*
X130883736Y-105647820D01*
X130837406Y-105678777D01*
X130773714Y-105901188D01*
X131580000Y-106707473D01*
X132386286Y-105901188D01*
X132322594Y-105678777D01*
X132101290Y-105554295D01*
X131859955Y-105475379D01*
X131819744Y-105470543D01*
X131975987Y-105439465D01*
X132210570Y-105342297D01*
X132421690Y-105201232D01*
X132601232Y-105021690D01*
X132742297Y-104810570D01*
X132839465Y-104575987D01*
X132889000Y-104326955D01*
X132889000Y-104073045D01*
X132878514Y-104020329D01*
X133122436Y-103776408D01*
X133152080Y-103752080D01*
X133213232Y-103677566D01*
X133249178Y-103633766D01*
X133299778Y-103539099D01*
X133321327Y-103498784D01*
X133365757Y-103352319D01*
X133377000Y-103238166D01*
X133377000Y-103238164D01*
X133380759Y-103200000D01*
X133377000Y-103161837D01*
X133377000Y-102344918D01*
X133460000Y-102300554D01*
X133460001Y-106155932D01*
X132873022Y-106742912D01*
X132855491Y-106514695D01*
X132787028Y-106270188D01*
X132672180Y-106043736D01*
X132641223Y-105997406D01*
X132418812Y-105933714D01*
X131612527Y-106740000D01*
X131626669Y-106754142D01*
X131594142Y-106786669D01*
X131580000Y-106772527D01*
X130773714Y-107578812D01*
X130837406Y-107801223D01*
X130845899Y-107806000D01*
X128810014Y-107806000D01*
X128777999Y-107802847D01*
X128745985Y-107806000D01*
X128745978Y-107806000D01*
X128662827Y-107814190D01*
X128650185Y-107815435D01*
X128589756Y-107833766D01*
X128527283Y-107852717D01*
X128414016Y-107913259D01*
X128314736Y-107994736D01*
X128294320Y-108019613D01*
X126983934Y-109330000D01*
X126254302Y-109330000D01*
X126265806Y-109312783D01*
X126339454Y-109134980D01*
X126377000Y-108946226D01*
X126377000Y-108753774D01*
X126339454Y-108565020D01*
X126265806Y-108387217D01*
X126158885Y-108227199D01*
X126022801Y-108091115D01*
X125862783Y-107984194D01*
X125684980Y-107910546D01*
X125496226Y-107873000D01*
X125303774Y-107873000D01*
X125115020Y-107910546D01*
X124937217Y-107984194D01*
X124777199Y-108091115D01*
X124641115Y-108227199D01*
X124534194Y-108387217D01*
X124460546Y-108565020D01*
X124423000Y-108753774D01*
X124423000Y-108946226D01*
X124460546Y-109134980D01*
X124534194Y-109312783D01*
X124545698Y-109330000D01*
X121854302Y-109330000D01*
X121865806Y-109312783D01*
X121939454Y-109134980D01*
X121977000Y-108946226D01*
X121977000Y-108753774D01*
X121939454Y-108565020D01*
X121865806Y-108387217D01*
X121758885Y-108227199D01*
X121622801Y-108091115D01*
X121462783Y-107984194D01*
X121284980Y-107910546D01*
X121096226Y-107873000D01*
X120903774Y-107873000D01*
X120715020Y-107910546D01*
X120537217Y-107984194D01*
X120377199Y-108091115D01*
X120241115Y-108227199D01*
X120134194Y-108387217D01*
X120060546Y-108565020D01*
X120023000Y-108753774D01*
X120023000Y-108946226D01*
X120060546Y-109134980D01*
X120134194Y-109312783D01*
X120145698Y-109330000D01*
X119904067Y-109330000D01*
X117286206Y-106712139D01*
X130285062Y-106712139D01*
X130304509Y-106965305D01*
X130372972Y-107209812D01*
X130487820Y-107436264D01*
X130518777Y-107482594D01*
X130741188Y-107546286D01*
X131547473Y-106740000D01*
X130741188Y-105933714D01*
X130518777Y-105997406D01*
X130394295Y-106218710D01*
X130315379Y-106460045D01*
X130285062Y-106712139D01*
X117286206Y-106712139D01*
X115799685Y-105225619D01*
X115779264Y-105200736D01*
X115679984Y-105119259D01*
X115566717Y-105058717D01*
X115443814Y-105021435D01*
X115348022Y-105012000D01*
X115316000Y-105008846D01*
X115283978Y-105012000D01*
X112868022Y-105012000D01*
X112836000Y-105008846D01*
X112708185Y-105021435D01*
X112585283Y-105058717D01*
X112472016Y-105119259D01*
X112372736Y-105200736D01*
X112352320Y-105225613D01*
X111578448Y-105999486D01*
X111530825Y-105979760D01*
X111245472Y-105923000D01*
X110954528Y-105923000D01*
X110669175Y-105979760D01*
X110400378Y-106091099D01*
X110158467Y-106252739D01*
X110068243Y-106342963D01*
X110039239Y-106247350D01*
X109990304Y-106155798D01*
X109924448Y-106075552D01*
X109844202Y-106009696D01*
X109752650Y-105960761D01*
X109653310Y-105930626D01*
X109550000Y-105920451D01*
X107650000Y-105920451D01*
X107546690Y-105930626D01*
X107447350Y-105960761D01*
X107355798Y-106009696D01*
X107275552Y-106075552D01*
X107209696Y-106155798D01*
X107160761Y-106247350D01*
X107130626Y-106346690D01*
X107120451Y-106450000D01*
X107120451Y-106483000D01*
X104824918Y-106483000D01*
X104766725Y-106374128D01*
X104670555Y-106256945D01*
X104553372Y-106160775D01*
X104419679Y-106089315D01*
X104274613Y-106045310D01*
X104123750Y-106030451D01*
X103636250Y-106030451D01*
X103485387Y-106045310D01*
X103340321Y-106089315D01*
X103206628Y-106160775D01*
X103089445Y-106256945D01*
X102993275Y-106374128D01*
X102942500Y-106469122D01*
X102891725Y-106374128D01*
X102795555Y-106256945D01*
X102782000Y-106245821D01*
X102782000Y-106193155D01*
X102785758Y-106154999D01*
X102782000Y-106116843D01*
X102782000Y-106116834D01*
X102770757Y-106002681D01*
X102726327Y-105856216D01*
X102691629Y-105791301D01*
X102654177Y-105721233D01*
X102593928Y-105647820D01*
X102557080Y-105602920D01*
X102527430Y-105578587D01*
X102457001Y-105508158D01*
X102441376Y-105429604D01*
X102371496Y-105260901D01*
X102270048Y-105109072D01*
X102140928Y-104979952D01*
X101989099Y-104878504D01*
X101820396Y-104808624D01*
X101641301Y-104773000D01*
X101458699Y-104773000D01*
X101337000Y-104797207D01*
X101337000Y-103008699D01*
X127273000Y-103008699D01*
X127273000Y-103191301D01*
X127308624Y-103370396D01*
X127378504Y-103539099D01*
X127479952Y-103690928D01*
X127609072Y-103820048D01*
X127760901Y-103921496D01*
X127929604Y-103991376D01*
X128108699Y-104027000D01*
X128291301Y-104027000D01*
X128470396Y-103991376D01*
X128639099Y-103921496D01*
X128705693Y-103877000D01*
X129591837Y-103877000D01*
X129630000Y-103880759D01*
X129668163Y-103877000D01*
X129668166Y-103877000D01*
X129782319Y-103865757D01*
X129928784Y-103821327D01*
X130063766Y-103749177D01*
X130182080Y-103652080D01*
X130206413Y-103622430D01*
X130622430Y-103206413D01*
X130652080Y-103182080D01*
X130719441Y-103100000D01*
X130749177Y-103063767D01*
X130821327Y-102928784D01*
X130829689Y-102901217D01*
X130865757Y-102782319D01*
X130877000Y-102668166D01*
X130877000Y-102668157D01*
X130880758Y-102630001D01*
X130877000Y-102591845D01*
X130877000Y-102402320D01*
X130914239Y-102332650D01*
X130944374Y-102233310D01*
X130954549Y-102130000D01*
X130954549Y-101070000D01*
X130944374Y-100966690D01*
X130914239Y-100867350D01*
X130865304Y-100775798D01*
X130799448Y-100695552D01*
X130719202Y-100629696D01*
X130627650Y-100580761D01*
X130528310Y-100550626D01*
X130425000Y-100540451D01*
X129775000Y-100540451D01*
X129671690Y-100550626D01*
X129572350Y-100580761D01*
X129480798Y-100629696D01*
X129400552Y-100695552D01*
X129334696Y-100775798D01*
X129285761Y-100867350D01*
X129255626Y-100966690D01*
X129245451Y-101070000D01*
X129245451Y-102130000D01*
X129255626Y-102233310D01*
X129282834Y-102323000D01*
X129017166Y-102323000D01*
X129044374Y-102233310D01*
X129054549Y-102130000D01*
X129054549Y-101070000D01*
X129044374Y-100966690D01*
X129014239Y-100867350D01*
X128965304Y-100775798D01*
X128899448Y-100695552D01*
X128819202Y-100629696D01*
X128727650Y-100580761D01*
X128628310Y-100550626D01*
X128525000Y-100540451D01*
X127875000Y-100540451D01*
X127771690Y-100550626D01*
X127672350Y-100580761D01*
X127580798Y-100629696D01*
X127500552Y-100695552D01*
X127434696Y-100775798D01*
X127385761Y-100867350D01*
X127355626Y-100966690D01*
X127345451Y-101070000D01*
X127345451Y-102130000D01*
X127355626Y-102233310D01*
X127385761Y-102332650D01*
X127423000Y-102402321D01*
X127423000Y-102594307D01*
X127378504Y-102660901D01*
X127308624Y-102829604D01*
X127273000Y-103008699D01*
X101337000Y-103008699D01*
X101337000Y-101253774D01*
X105023000Y-101253774D01*
X105023000Y-101446226D01*
X105060546Y-101634980D01*
X105134194Y-101812783D01*
X105241115Y-101972801D01*
X105377199Y-102108885D01*
X105537217Y-102215806D01*
X105715020Y-102289454D01*
X105903774Y-102327000D01*
X106096226Y-102327000D01*
X106284980Y-102289454D01*
X106462783Y-102215806D01*
X106622801Y-102108885D01*
X106758885Y-101972801D01*
X106865806Y-101812783D01*
X106939454Y-101634980D01*
X106977000Y-101446226D01*
X106977000Y-101253774D01*
X106939454Y-101065020D01*
X106865806Y-100887217D01*
X106758885Y-100727199D01*
X106622801Y-100591115D01*
X106462783Y-100484194D01*
X106284980Y-100410546D01*
X106096226Y-100373000D01*
X105903774Y-100373000D01*
X105715020Y-100410546D01*
X105537217Y-100484194D01*
X105377199Y-100591115D01*
X105241115Y-100727199D01*
X105134194Y-100887217D01*
X105060546Y-101065020D01*
X105023000Y-101253774D01*
X101337000Y-101253774D01*
X101337000Y-98100000D01*
X107170451Y-98100000D01*
X107170451Y-98600000D01*
X107180626Y-98703310D01*
X107194790Y-98750000D01*
X107180626Y-98796690D01*
X107170451Y-98900000D01*
X107170451Y-99400000D01*
X107180626Y-99503310D01*
X107194790Y-99550000D01*
X107180626Y-99596690D01*
X107170451Y-99700000D01*
X107170451Y-100200000D01*
X107180626Y-100303310D01*
X107194790Y-100350000D01*
X107180626Y-100396690D01*
X107170451Y-100500000D01*
X107170451Y-101000000D01*
X107180626Y-101103310D01*
X107210761Y-101202650D01*
X107259696Y-101294202D01*
X107325552Y-101374448D01*
X107405798Y-101440304D01*
X107497350Y-101489239D01*
X107596690Y-101519374D01*
X107700000Y-101529549D01*
X110000000Y-101529549D01*
X110025881Y-101527000D01*
X112073492Y-101527000D01*
X112078504Y-101539099D01*
X112179952Y-101690928D01*
X112309072Y-101820048D01*
X112460901Y-101921496D01*
X112629604Y-101991376D01*
X112808699Y-102027000D01*
X112991301Y-102027000D01*
X113170396Y-101991376D01*
X113339099Y-101921496D01*
X113490928Y-101820048D01*
X113620048Y-101690928D01*
X113721496Y-101539099D01*
X113791376Y-101370396D01*
X113827000Y-101191301D01*
X113827000Y-101008699D01*
X113791376Y-100829604D01*
X113721496Y-100660901D01*
X113620048Y-100509072D01*
X113490928Y-100379952D01*
X113339099Y-100278504D01*
X113335232Y-100276902D01*
X114742135Y-98870000D01*
X127345451Y-98870000D01*
X127345451Y-99930000D01*
X127355626Y-100033310D01*
X127385761Y-100132650D01*
X127434696Y-100224202D01*
X127500552Y-100304448D01*
X127580798Y-100370304D01*
X127672350Y-100419239D01*
X127771690Y-100449374D01*
X127875000Y-100459549D01*
X128525000Y-100459549D01*
X128628310Y-100449374D01*
X128727650Y-100419239D01*
X128819202Y-100370304D01*
X128899448Y-100304448D01*
X128965304Y-100224202D01*
X129014239Y-100132650D01*
X129044374Y-100033310D01*
X129054549Y-99930000D01*
X129054549Y-98870000D01*
X129044374Y-98766690D01*
X129014239Y-98667350D01*
X128965304Y-98575798D01*
X128899448Y-98495552D01*
X128819202Y-98429696D01*
X128727650Y-98380761D01*
X128628310Y-98350626D01*
X128525000Y-98340451D01*
X127875000Y-98340451D01*
X127771690Y-98350626D01*
X127672350Y-98380761D01*
X127580798Y-98429696D01*
X127500552Y-98495552D01*
X127434696Y-98575798D01*
X127385761Y-98667350D01*
X127355626Y-98766690D01*
X127345451Y-98870000D01*
X114742135Y-98870000D01*
X115288822Y-98323314D01*
X115316553Y-98300556D01*
X115339312Y-98272824D01*
X115339316Y-98272820D01*
X115381989Y-98220822D01*
X115407403Y-98189855D01*
X115474910Y-98063559D01*
X115516480Y-97926519D01*
X115527000Y-97819710D01*
X115527000Y-97819709D01*
X115530517Y-97784002D01*
X115527000Y-97748294D01*
X115527000Y-93235708D01*
X115530517Y-93200000D01*
X115522192Y-93115474D01*
X115527000Y-93091301D01*
X115527000Y-92908699D01*
X115491376Y-92729604D01*
X115421496Y-92560901D01*
X115320048Y-92409072D01*
X115190928Y-92279952D01*
X115039099Y-92178504D01*
X114870396Y-92108624D01*
X114691301Y-92073000D01*
X114508699Y-92073000D01*
X114329604Y-92108624D01*
X114160901Y-92178504D01*
X114009072Y-92279952D01*
X113879952Y-92409072D01*
X113778504Y-92560901D01*
X113708624Y-92729604D01*
X113673000Y-92908699D01*
X113673000Y-93091301D01*
X113708624Y-93270396D01*
X113778504Y-93439099D01*
X113879952Y-93590928D01*
X114009072Y-93720048D01*
X114073001Y-93762764D01*
X114073000Y-96473000D01*
X113908699Y-96473000D01*
X113729604Y-96508624D01*
X113560901Y-96578504D01*
X113409072Y-96679952D01*
X113279952Y-96809072D01*
X113178504Y-96960901D01*
X113108624Y-97129604D01*
X113075441Y-97296425D01*
X111948868Y-98423000D01*
X110529549Y-98423000D01*
X110529549Y-98100000D01*
X110519374Y-97996690D01*
X110489239Y-97897350D01*
X110440304Y-97805798D01*
X110428927Y-97791936D01*
X110427000Y-97679750D01*
X110320250Y-97573000D01*
X110025881Y-97573000D01*
X110000000Y-97570451D01*
X107700000Y-97570451D01*
X107674119Y-97573000D01*
X107379750Y-97573000D01*
X107273000Y-97679750D01*
X107271073Y-97791936D01*
X107259696Y-97805798D01*
X107210761Y-97897350D01*
X107180626Y-97996690D01*
X107170451Y-98100000D01*
X101337000Y-98100000D01*
X101337000Y-96853774D01*
X105023000Y-96853774D01*
X105023000Y-97046226D01*
X105060546Y-97234980D01*
X105134194Y-97412783D01*
X105241115Y-97572801D01*
X105377199Y-97708885D01*
X105537217Y-97815806D01*
X105715020Y-97889454D01*
X105903774Y-97927000D01*
X106096226Y-97927000D01*
X106284980Y-97889454D01*
X106462783Y-97815806D01*
X106622801Y-97708885D01*
X106758885Y-97572801D01*
X106865806Y-97412783D01*
X106912521Y-97300000D01*
X107270934Y-97300000D01*
X107273000Y-97420250D01*
X107379750Y-97527000D01*
X108827000Y-97527000D01*
X108827000Y-96979750D01*
X108873000Y-96979750D01*
X108873000Y-97527000D01*
X110320250Y-97527000D01*
X110427000Y-97420250D01*
X110429066Y-97300000D01*
X110420822Y-97216293D01*
X110396405Y-97135804D01*
X110356755Y-97061624D01*
X110303395Y-96996605D01*
X110238376Y-96943245D01*
X110164196Y-96903595D01*
X110083707Y-96879178D01*
X110000000Y-96870934D01*
X108979750Y-96873000D01*
X108873000Y-96979750D01*
X108827000Y-96979750D01*
X108720250Y-96873000D01*
X107700000Y-96870934D01*
X107616293Y-96879178D01*
X107535804Y-96903595D01*
X107461624Y-96943245D01*
X107396605Y-96996605D01*
X107343245Y-97061624D01*
X107303595Y-97135804D01*
X107279178Y-97216293D01*
X107270934Y-97300000D01*
X106912521Y-97300000D01*
X106939454Y-97234980D01*
X106977000Y-97046226D01*
X106977000Y-96853774D01*
X106939454Y-96665020D01*
X106865806Y-96487217D01*
X106758885Y-96327199D01*
X106622801Y-96191115D01*
X106462783Y-96084194D01*
X106284980Y-96010546D01*
X106096226Y-95973000D01*
X105903774Y-95973000D01*
X105715020Y-96010546D01*
X105537217Y-96084194D01*
X105377199Y-96191115D01*
X105241115Y-96327199D01*
X105134194Y-96487217D01*
X105060546Y-96665020D01*
X105023000Y-96853774D01*
X101337000Y-96853774D01*
X101337000Y-91879549D01*
X102350000Y-91879549D01*
X102453310Y-91869374D01*
X102552650Y-91839239D01*
X102644202Y-91790304D01*
X102724448Y-91724448D01*
X102790304Y-91644202D01*
X102839239Y-91552650D01*
X102869374Y-91453310D01*
X102879549Y-91350000D01*
X102879549Y-90852999D01*
X102947350Y-90889239D01*
X103046690Y-90919374D01*
X103150000Y-90929549D01*
X104450000Y-90929549D01*
X104553310Y-90919374D01*
X104652650Y-90889239D01*
X104675548Y-90877000D01*
X105228157Y-90877000D01*
X105795662Y-91444505D01*
X105715020Y-91460546D01*
X105537217Y-91534194D01*
X105377199Y-91641115D01*
X105241115Y-91777199D01*
X105134194Y-91937217D01*
X105060546Y-92115020D01*
X105023000Y-92303774D01*
X105023000Y-92496226D01*
X105060546Y-92684980D01*
X105134194Y-92862783D01*
X105241115Y-93022801D01*
X105377199Y-93158885D01*
X105537217Y-93265806D01*
X105677327Y-93323841D01*
X105258158Y-93743011D01*
X105179604Y-93758636D01*
X105010901Y-93828516D01*
X104859072Y-93929964D01*
X104729952Y-94059084D01*
X104628504Y-94210913D01*
X104558624Y-94379616D01*
X104523000Y-94558711D01*
X104523000Y-94741313D01*
X104558624Y-94920408D01*
X104628504Y-95089111D01*
X104729952Y-95240940D01*
X104859072Y-95370060D01*
X105010901Y-95471508D01*
X105179604Y-95541388D01*
X105358699Y-95577012D01*
X105541301Y-95577012D01*
X105720396Y-95541388D01*
X105889099Y-95471508D01*
X106040928Y-95370060D01*
X106170048Y-95240940D01*
X106271496Y-95089111D01*
X106341376Y-94920408D01*
X106357001Y-94841854D01*
X107622437Y-93576419D01*
X107652080Y-93552092D01*
X107676409Y-93522447D01*
X107749177Y-93433779D01*
X107821327Y-93298796D01*
X107844743Y-93221603D01*
X107865757Y-93152331D01*
X107877000Y-93038178D01*
X107877000Y-93038169D01*
X107880758Y-93000013D01*
X107877000Y-92961857D01*
X107877000Y-92427000D01*
X110546152Y-92427000D01*
X110584315Y-92430759D01*
X110622478Y-92427000D01*
X110622481Y-92427000D01*
X110736634Y-92415757D01*
X110883099Y-92371327D01*
X111018081Y-92299177D01*
X111136395Y-92202080D01*
X111160727Y-92172431D01*
X111867505Y-91465653D01*
X111929604Y-91491376D01*
X112108699Y-91527000D01*
X112291301Y-91527000D01*
X112470396Y-91491376D01*
X112639099Y-91421496D01*
X112790928Y-91320048D01*
X112920048Y-91190928D01*
X113021496Y-91039099D01*
X113091376Y-90870396D01*
X113127000Y-90691301D01*
X113127000Y-90508699D01*
X113091376Y-90329604D01*
X113021496Y-90160901D01*
X112920048Y-90009072D01*
X112790928Y-89879952D01*
X112639099Y-89778504D01*
X112470396Y-89708624D01*
X112291301Y-89673000D01*
X112108699Y-89673000D01*
X111929604Y-89708624D01*
X111760901Y-89778504D01*
X111694307Y-89823000D01*
X111672470Y-89823000D01*
X111634314Y-89819242D01*
X111596158Y-89823000D01*
X111596149Y-89823000D01*
X111481996Y-89834243D01*
X111335531Y-89878673D01*
X111200548Y-89950823D01*
X111111880Y-90023591D01*
X111082235Y-90047920D01*
X111057907Y-90077564D01*
X110262472Y-90873000D01*
X107421844Y-90873000D01*
X106126412Y-89577569D01*
X106102080Y-89547920D01*
X105983766Y-89450823D01*
X105848784Y-89378673D01*
X105702319Y-89334243D01*
X105588166Y-89323000D01*
X105588163Y-89323000D01*
X105550000Y-89319241D01*
X105511837Y-89323000D01*
X104675548Y-89323000D01*
X104652650Y-89310761D01*
X104577000Y-89287812D01*
X104577000Y-88414179D01*
X104590555Y-88403055D01*
X104686725Y-88285872D01*
X104758185Y-88152179D01*
X104802190Y-88007113D01*
X104812368Y-87903774D01*
X105023000Y-87903774D01*
X105023000Y-88096226D01*
X105060546Y-88284980D01*
X105134194Y-88462783D01*
X105241115Y-88622801D01*
X105377199Y-88758885D01*
X105537217Y-88865806D01*
X105715020Y-88939454D01*
X105903774Y-88977000D01*
X106096226Y-88977000D01*
X106284980Y-88939454D01*
X106462783Y-88865806D01*
X106622801Y-88758885D01*
X106758885Y-88622801D01*
X106865806Y-88462783D01*
X106939454Y-88284980D01*
X106977000Y-88096226D01*
X106977000Y-87903774D01*
X106939454Y-87715020D01*
X106865806Y-87537217D01*
X106758885Y-87377199D01*
X106622801Y-87241115D01*
X106462783Y-87134194D01*
X106284980Y-87060546D01*
X106096226Y-87023000D01*
X105903774Y-87023000D01*
X105715020Y-87060546D01*
X105537217Y-87134194D01*
X105377199Y-87241115D01*
X105241115Y-87377199D01*
X105134194Y-87537217D01*
X105060546Y-87715020D01*
X105023000Y-87903774D01*
X104812368Y-87903774D01*
X104817049Y-87856250D01*
X104817049Y-87481794D01*
X108922437Y-83376407D01*
X108952080Y-83352080D01*
X108976409Y-83322435D01*
X109049177Y-83233767D01*
X109121327Y-83098784D01*
X109121327Y-83098783D01*
X109165757Y-82952319D01*
X109177000Y-82838166D01*
X109177000Y-82838157D01*
X109180758Y-82800001D01*
X109177000Y-82761845D01*
X109177000Y-82414179D01*
X109190555Y-82403055D01*
X109286725Y-82285872D01*
X109337500Y-82190878D01*
X109388275Y-82285872D01*
X109484445Y-82403055D01*
X109601628Y-82499225D01*
X109735321Y-82570685D01*
X109880387Y-82614690D01*
X110031250Y-82629549D01*
X110518750Y-82629549D01*
X110669613Y-82614690D01*
X110814679Y-82570685D01*
X110948372Y-82499225D01*
X111065555Y-82403055D01*
X111161725Y-82285872D01*
X111219918Y-82177000D01*
X111361837Y-82177000D01*
X111400000Y-82180759D01*
X111438163Y-82177000D01*
X111438166Y-82177000D01*
X111552319Y-82165757D01*
X111698784Y-82121327D01*
X111833766Y-82049177D01*
X111952080Y-81952080D01*
X111976412Y-81922431D01*
X112921844Y-80977000D01*
X120144307Y-80977000D01*
X120210901Y-81021496D01*
G36*
X134322000Y-99109934D02*
G01*
X134298685Y-99086619D01*
X134278264Y-99061736D01*
X134178984Y-98980259D01*
X134065717Y-98919717D01*
X133942814Y-98882435D01*
X133847022Y-98873000D01*
X133815000Y-98869846D01*
X133782978Y-98873000D01*
X133710649Y-98873000D01*
X133699225Y-98851628D01*
X133603055Y-98734445D01*
X133485872Y-98638275D01*
X133352179Y-98566815D01*
X133207113Y-98522810D01*
X133056250Y-98507951D01*
X132143750Y-98507951D01*
X132027000Y-98519450D01*
X132027000Y-93875000D01*
X132016552Y-93770583D01*
X131986256Y-93671815D01*
X131937273Y-93580855D01*
X131871486Y-93501199D01*
X131791423Y-93435908D01*
X131700161Y-93387492D01*
X131601207Y-93357809D01*
X131498363Y-93348003D01*
X131177000Y-93349001D01*
X131177000Y-84930161D01*
X131180759Y-84891998D01*
X131177000Y-84853832D01*
X131165757Y-84739679D01*
X131121327Y-84593214D01*
X131074811Y-84506189D01*
X131682168Y-84627000D01*
X132317832Y-84627000D01*
X132941281Y-84502988D01*
X133528558Y-84259730D01*
X134057093Y-83906575D01*
X134322001Y-83641667D01*
X134322000Y-99109934D01*
X134322000Y-99109934D01*
G37*
X134322000Y-99109934D02*
X134298685Y-99086619D01*
X134278264Y-99061736D01*
X134178984Y-98980259D01*
X134065717Y-98919717D01*
X133942814Y-98882435D01*
X133847022Y-98873000D01*
X133815000Y-98869846D01*
X133782978Y-98873000D01*
X133710649Y-98873000D01*
X133699225Y-98851628D01*
X133603055Y-98734445D01*
X133485872Y-98638275D01*
X133352179Y-98566815D01*
X133207113Y-98522810D01*
X133056250Y-98507951D01*
X132143750Y-98507951D01*
X132027000Y-98519450D01*
X132027000Y-93875000D01*
X132016552Y-93770583D01*
X131986256Y-93671815D01*
X131937273Y-93580855D01*
X131871486Y-93501199D01*
X131791423Y-93435908D01*
X131700161Y-93387492D01*
X131601207Y-93357809D01*
X131498363Y-93348003D01*
X131177000Y-93349001D01*
X131177000Y-84930161D01*
X131180759Y-84891998D01*
X131177000Y-84853832D01*
X131165757Y-84739679D01*
X131121327Y-84593214D01*
X131074811Y-84506189D01*
X131682168Y-84627000D01*
X132317832Y-84627000D01*
X132941281Y-84502988D01*
X133528558Y-84259730D01*
X134057093Y-83906575D01*
X134322001Y-83641667D01*
X134322000Y-99109934D01*
G36*
X131058719Y-78297012D02*
G01*
X130471442Y-78540270D01*
X129942907Y-78893425D01*
X129493425Y-79342907D01*
X129140270Y-79871442D01*
X128897012Y-80458719D01*
X128773000Y-81082168D01*
X128773000Y-81717832D01*
X128884320Y-82277475D01*
X127934415Y-81327570D01*
X127910082Y-81297920D01*
X127791768Y-81200823D01*
X127656786Y-81128673D01*
X127510321Y-81084243D01*
X127396168Y-81073000D01*
X127396165Y-81073000D01*
X127358002Y-81069241D01*
X127319839Y-81073000D01*
X125429846Y-81073000D01*
X124034414Y-79677569D01*
X124010082Y-79647920D01*
X123891768Y-79550823D01*
X123756786Y-79478673D01*
X123610321Y-79434243D01*
X123496168Y-79423000D01*
X123496165Y-79423000D01*
X123458002Y-79419241D01*
X123419839Y-79423000D01*
X121155693Y-79423000D01*
X121089099Y-79378504D01*
X120920396Y-79308624D01*
X120741301Y-79273000D01*
X120558699Y-79273000D01*
X120379604Y-79308624D01*
X120210901Y-79378504D01*
X120144307Y-79423000D01*
X112638155Y-79423000D01*
X112599999Y-79419242D01*
X112561843Y-79423000D01*
X112561834Y-79423000D01*
X112447681Y-79434243D01*
X112343033Y-79465988D01*
X112301216Y-79478673D01*
X112166233Y-79550823D01*
X112084635Y-79617789D01*
X112047920Y-79647920D01*
X112023592Y-79677564D01*
X111170539Y-80530618D01*
X111161725Y-80514128D01*
X111065555Y-80396945D01*
X110948372Y-80300775D01*
X110814679Y-80229315D01*
X110669613Y-80185310D01*
X110518750Y-80170451D01*
X110031250Y-80170451D01*
X109880387Y-80185310D01*
X109735321Y-80229315D01*
X109601628Y-80300775D01*
X109484445Y-80396945D01*
X109388275Y-80514128D01*
X109337500Y-80609122D01*
X109286725Y-80514128D01*
X109190555Y-80396945D01*
X109073372Y-80300775D01*
X108939679Y-80229315D01*
X108794613Y-80185310D01*
X108643750Y-80170451D01*
X108156250Y-80170451D01*
X108005387Y-80185310D01*
X107860321Y-80229315D01*
X107726628Y-80300775D01*
X107609445Y-80396945D01*
X107513275Y-80514128D01*
X107441815Y-80647821D01*
X107397810Y-80792887D01*
X107382951Y-80943750D01*
X107382951Y-81856250D01*
X107397810Y-82007113D01*
X107441815Y-82152179D01*
X107513275Y-82285872D01*
X107609445Y-82403055D01*
X107623000Y-82414180D01*
X107623000Y-82478156D01*
X103930706Y-86170451D01*
X103556250Y-86170451D01*
X103405387Y-86185310D01*
X103260321Y-86229315D01*
X103126628Y-86300775D01*
X103009445Y-86396945D01*
X102913275Y-86514128D01*
X102841815Y-86647821D01*
X102797810Y-86792887D01*
X102782951Y-86943750D01*
X102782951Y-87856250D01*
X102797810Y-88007113D01*
X102841815Y-88152179D01*
X102913275Y-88285872D01*
X103009445Y-88403055D01*
X103023000Y-88414180D01*
X103023001Y-89287812D01*
X102947350Y-89310761D01*
X102855798Y-89359696D01*
X102775552Y-89425552D01*
X102709696Y-89505798D01*
X102660761Y-89597350D01*
X102630626Y-89696690D01*
X102620451Y-89800000D01*
X102620451Y-90297001D01*
X102552650Y-90260761D01*
X102453310Y-90230626D01*
X102350000Y-90220451D01*
X101337000Y-90220451D01*
X101337000Y-84169899D01*
X101471442Y-84259730D01*
X102058719Y-84502988D01*
X102682168Y-84627000D01*
X103317832Y-84627000D01*
X103941281Y-84502988D01*
X104528558Y-84259730D01*
X105057093Y-83906575D01*
X105506575Y-83457093D01*
X105859730Y-82928558D01*
X106102988Y-82341281D01*
X106227000Y-81717832D01*
X106227000Y-81082168D01*
X106102988Y-80458719D01*
X105859730Y-79871442D01*
X105506575Y-79342907D01*
X105284114Y-79120446D01*
X105284252Y-79120372D01*
X105349137Y-79077017D01*
X105368382Y-79061224D01*
X106022382Y-78407224D01*
X106055858Y-78384856D01*
X106095352Y-78377000D01*
X121267157Y-78377000D01*
X121291933Y-78374560D01*
X121368470Y-78359336D01*
X121392295Y-78352109D01*
X121414252Y-78340372D01*
X121479137Y-78297017D01*
X121498382Y-78281224D01*
X121503606Y-78276000D01*
X131164353Y-78276000D01*
X131058719Y-78297012D01*
X131058719Y-78297012D01*
G37*
X131058719Y-78297012D02*
X130471442Y-78540270D01*
X129942907Y-78893425D01*
X129493425Y-79342907D01*
X129140270Y-79871442D01*
X128897012Y-80458719D01*
X128773000Y-81082168D01*
X128773000Y-81717832D01*
X128884320Y-82277475D01*
X127934415Y-81327570D01*
X127910082Y-81297920D01*
X127791768Y-81200823D01*
X127656786Y-81128673D01*
X127510321Y-81084243D01*
X127396168Y-81073000D01*
X127396165Y-81073000D01*
X127358002Y-81069241D01*
X127319839Y-81073000D01*
X125429846Y-81073000D01*
X124034414Y-79677569D01*
X124010082Y-79647920D01*
X123891768Y-79550823D01*
X123756786Y-79478673D01*
X123610321Y-79434243D01*
X123496168Y-79423000D01*
X123496165Y-79423000D01*
X123458002Y-79419241D01*
X123419839Y-79423000D01*
X121155693Y-79423000D01*
X121089099Y-79378504D01*
X120920396Y-79308624D01*
X120741301Y-79273000D01*
X120558699Y-79273000D01*
X120379604Y-79308624D01*
X120210901Y-79378504D01*
X120144307Y-79423000D01*
X112638155Y-79423000D01*
X112599999Y-79419242D01*
X112561843Y-79423000D01*
X112561834Y-79423000D01*
X112447681Y-79434243D01*
X112343033Y-79465988D01*
X112301216Y-79478673D01*
X112166233Y-79550823D01*
X112084635Y-79617789D01*
X112047920Y-79647920D01*
X112023592Y-79677564D01*
X111170539Y-80530618D01*
X111161725Y-80514128D01*
X111065555Y-80396945D01*
X110948372Y-80300775D01*
X110814679Y-80229315D01*
X110669613Y-80185310D01*
X110518750Y-80170451D01*
X110031250Y-80170451D01*
X109880387Y-80185310D01*
X109735321Y-80229315D01*
X109601628Y-80300775D01*
X109484445Y-80396945D01*
X109388275Y-80514128D01*
X109337500Y-80609122D01*
X109286725Y-80514128D01*
X109190555Y-80396945D01*
X109073372Y-80300775D01*
X108939679Y-80229315D01*
X108794613Y-80185310D01*
X108643750Y-80170451D01*
X108156250Y-80170451D01*
X108005387Y-80185310D01*
X107860321Y-80229315D01*
X107726628Y-80300775D01*
X107609445Y-80396945D01*
X107513275Y-80514128D01*
X107441815Y-80647821D01*
X107397810Y-80792887D01*
X107382951Y-80943750D01*
X107382951Y-81856250D01*
X107397810Y-82007113D01*
X107441815Y-82152179D01*
X107513275Y-82285872D01*
X107609445Y-82403055D01*
X107623000Y-82414180D01*
X107623000Y-82478156D01*
X103930706Y-86170451D01*
X103556250Y-86170451D01*
X103405387Y-86185310D01*
X103260321Y-86229315D01*
X103126628Y-86300775D01*
X103009445Y-86396945D01*
X102913275Y-86514128D01*
X102841815Y-86647821D01*
X102797810Y-86792887D01*
X102782951Y-86943750D01*
X102782951Y-87856250D01*
X102797810Y-88007113D01*
X102841815Y-88152179D01*
X102913275Y-88285872D01*
X103009445Y-88403055D01*
X103023000Y-88414180D01*
X103023001Y-89287812D01*
X102947350Y-89310761D01*
X102855798Y-89359696D01*
X102775552Y-89425552D01*
X102709696Y-89505798D01*
X102660761Y-89597350D01*
X102630626Y-89696690D01*
X102620451Y-89800000D01*
X102620451Y-90297001D01*
X102552650Y-90260761D01*
X102453310Y-90230626D01*
X102350000Y-90220451D01*
X101337000Y-90220451D01*
X101337000Y-84169899D01*
X101471442Y-84259730D01*
X102058719Y-84502988D01*
X102682168Y-84627000D01*
X103317832Y-84627000D01*
X103941281Y-84502988D01*
X104528558Y-84259730D01*
X105057093Y-83906575D01*
X105506575Y-83457093D01*
X105859730Y-82928558D01*
X106102988Y-82341281D01*
X106227000Y-81717832D01*
X106227000Y-81082168D01*
X106102988Y-80458719D01*
X105859730Y-79871442D01*
X105506575Y-79342907D01*
X105284114Y-79120446D01*
X105284252Y-79120372D01*
X105349137Y-79077017D01*
X105368382Y-79061224D01*
X106022382Y-78407224D01*
X106055858Y-78384856D01*
X106095352Y-78377000D01*
X121267157Y-78377000D01*
X121291933Y-78374560D01*
X121368470Y-78359336D01*
X121392295Y-78352109D01*
X121414252Y-78340372D01*
X121479137Y-78297017D01*
X121498382Y-78281224D01*
X121503606Y-78276000D01*
X131164353Y-78276000D01*
X131058719Y-78297012D01*
G36*
X131373000Y-99255370D02*
G01*
X131370451Y-99281250D01*
X131370451Y-99768750D01*
X131373000Y-99794630D01*
X131373000Y-99799660D01*
X129830927Y-99819951D01*
X129740928Y-99729952D01*
X129727000Y-99720646D01*
X129727000Y-95550000D01*
X129724560Y-95525224D01*
X129717333Y-95501399D01*
X129705597Y-95479443D01*
X129689803Y-95460197D01*
X129670557Y-95444403D01*
X129648601Y-95432667D01*
X129624776Y-95425440D01*
X129600000Y-95423000D01*
X125400000Y-95423000D01*
X125375224Y-95425440D01*
X125351399Y-95432667D01*
X125329443Y-95444403D01*
X125310197Y-95460197D01*
X125294403Y-95479443D01*
X125282667Y-95501399D01*
X125275440Y-95525224D01*
X125273000Y-95550000D01*
X125273000Y-97023000D01*
X121581617Y-97023000D01*
X121622545Y-95877000D01*
X123500000Y-95877000D01*
X123524776Y-95874560D01*
X123548601Y-95867333D01*
X123570557Y-95855597D01*
X123589803Y-95839803D01*
X123605597Y-95820557D01*
X123617333Y-95798601D01*
X123624560Y-95774776D01*
X123626954Y-95746569D01*
X123580468Y-94026595D01*
X131373000Y-94002395D01*
X131373000Y-99255370D01*
X131373000Y-99255370D01*
G37*
X131373000Y-99255370D02*
X131370451Y-99281250D01*
X131370451Y-99768750D01*
X131373000Y-99794630D01*
X131373000Y-99799660D01*
X129830927Y-99819951D01*
X129740928Y-99729952D01*
X129727000Y-99720646D01*
X129727000Y-95550000D01*
X129724560Y-95525224D01*
X129717333Y-95501399D01*
X129705597Y-95479443D01*
X129689803Y-95460197D01*
X129670557Y-95444403D01*
X129648601Y-95432667D01*
X129624776Y-95425440D01*
X129600000Y-95423000D01*
X125400000Y-95423000D01*
X125375224Y-95425440D01*
X125351399Y-95432667D01*
X125329443Y-95444403D01*
X125310197Y-95460197D01*
X125294403Y-95479443D01*
X125282667Y-95501399D01*
X125275440Y-95525224D01*
X125273000Y-95550000D01*
X125273000Y-97023000D01*
X121581617Y-97023000D01*
X121622545Y-95877000D01*
X123500000Y-95877000D01*
X123524776Y-95874560D01*
X123548601Y-95867333D01*
X123570557Y-95855597D01*
X123589803Y-95839803D01*
X123605597Y-95820557D01*
X123617333Y-95798601D01*
X123624560Y-95774776D01*
X123626954Y-95746569D01*
X123580468Y-94026595D01*
X131373000Y-94002395D01*
X131373000Y-99255370D01*
M02*
