M48
; DRILL file {KiCad (5.1.4)-1} date 2019-10-26 4:40:57 PM
; FORMAT={-:-/ absolute / inch / decimal}
; #@! TF.CreationDate,2019-10-26T16:40:57-04:00
; #@! TF.GenerationSoftware,Kicad,Pcbnew,(5.1.4)-1
; #@! TF.FileFunction,Plated,1,2,PTH
FMAT,2
INCH
T1C0.0157
T2C0.0300
T3C0.0354
T4C0.0362
T5C0.0906
T6C0.1063
%
G90
G05
T1
X3.998Y-4.1614
X4.0157Y-3.3504
X4.0236Y-3.5091
X4.0441Y-3.8091
X4.065Y-3.376
X4.065Y-3.7283
X4.065Y-4.0787
X4.0886Y-3.9508
X4.1059Y-4.1575
X4.1358Y-3.8898
X4.1516Y-3.7264
X4.1673Y-4.0709
X4.1673Y-4.1575
X4.1909Y-3.1299
X4.1949Y-4.3366
X4.1984Y-4.4472
X4.2303Y-3.4272
X4.2815Y-3.376
X4.2815Y-3.7283
X4.2815Y-4.0787
X4.2835Y-3.6535
X4.3169Y-3.2953
X4.3307Y-4.374
X4.3307Y-4.4331
X4.3563Y-3.128
X4.3642Y-3.8386
X4.3661Y-3.6614
X4.3819Y-3.7126
X4.4043Y-4.4437
X4.4091Y-4.3752
X4.4094Y-3.8386
X4.4173Y-3.5669
X4.4252Y-3.3307
X4.4331Y-4.0965
X4.4449Y-3.9803
X4.4508Y-4.0354
X4.4547Y-3.4528
X4.4646Y-3.6378
X4.4882Y-3.8346
X4.5098Y-3.4862
X4.5118Y-3.6614
X4.5472Y-3.9114
X4.561Y-3.25
X4.5669Y-3.7559
X4.5728Y-3.5335
X4.5945Y-3.4626
X4.6083Y-4.128
X4.622Y-3.6614
X4.628Y-3.8327
X4.6398Y-3.5768
X4.6535Y-3.374
X4.6594Y-4.4469
X4.6752Y-4.1772
X4.6752Y-4.3937
X4.6949Y-3.7638
X4.7028Y-3.5453
X4.7067Y-3.8366
X4.7106Y-4.2362
X4.7283Y-3.9783
X4.75Y-3.1575
X4.7606Y-4.4476
X4.7854Y-3.2283
X4.7874Y-3.3327
X4.7894Y-3.4252
X4.7933Y-3.9587
X4.7972Y-3.1122
X4.8327Y-4.4311
X4.8386Y-4.0807
X4.8406Y-3.3031
X4.8445Y-4.2795
X4.8681Y-3.5118
X4.9154Y-4.4445
X4.9646Y-3.1614
X4.9724Y-3.7972
X4.9744Y-3.6417
X4.9744Y-3.8465
X4.9803Y-4.4469
X4.9843Y-3.2756
X4.9882Y-4.1161
X5.0098Y-3.5413
X5.0157Y-3.811
X5.0256Y-4.1772
X5.0256Y-4.3937
X5.0276Y-3.4311
X5.0453Y-3.3346
X5.0472Y-4.0591
X5.0709Y-3.6417
X5.0846Y-3.9547
X5.0906Y-4.1358
X5.1988Y-3.38
X5.1988Y-3.47
X5.1988Y-3.5669
X5.2559Y-3.7953
X5.26Y-3.38
X5.26Y-3.47
X5.2638Y-3.6634
T2
X5.1803Y-4.2024
X5.1811Y-4.1024
T3
X4.2756Y-4.2283
X4.374Y-4.2283
X4.4724Y-4.2283
T4
X4.7953Y-3.5315
X4.7953Y-3.6299
X4.7953Y-3.7087
X4.7953Y-3.8071
T5
X4.902Y-3.4106
X4.902Y-3.928
T6
X5.1969Y-4.4094
X4.0551Y-4.4094
X4.0551Y-3.2047
X5.1969Y-3.2047
T0
M30
