G04 #@! TF.GenerationSoftware,KiCad,Pcbnew,(5.1.4)-1*
G04 #@! TF.CreationDate,2019-10-26T10:40:08-04:00*
G04 #@! TF.ProjectId,USB_HubSwitch,5553425f-4875-4625-9377-697463682e6b,rev?*
G04 #@! TF.SameCoordinates,Original*
G04 #@! TF.FileFunction,Copper,L1,Top*
G04 #@! TF.FilePolarity,Positive*
%FSLAX46Y46*%
G04 Gerber Fmt 4.6, Leading zero omitted, Abs format (unit mm)*
G04 Created by KiCad (PCBNEW (5.1.4)-1) date 2019-10-26 10:40:08*
%MOMM*%
%LPD*%
G04 APERTURE LIST*
%ADD10C,5.400000*%
%ADD11R,2.300000X0.500000*%
%ADD12R,2.500000X2.000000*%
%ADD13C,1.524000*%
%ADD14C,3.300000*%
%ADD15C,1.900000*%
%ADD16O,2.100000X1.700000*%
%ADD17R,0.300000X1.450000*%
%ADD18R,2.000000X2.500000*%
%ADD19R,0.500000X2.300000*%
%ADD20R,1.900000X1.900000*%
%ADD21C,0.100000*%
%ADD22C,0.975000*%
%ADD23R,1.060000X0.650000*%
%ADD24C,0.800000*%
%ADD25C,0.250000*%
%ADD26C,0.500000*%
%ADD27C,0.400000*%
%ADD28C,0.254000*%
G04 APERTURE END LIST*
D10*
X103000000Y-81400000D03*
X132000000Y-112000000D03*
X132000000Y-81400000D03*
X103000000Y-112000000D03*
D11*
X108850000Y-91800000D03*
X108850000Y-91000000D03*
X108850000Y-90200000D03*
X108850000Y-89400000D03*
X108850000Y-88600000D03*
D12*
X108750000Y-94650000D03*
X108750000Y-85750000D03*
X103250000Y-85750000D03*
X103250000Y-94650000D03*
D13*
X131580000Y-106740000D03*
X131600000Y-104200000D03*
D14*
X124510000Y-99770000D03*
X124510000Y-86630000D03*
D15*
X121800000Y-96700000D03*
D16*
X121800000Y-94200000D03*
X121800000Y-92200000D03*
D15*
X121800000Y-89700000D03*
D17*
X113000000Y-95400000D03*
X115000000Y-91000000D03*
X113500000Y-95400000D03*
X114000000Y-95400000D03*
X114500000Y-95400000D03*
X115000000Y-95400000D03*
X114500000Y-91000000D03*
X114000000Y-91000000D03*
X113500000Y-91000000D03*
X113000000Y-91000000D03*
D18*
X127650000Y-111600000D03*
X118750000Y-111600000D03*
X118750000Y-106100000D03*
X127650000Y-106100000D03*
D19*
X121600000Y-106000000D03*
X122400000Y-106000000D03*
X123200000Y-106000000D03*
X124000000Y-106000000D03*
X124800000Y-106000000D03*
D20*
X108600000Y-107400000D03*
D15*
X111100000Y-107400000D03*
X113600000Y-107400000D03*
D21*
G36*
X121267642Y-102301174D02*
G01*
X121291303Y-102304684D01*
X121314507Y-102310496D01*
X121337029Y-102318554D01*
X121358653Y-102328782D01*
X121379170Y-102341079D01*
X121398383Y-102355329D01*
X121416107Y-102371393D01*
X121432171Y-102389117D01*
X121446421Y-102408330D01*
X121458718Y-102428847D01*
X121468946Y-102450471D01*
X121477004Y-102472993D01*
X121482816Y-102496197D01*
X121486326Y-102519858D01*
X121487500Y-102543750D01*
X121487500Y-103456250D01*
X121486326Y-103480142D01*
X121482816Y-103503803D01*
X121477004Y-103527007D01*
X121468946Y-103549529D01*
X121458718Y-103571153D01*
X121446421Y-103591670D01*
X121432171Y-103610883D01*
X121416107Y-103628607D01*
X121398383Y-103644671D01*
X121379170Y-103658921D01*
X121358653Y-103671218D01*
X121337029Y-103681446D01*
X121314507Y-103689504D01*
X121291303Y-103695316D01*
X121267642Y-103698826D01*
X121243750Y-103700000D01*
X120756250Y-103700000D01*
X120732358Y-103698826D01*
X120708697Y-103695316D01*
X120685493Y-103689504D01*
X120662971Y-103681446D01*
X120641347Y-103671218D01*
X120620830Y-103658921D01*
X120601617Y-103644671D01*
X120583893Y-103628607D01*
X120567829Y-103610883D01*
X120553579Y-103591670D01*
X120541282Y-103571153D01*
X120531054Y-103549529D01*
X120522996Y-103527007D01*
X120517184Y-103503803D01*
X120513674Y-103480142D01*
X120512500Y-103456250D01*
X120512500Y-102543750D01*
X120513674Y-102519858D01*
X120517184Y-102496197D01*
X120522996Y-102472993D01*
X120531054Y-102450471D01*
X120541282Y-102428847D01*
X120553579Y-102408330D01*
X120567829Y-102389117D01*
X120583893Y-102371393D01*
X120601617Y-102355329D01*
X120620830Y-102341079D01*
X120641347Y-102328782D01*
X120662971Y-102318554D01*
X120685493Y-102310496D01*
X120708697Y-102304684D01*
X120732358Y-102301174D01*
X120756250Y-102300000D01*
X121243750Y-102300000D01*
X121267642Y-102301174D01*
X121267642Y-102301174D01*
G37*
D22*
X121000000Y-103000000D03*
D21*
G36*
X119392642Y-102301174D02*
G01*
X119416303Y-102304684D01*
X119439507Y-102310496D01*
X119462029Y-102318554D01*
X119483653Y-102328782D01*
X119504170Y-102341079D01*
X119523383Y-102355329D01*
X119541107Y-102371393D01*
X119557171Y-102389117D01*
X119571421Y-102408330D01*
X119583718Y-102428847D01*
X119593946Y-102450471D01*
X119602004Y-102472993D01*
X119607816Y-102496197D01*
X119611326Y-102519858D01*
X119612500Y-102543750D01*
X119612500Y-103456250D01*
X119611326Y-103480142D01*
X119607816Y-103503803D01*
X119602004Y-103527007D01*
X119593946Y-103549529D01*
X119583718Y-103571153D01*
X119571421Y-103591670D01*
X119557171Y-103610883D01*
X119541107Y-103628607D01*
X119523383Y-103644671D01*
X119504170Y-103658921D01*
X119483653Y-103671218D01*
X119462029Y-103681446D01*
X119439507Y-103689504D01*
X119416303Y-103695316D01*
X119392642Y-103698826D01*
X119368750Y-103700000D01*
X118881250Y-103700000D01*
X118857358Y-103698826D01*
X118833697Y-103695316D01*
X118810493Y-103689504D01*
X118787971Y-103681446D01*
X118766347Y-103671218D01*
X118745830Y-103658921D01*
X118726617Y-103644671D01*
X118708893Y-103628607D01*
X118692829Y-103610883D01*
X118678579Y-103591670D01*
X118666282Y-103571153D01*
X118656054Y-103549529D01*
X118647996Y-103527007D01*
X118642184Y-103503803D01*
X118638674Y-103480142D01*
X118637500Y-103456250D01*
X118637500Y-102543750D01*
X118638674Y-102519858D01*
X118642184Y-102496197D01*
X118647996Y-102472993D01*
X118656054Y-102450471D01*
X118666282Y-102428847D01*
X118678579Y-102408330D01*
X118692829Y-102389117D01*
X118708893Y-102371393D01*
X118726617Y-102355329D01*
X118745830Y-102341079D01*
X118766347Y-102328782D01*
X118787971Y-102318554D01*
X118810493Y-102310496D01*
X118833697Y-102304684D01*
X118857358Y-102301174D01*
X118881250Y-102300000D01*
X119368750Y-102300000D01*
X119392642Y-102301174D01*
X119392642Y-102301174D01*
G37*
D22*
X119125000Y-103000000D03*
D21*
G36*
X115267642Y-80701174D02*
G01*
X115291303Y-80704684D01*
X115314507Y-80710496D01*
X115337029Y-80718554D01*
X115358653Y-80728782D01*
X115379170Y-80741079D01*
X115398383Y-80755329D01*
X115416107Y-80771393D01*
X115432171Y-80789117D01*
X115446421Y-80808330D01*
X115458718Y-80828847D01*
X115468946Y-80850471D01*
X115477004Y-80872993D01*
X115482816Y-80896197D01*
X115486326Y-80919858D01*
X115487500Y-80943750D01*
X115487500Y-81856250D01*
X115486326Y-81880142D01*
X115482816Y-81903803D01*
X115477004Y-81927007D01*
X115468946Y-81949529D01*
X115458718Y-81971153D01*
X115446421Y-81991670D01*
X115432171Y-82010883D01*
X115416107Y-82028607D01*
X115398383Y-82044671D01*
X115379170Y-82058921D01*
X115358653Y-82071218D01*
X115337029Y-82081446D01*
X115314507Y-82089504D01*
X115291303Y-82095316D01*
X115267642Y-82098826D01*
X115243750Y-82100000D01*
X114756250Y-82100000D01*
X114732358Y-82098826D01*
X114708697Y-82095316D01*
X114685493Y-82089504D01*
X114662971Y-82081446D01*
X114641347Y-82071218D01*
X114620830Y-82058921D01*
X114601617Y-82044671D01*
X114583893Y-82028607D01*
X114567829Y-82010883D01*
X114553579Y-81991670D01*
X114541282Y-81971153D01*
X114531054Y-81949529D01*
X114522996Y-81927007D01*
X114517184Y-81903803D01*
X114513674Y-81880142D01*
X114512500Y-81856250D01*
X114512500Y-80943750D01*
X114513674Y-80919858D01*
X114517184Y-80896197D01*
X114522996Y-80872993D01*
X114531054Y-80850471D01*
X114541282Y-80828847D01*
X114553579Y-80808330D01*
X114567829Y-80789117D01*
X114583893Y-80771393D01*
X114601617Y-80755329D01*
X114620830Y-80741079D01*
X114641347Y-80728782D01*
X114662971Y-80718554D01*
X114685493Y-80710496D01*
X114708697Y-80704684D01*
X114732358Y-80701174D01*
X114756250Y-80700000D01*
X115243750Y-80700000D01*
X115267642Y-80701174D01*
X115267642Y-80701174D01*
G37*
D22*
X115000000Y-81400000D03*
D21*
G36*
X113392642Y-80701174D02*
G01*
X113416303Y-80704684D01*
X113439507Y-80710496D01*
X113462029Y-80718554D01*
X113483653Y-80728782D01*
X113504170Y-80741079D01*
X113523383Y-80755329D01*
X113541107Y-80771393D01*
X113557171Y-80789117D01*
X113571421Y-80808330D01*
X113583718Y-80828847D01*
X113593946Y-80850471D01*
X113602004Y-80872993D01*
X113607816Y-80896197D01*
X113611326Y-80919858D01*
X113612500Y-80943750D01*
X113612500Y-81856250D01*
X113611326Y-81880142D01*
X113607816Y-81903803D01*
X113602004Y-81927007D01*
X113593946Y-81949529D01*
X113583718Y-81971153D01*
X113571421Y-81991670D01*
X113557171Y-82010883D01*
X113541107Y-82028607D01*
X113523383Y-82044671D01*
X113504170Y-82058921D01*
X113483653Y-82071218D01*
X113462029Y-82081446D01*
X113439507Y-82089504D01*
X113416303Y-82095316D01*
X113392642Y-82098826D01*
X113368750Y-82100000D01*
X112881250Y-82100000D01*
X112857358Y-82098826D01*
X112833697Y-82095316D01*
X112810493Y-82089504D01*
X112787971Y-82081446D01*
X112766347Y-82071218D01*
X112745830Y-82058921D01*
X112726617Y-82044671D01*
X112708893Y-82028607D01*
X112692829Y-82010883D01*
X112678579Y-81991670D01*
X112666282Y-81971153D01*
X112656054Y-81949529D01*
X112647996Y-81927007D01*
X112642184Y-81903803D01*
X112638674Y-81880142D01*
X112637500Y-81856250D01*
X112637500Y-80943750D01*
X112638674Y-80919858D01*
X112642184Y-80896197D01*
X112647996Y-80872993D01*
X112656054Y-80850471D01*
X112666282Y-80828847D01*
X112678579Y-80808330D01*
X112692829Y-80789117D01*
X112708893Y-80771393D01*
X112726617Y-80755329D01*
X112745830Y-80741079D01*
X112766347Y-80728782D01*
X112787971Y-80718554D01*
X112810493Y-80710496D01*
X112833697Y-80704684D01*
X112857358Y-80701174D01*
X112881250Y-80700000D01*
X113368750Y-80700000D01*
X113392642Y-80701174D01*
X113392642Y-80701174D01*
G37*
D22*
X113125000Y-81400000D03*
D21*
G36*
X111630142Y-101263674D02*
G01*
X111653803Y-101267184D01*
X111677007Y-101272996D01*
X111699529Y-101281054D01*
X111721153Y-101291282D01*
X111741670Y-101303579D01*
X111760883Y-101317829D01*
X111778607Y-101333893D01*
X111794671Y-101351617D01*
X111808921Y-101370830D01*
X111821218Y-101391347D01*
X111831446Y-101412971D01*
X111839504Y-101435493D01*
X111845316Y-101458697D01*
X111848826Y-101482358D01*
X111850000Y-101506250D01*
X111850000Y-101993750D01*
X111848826Y-102017642D01*
X111845316Y-102041303D01*
X111839504Y-102064507D01*
X111831446Y-102087029D01*
X111821218Y-102108653D01*
X111808921Y-102129170D01*
X111794671Y-102148383D01*
X111778607Y-102166107D01*
X111760883Y-102182171D01*
X111741670Y-102196421D01*
X111721153Y-102208718D01*
X111699529Y-102218946D01*
X111677007Y-102227004D01*
X111653803Y-102232816D01*
X111630142Y-102236326D01*
X111606250Y-102237500D01*
X110693750Y-102237500D01*
X110669858Y-102236326D01*
X110646197Y-102232816D01*
X110622993Y-102227004D01*
X110600471Y-102218946D01*
X110578847Y-102208718D01*
X110558330Y-102196421D01*
X110539117Y-102182171D01*
X110521393Y-102166107D01*
X110505329Y-102148383D01*
X110491079Y-102129170D01*
X110478782Y-102108653D01*
X110468554Y-102087029D01*
X110460496Y-102064507D01*
X110454684Y-102041303D01*
X110451174Y-102017642D01*
X110450000Y-101993750D01*
X110450000Y-101506250D01*
X110451174Y-101482358D01*
X110454684Y-101458697D01*
X110460496Y-101435493D01*
X110468554Y-101412971D01*
X110478782Y-101391347D01*
X110491079Y-101370830D01*
X110505329Y-101351617D01*
X110521393Y-101333893D01*
X110539117Y-101317829D01*
X110558330Y-101303579D01*
X110578847Y-101291282D01*
X110600471Y-101281054D01*
X110622993Y-101272996D01*
X110646197Y-101267184D01*
X110669858Y-101263674D01*
X110693750Y-101262500D01*
X111606250Y-101262500D01*
X111630142Y-101263674D01*
X111630142Y-101263674D01*
G37*
D22*
X111150000Y-101750000D03*
D21*
G36*
X111630142Y-103138674D02*
G01*
X111653803Y-103142184D01*
X111677007Y-103147996D01*
X111699529Y-103156054D01*
X111721153Y-103166282D01*
X111741670Y-103178579D01*
X111760883Y-103192829D01*
X111778607Y-103208893D01*
X111794671Y-103226617D01*
X111808921Y-103245830D01*
X111821218Y-103266347D01*
X111831446Y-103287971D01*
X111839504Y-103310493D01*
X111845316Y-103333697D01*
X111848826Y-103357358D01*
X111850000Y-103381250D01*
X111850000Y-103868750D01*
X111848826Y-103892642D01*
X111845316Y-103916303D01*
X111839504Y-103939507D01*
X111831446Y-103962029D01*
X111821218Y-103983653D01*
X111808921Y-104004170D01*
X111794671Y-104023383D01*
X111778607Y-104041107D01*
X111760883Y-104057171D01*
X111741670Y-104071421D01*
X111721153Y-104083718D01*
X111699529Y-104093946D01*
X111677007Y-104102004D01*
X111653803Y-104107816D01*
X111630142Y-104111326D01*
X111606250Y-104112500D01*
X110693750Y-104112500D01*
X110669858Y-104111326D01*
X110646197Y-104107816D01*
X110622993Y-104102004D01*
X110600471Y-104093946D01*
X110578847Y-104083718D01*
X110558330Y-104071421D01*
X110539117Y-104057171D01*
X110521393Y-104041107D01*
X110505329Y-104023383D01*
X110491079Y-104004170D01*
X110478782Y-103983653D01*
X110468554Y-103962029D01*
X110460496Y-103939507D01*
X110454684Y-103916303D01*
X110451174Y-103892642D01*
X110450000Y-103868750D01*
X110450000Y-103381250D01*
X110451174Y-103357358D01*
X110454684Y-103333697D01*
X110460496Y-103310493D01*
X110468554Y-103287971D01*
X110478782Y-103266347D01*
X110491079Y-103245830D01*
X110505329Y-103226617D01*
X110521393Y-103208893D01*
X110539117Y-103192829D01*
X110558330Y-103178579D01*
X110578847Y-103166282D01*
X110600471Y-103156054D01*
X110622993Y-103147996D01*
X110646197Y-103142184D01*
X110669858Y-103138674D01*
X110693750Y-103137500D01*
X111606250Y-103137500D01*
X111630142Y-103138674D01*
X111630142Y-103138674D01*
G37*
D22*
X111150000Y-103625000D03*
D21*
G36*
X117267642Y-80701174D02*
G01*
X117291303Y-80704684D01*
X117314507Y-80710496D01*
X117337029Y-80718554D01*
X117358653Y-80728782D01*
X117379170Y-80741079D01*
X117398383Y-80755329D01*
X117416107Y-80771393D01*
X117432171Y-80789117D01*
X117446421Y-80808330D01*
X117458718Y-80828847D01*
X117468946Y-80850471D01*
X117477004Y-80872993D01*
X117482816Y-80896197D01*
X117486326Y-80919858D01*
X117487500Y-80943750D01*
X117487500Y-81856250D01*
X117486326Y-81880142D01*
X117482816Y-81903803D01*
X117477004Y-81927007D01*
X117468946Y-81949529D01*
X117458718Y-81971153D01*
X117446421Y-81991670D01*
X117432171Y-82010883D01*
X117416107Y-82028607D01*
X117398383Y-82044671D01*
X117379170Y-82058921D01*
X117358653Y-82071218D01*
X117337029Y-82081446D01*
X117314507Y-82089504D01*
X117291303Y-82095316D01*
X117267642Y-82098826D01*
X117243750Y-82100000D01*
X116756250Y-82100000D01*
X116732358Y-82098826D01*
X116708697Y-82095316D01*
X116685493Y-82089504D01*
X116662971Y-82081446D01*
X116641347Y-82071218D01*
X116620830Y-82058921D01*
X116601617Y-82044671D01*
X116583893Y-82028607D01*
X116567829Y-82010883D01*
X116553579Y-81991670D01*
X116541282Y-81971153D01*
X116531054Y-81949529D01*
X116522996Y-81927007D01*
X116517184Y-81903803D01*
X116513674Y-81880142D01*
X116512500Y-81856250D01*
X116512500Y-80943750D01*
X116513674Y-80919858D01*
X116517184Y-80896197D01*
X116522996Y-80872993D01*
X116531054Y-80850471D01*
X116541282Y-80828847D01*
X116553579Y-80808330D01*
X116567829Y-80789117D01*
X116583893Y-80771393D01*
X116601617Y-80755329D01*
X116620830Y-80741079D01*
X116641347Y-80728782D01*
X116662971Y-80718554D01*
X116685493Y-80710496D01*
X116708697Y-80704684D01*
X116732358Y-80701174D01*
X116756250Y-80700000D01*
X117243750Y-80700000D01*
X117267642Y-80701174D01*
X117267642Y-80701174D01*
G37*
D22*
X117000000Y-81400000D03*
D21*
G36*
X119142642Y-80701174D02*
G01*
X119166303Y-80704684D01*
X119189507Y-80710496D01*
X119212029Y-80718554D01*
X119233653Y-80728782D01*
X119254170Y-80741079D01*
X119273383Y-80755329D01*
X119291107Y-80771393D01*
X119307171Y-80789117D01*
X119321421Y-80808330D01*
X119333718Y-80828847D01*
X119343946Y-80850471D01*
X119352004Y-80872993D01*
X119357816Y-80896197D01*
X119361326Y-80919858D01*
X119362500Y-80943750D01*
X119362500Y-81856250D01*
X119361326Y-81880142D01*
X119357816Y-81903803D01*
X119352004Y-81927007D01*
X119343946Y-81949529D01*
X119333718Y-81971153D01*
X119321421Y-81991670D01*
X119307171Y-82010883D01*
X119291107Y-82028607D01*
X119273383Y-82044671D01*
X119254170Y-82058921D01*
X119233653Y-82071218D01*
X119212029Y-82081446D01*
X119189507Y-82089504D01*
X119166303Y-82095316D01*
X119142642Y-82098826D01*
X119118750Y-82100000D01*
X118631250Y-82100000D01*
X118607358Y-82098826D01*
X118583697Y-82095316D01*
X118560493Y-82089504D01*
X118537971Y-82081446D01*
X118516347Y-82071218D01*
X118495830Y-82058921D01*
X118476617Y-82044671D01*
X118458893Y-82028607D01*
X118442829Y-82010883D01*
X118428579Y-81991670D01*
X118416282Y-81971153D01*
X118406054Y-81949529D01*
X118397996Y-81927007D01*
X118392184Y-81903803D01*
X118388674Y-81880142D01*
X118387500Y-81856250D01*
X118387500Y-80943750D01*
X118388674Y-80919858D01*
X118392184Y-80896197D01*
X118397996Y-80872993D01*
X118406054Y-80850471D01*
X118416282Y-80828847D01*
X118428579Y-80808330D01*
X118442829Y-80789117D01*
X118458893Y-80771393D01*
X118476617Y-80755329D01*
X118495830Y-80741079D01*
X118516347Y-80728782D01*
X118537971Y-80718554D01*
X118560493Y-80710496D01*
X118583697Y-80704684D01*
X118607358Y-80701174D01*
X118631250Y-80700000D01*
X119118750Y-80700000D01*
X119142642Y-80701174D01*
X119142642Y-80701174D01*
G37*
D22*
X118875000Y-81400000D03*
D23*
X115800000Y-83700000D03*
X115800000Y-85600000D03*
X113600000Y-85600000D03*
X113600000Y-84650000D03*
X113600000Y-83700000D03*
X114600000Y-101100000D03*
X114600000Y-102050000D03*
X114600000Y-103000000D03*
X116800000Y-103000000D03*
X116800000Y-101100000D03*
D24*
X113400000Y-92400000D03*
X116000000Y-95400000D03*
X108800000Y-92800000D03*
X112400000Y-84600000D03*
X108750000Y-103600000D03*
X113050000Y-102500000D03*
X127650000Y-106100000D03*
X118750000Y-106100000D03*
X118750000Y-111600000D03*
X127650000Y-111600000D03*
X103250000Y-103600000D03*
X103250000Y-94700000D03*
X108750000Y-94700000D03*
X108750000Y-85750000D03*
X103250000Y-85750000D03*
X121850000Y-79050000D03*
X115850000Y-82550000D03*
X110850000Y-97500000D03*
X129150000Y-100450000D03*
X127400000Y-96800000D03*
X102200000Y-89130000D03*
X132050000Y-90600000D03*
X121750000Y-100550000D03*
X120100000Y-101050000D03*
X119550000Y-97450000D03*
X119250000Y-95600000D03*
X115500000Y-99350000D03*
X112600000Y-104050000D03*
X117050000Y-104850000D03*
X122900000Y-103650000D03*
X129300000Y-105050000D03*
X110000000Y-111100000D03*
X111870000Y-112870000D03*
X120920000Y-112970000D03*
X124850000Y-112890000D03*
X103850000Y-100350000D03*
X105050000Y-98800000D03*
X102720000Y-96750000D03*
X105850000Y-105600000D03*
X111300000Y-94300000D03*
X107450000Y-87050000D03*
X113150000Y-87700000D03*
X116700000Y-87950000D03*
X117850000Y-90850000D03*
X119450000Y-90050000D03*
X118200000Y-85700000D03*
X121650000Y-87000000D03*
X121600000Y-84650000D03*
X122950000Y-83900000D03*
X106450000Y-79500000D03*
X110650000Y-79450000D03*
X102000000Y-85100000D03*
X109650000Y-83700000D03*
X124000000Y-82000000D03*
X126100000Y-80300000D03*
X126600000Y-83200000D03*
X128650000Y-84400000D03*
X127700000Y-87150000D03*
X133500000Y-96400000D03*
X133700000Y-93050000D03*
X126700000Y-104550000D03*
X123050000Y-108700000D03*
X119650000Y-107600000D03*
X106550000Y-110150000D03*
X106640000Y-112960000D03*
X111990000Y-111130000D03*
X110000000Y-112600000D03*
X122750000Y-112550000D03*
X126500000Y-112950000D03*
X118350000Y-112950000D03*
X117550000Y-97350000D03*
X112000000Y-97500000D03*
X110900000Y-93000000D03*
X116150000Y-89750000D03*
X114550000Y-88550000D03*
X104290000Y-105600000D03*
X105850000Y-103400000D03*
X132050000Y-88138000D03*
X132050000Y-85852000D03*
X133604000Y-85852000D03*
X133604000Y-88138000D03*
X125476000Y-95758000D03*
X125476000Y-97282000D03*
X112900000Y-101100000D03*
X114600000Y-93000000D03*
X114000000Y-97400000D03*
X120650000Y-80200000D03*
X124250000Y-94150000D03*
X112200000Y-90600000D03*
X101550000Y-105700000D03*
X105450000Y-94650012D03*
X128200000Y-103100000D03*
D25*
X113475001Y-91724999D02*
X113475001Y-92324999D01*
X113500000Y-91000000D02*
X113500000Y-91700000D01*
X113500000Y-91700000D02*
X113475001Y-91724999D01*
X113475001Y-92324999D02*
X113400000Y-92400000D01*
X115000000Y-95400000D02*
X116000000Y-95400000D01*
D26*
X108850000Y-91800000D02*
X108850000Y-92750000D01*
X108850000Y-92750000D02*
X108800000Y-92800000D01*
X113600000Y-84650000D02*
X112450000Y-84650000D01*
X112450000Y-84650000D02*
X112400000Y-84600000D01*
X115000000Y-81400000D02*
X117000000Y-81400000D01*
X111150000Y-103625000D02*
X108775000Y-103625000D01*
X108775000Y-103625000D02*
X108750000Y-103600000D01*
X114600000Y-102050000D02*
X113500000Y-102050000D01*
X113500000Y-102050000D02*
X113050000Y-102500000D01*
X118750000Y-103375000D02*
X119125000Y-103000000D01*
X118750000Y-106100000D02*
X118750000Y-103375000D01*
X127550000Y-106000000D02*
X127650000Y-106100000D01*
X124800000Y-106000000D02*
X127550000Y-106000000D01*
X115000000Y-81400000D02*
X115000000Y-82750000D01*
X117000000Y-81400000D02*
X117000000Y-82650000D01*
X108850000Y-94600000D02*
X108750000Y-94700000D01*
X108850000Y-91800000D02*
X108850000Y-94600000D01*
D25*
X113500000Y-93900000D02*
X113500000Y-95400000D01*
X113200000Y-93600000D02*
X113500000Y-93900000D01*
D27*
X111600000Y-92000000D02*
X113200000Y-93600000D01*
X111600000Y-91200000D02*
X111600000Y-92000000D01*
X108850000Y-90200000D02*
X110600000Y-90200000D01*
X110600000Y-90200000D02*
X111600000Y-91200000D01*
D25*
X114000000Y-89800000D02*
X113800000Y-89600000D01*
X114000000Y-91000000D02*
X114000000Y-89800000D01*
D27*
X113600000Y-89400000D02*
X113800000Y-89600000D01*
X108850000Y-89400000D02*
X113600000Y-89400000D01*
D26*
X113125000Y-82400000D02*
X113125000Y-81400000D01*
X113600000Y-83700000D02*
X113600000Y-82875000D01*
X113600000Y-82875000D02*
X113125000Y-82400000D01*
X111550000Y-83700000D02*
X113600000Y-83700000D01*
X110950000Y-88150000D02*
X110950000Y-85700000D01*
X108850000Y-88600000D02*
X110500000Y-88600000D01*
X110500000Y-88600000D02*
X110950000Y-88150000D01*
X110950000Y-84300000D02*
X111550000Y-83700000D01*
X110950000Y-85700000D02*
X110950000Y-84300000D01*
X113500000Y-85700000D02*
X110950000Y-85700000D01*
X113600000Y-85600000D02*
X113500000Y-85700000D01*
X112900000Y-101100000D02*
X112400000Y-101600000D01*
X114600000Y-101100000D02*
X112900000Y-101100000D01*
X112250000Y-101750000D02*
X112400000Y-101600000D01*
X111150000Y-101750000D02*
X112250000Y-101750000D01*
X115630000Y-101100000D02*
X115700000Y-101170000D01*
X114600000Y-101100000D02*
X115630000Y-101100000D01*
X115630000Y-103000000D02*
X114600000Y-103000000D01*
X115700000Y-102930000D02*
X115630000Y-103000000D01*
X115700000Y-101170000D02*
X115700000Y-102930000D01*
D25*
X114500000Y-92900000D02*
X114500000Y-91000000D01*
X114600000Y-93000000D02*
X114500000Y-92900000D01*
X114000000Y-97400000D02*
X114000000Y-95400000D01*
X114524999Y-94675001D02*
X114524999Y-94275001D01*
X114500000Y-95400000D02*
X114500000Y-94700000D01*
X114500000Y-94700000D02*
X114524999Y-94675001D01*
X114524999Y-94275001D02*
X114800000Y-94000000D01*
D27*
X121400000Y-93800000D02*
X121800000Y-94200000D01*
X114800000Y-94000000D02*
X115000000Y-93800000D01*
X115000000Y-93800000D02*
X121400000Y-93800000D01*
D25*
X115000000Y-91000000D02*
X115000000Y-91975000D01*
D27*
X115212500Y-92187500D02*
X116225000Y-93200000D01*
X120160000Y-93200000D02*
X121800000Y-92200000D01*
X116225000Y-93200000D02*
X120160000Y-93200000D01*
D25*
X115000000Y-91975000D02*
X115212500Y-92187500D01*
D26*
X118875000Y-81400000D02*
X120050000Y-81400000D01*
X118600000Y-81675000D02*
X118875000Y-81400000D01*
X118600000Y-83450000D02*
X118600000Y-81675000D01*
X115800000Y-83700000D02*
X118350000Y-83700000D01*
X118350000Y-83700000D02*
X118600000Y-83450000D01*
X117830000Y-101100000D02*
X120080000Y-98850000D01*
X116800000Y-101100000D02*
X117830000Y-101100000D01*
X120080000Y-98850000D02*
X122000000Y-98850000D01*
X122000000Y-98850000D02*
X124250000Y-96600000D01*
X124250000Y-96600000D02*
X124250000Y-94100000D01*
X120250000Y-88150000D02*
X121800000Y-89700000D01*
X120250000Y-84200000D02*
X120250000Y-88150000D01*
X120850000Y-83600000D02*
X120250000Y-84200000D01*
X120050000Y-81400000D02*
X120850000Y-82200000D01*
X120850000Y-82200000D02*
X120850000Y-83600000D01*
X120050000Y-80800000D02*
X120050000Y-81400000D01*
X120650000Y-80200000D02*
X120050000Y-80800000D01*
D25*
X107050000Y-103350000D02*
X111100000Y-107400000D01*
X107050000Y-98450000D02*
X107050000Y-103350000D01*
X109100000Y-96400000D02*
X107050000Y-98450000D01*
X112575000Y-96400000D02*
X109100000Y-96400000D01*
X113000000Y-95400000D02*
X113000000Y-95975000D01*
X113000000Y-95975000D02*
X112575000Y-96400000D01*
X113000000Y-91000000D02*
X112600000Y-91000000D01*
X112600000Y-91000000D02*
X112200000Y-90600000D01*
D26*
X105450000Y-95650000D02*
X105450000Y-94650012D01*
X102150000Y-98950000D02*
X105450000Y-95650000D01*
X102150000Y-104534315D02*
X102150000Y-98950000D01*
X101550000Y-105700000D02*
X101550000Y-105134315D01*
X101550000Y-105134315D02*
X102150000Y-104534315D01*
X124600000Y-103100000D02*
X128200000Y-103100000D01*
X123750000Y-102250000D02*
X124600000Y-103100000D01*
X121000000Y-103000000D02*
X121750000Y-102250000D01*
X121750000Y-102250000D02*
X123750000Y-102250000D01*
X121250000Y-103250000D02*
X121000000Y-103000000D01*
X121250000Y-104000000D02*
X121250000Y-103250000D01*
X121600000Y-106000000D02*
X121600000Y-104350000D01*
X121600000Y-104350000D02*
X121250000Y-104000000D01*
D28*
G36*
X130471442Y-78540270D02*
G01*
X129942907Y-78893425D01*
X129493425Y-79342907D01*
X129140270Y-79871442D01*
X128897012Y-80458719D01*
X128773000Y-81082168D01*
X128773000Y-81717832D01*
X128897012Y-82341281D01*
X129140270Y-82928558D01*
X129493425Y-83457093D01*
X129942907Y-83906575D01*
X130471442Y-84259730D01*
X131058719Y-84502988D01*
X131682168Y-84627000D01*
X132317832Y-84627000D01*
X132941281Y-84502988D01*
X133528558Y-84259730D01*
X134057093Y-83906575D01*
X134322001Y-83641667D01*
X134322000Y-109758332D01*
X134057093Y-109493425D01*
X133528558Y-109140270D01*
X132941281Y-108897012D01*
X132317832Y-108773000D01*
X131682168Y-108773000D01*
X131058719Y-108897012D01*
X130471442Y-109140270D01*
X129942907Y-109493425D01*
X129493425Y-109942907D01*
X129140270Y-110471442D01*
X128897012Y-111058719D01*
X128773000Y-111682168D01*
X128773000Y-112317832D01*
X128897012Y-112941281D01*
X129140270Y-113528558D01*
X129286896Y-113748000D01*
X105713104Y-113748000D01*
X105859730Y-113528558D01*
X106102988Y-112941281D01*
X106227000Y-112317832D01*
X106227000Y-111682168D01*
X106102988Y-111058719D01*
X105859730Y-110471442D01*
X105506575Y-109942907D01*
X105057093Y-109493425D01*
X104528558Y-109140270D01*
X103941281Y-108897012D01*
X103317832Y-108773000D01*
X102682168Y-108773000D01*
X102058719Y-108897012D01*
X101471442Y-109140270D01*
X101136000Y-109364405D01*
X101136000Y-106531892D01*
X101279604Y-106591376D01*
X101458699Y-106627000D01*
X101641301Y-106627000D01*
X101820396Y-106591376D01*
X101989099Y-106521496D01*
X102140928Y-106420048D01*
X102270048Y-106290928D01*
X102371496Y-106139099D01*
X102441376Y-105970396D01*
X102477000Y-105791301D01*
X102477000Y-105608699D01*
X102441376Y-105429604D01*
X102415653Y-105367505D01*
X102672437Y-105110722D01*
X102702080Y-105086395D01*
X102755182Y-105021690D01*
X102799177Y-104968082D01*
X102871327Y-104833099D01*
X102889558Y-104773000D01*
X102915757Y-104686634D01*
X102927000Y-104572481D01*
X102927000Y-104572472D01*
X102930758Y-104534316D01*
X102927000Y-104496160D01*
X102927000Y-101253774D01*
X105023000Y-101253774D01*
X105023000Y-101446226D01*
X105060546Y-101634980D01*
X105134194Y-101812783D01*
X105241115Y-101972801D01*
X105377199Y-102108885D01*
X105537217Y-102215806D01*
X105715020Y-102289454D01*
X105903774Y-102327000D01*
X106096226Y-102327000D01*
X106284980Y-102289454D01*
X106398001Y-102242640D01*
X106398001Y-103317968D01*
X106394846Y-103350000D01*
X106407435Y-103477814D01*
X106444717Y-103600716D01*
X106470620Y-103649177D01*
X106505260Y-103713984D01*
X106586737Y-103813264D01*
X106611614Y-103833680D01*
X108698384Y-105920451D01*
X107650000Y-105920451D01*
X107546690Y-105930626D01*
X107447350Y-105960761D01*
X107355798Y-106009696D01*
X107275552Y-106075552D01*
X107209696Y-106155798D01*
X107160761Y-106247350D01*
X107130626Y-106346690D01*
X107120451Y-106450000D01*
X107120451Y-108350000D01*
X107130626Y-108453310D01*
X107160761Y-108552650D01*
X107209696Y-108644202D01*
X107275552Y-108724448D01*
X107355798Y-108790304D01*
X107447350Y-108839239D01*
X107546690Y-108869374D01*
X107650000Y-108879549D01*
X109550000Y-108879549D01*
X109653310Y-108869374D01*
X109752650Y-108839239D01*
X109844202Y-108790304D01*
X109924448Y-108724448D01*
X109990304Y-108644202D01*
X110039239Y-108552650D01*
X110068243Y-108457037D01*
X110158467Y-108547261D01*
X110400378Y-108708901D01*
X110669175Y-108820240D01*
X110954528Y-108877000D01*
X111245472Y-108877000D01*
X111530825Y-108820240D01*
X111799622Y-108708901D01*
X112041533Y-108547261D01*
X112247261Y-108341533D01*
X112350000Y-108187773D01*
X112452739Y-108341533D01*
X112658467Y-108547261D01*
X112900378Y-108708901D01*
X113169175Y-108820240D01*
X113454528Y-108877000D01*
X113745472Y-108877000D01*
X114030825Y-108820240D01*
X114191288Y-108753774D01*
X120023000Y-108753774D01*
X120023000Y-108946226D01*
X120060546Y-109134980D01*
X120134194Y-109312783D01*
X120241115Y-109472801D01*
X120377199Y-109608885D01*
X120537217Y-109715806D01*
X120715020Y-109789454D01*
X120903774Y-109827000D01*
X121096226Y-109827000D01*
X121284980Y-109789454D01*
X121462783Y-109715806D01*
X121622801Y-109608885D01*
X121758885Y-109472801D01*
X121865806Y-109312783D01*
X121939454Y-109134980D01*
X121977000Y-108946226D01*
X121977000Y-108753774D01*
X124423000Y-108753774D01*
X124423000Y-108946226D01*
X124460546Y-109134980D01*
X124534194Y-109312783D01*
X124641115Y-109472801D01*
X124777199Y-109608885D01*
X124937217Y-109715806D01*
X125115020Y-109789454D01*
X125303774Y-109827000D01*
X125496226Y-109827000D01*
X125684980Y-109789454D01*
X125862783Y-109715806D01*
X126022801Y-109608885D01*
X126158885Y-109472801D01*
X126265806Y-109312783D01*
X126339454Y-109134980D01*
X126377000Y-108946226D01*
X126377000Y-108753774D01*
X126339454Y-108565020D01*
X126265806Y-108387217D01*
X126158885Y-108227199D01*
X126022801Y-108091115D01*
X125862783Y-107984194D01*
X125684980Y-107910546D01*
X125496226Y-107873000D01*
X125303774Y-107873000D01*
X125115020Y-107910546D01*
X124937217Y-107984194D01*
X124777199Y-108091115D01*
X124641115Y-108227199D01*
X124534194Y-108387217D01*
X124460546Y-108565020D01*
X124423000Y-108753774D01*
X121977000Y-108753774D01*
X121939454Y-108565020D01*
X121865806Y-108387217D01*
X121758885Y-108227199D01*
X121622801Y-108091115D01*
X121462783Y-107984194D01*
X121284980Y-107910546D01*
X121096226Y-107873000D01*
X120903774Y-107873000D01*
X120715020Y-107910546D01*
X120537217Y-107984194D01*
X120377199Y-108091115D01*
X120241115Y-108227199D01*
X120134194Y-108387217D01*
X120060546Y-108565020D01*
X120023000Y-108753774D01*
X114191288Y-108753774D01*
X114299622Y-108708901D01*
X114541533Y-108547261D01*
X114747261Y-108341533D01*
X114908901Y-108099622D01*
X115020240Y-107830825D01*
X115077000Y-107545472D01*
X115077000Y-107254528D01*
X115020240Y-106969175D01*
X114908901Y-106700378D01*
X114747261Y-106458467D01*
X114541533Y-106252739D01*
X114299622Y-106091099D01*
X114030825Y-105979760D01*
X113745472Y-105923000D01*
X113454528Y-105923000D01*
X113169175Y-105979760D01*
X112900378Y-106091099D01*
X112658467Y-106252739D01*
X112452739Y-106458467D01*
X112350000Y-106612227D01*
X112247261Y-106458467D01*
X112041533Y-106252739D01*
X111799622Y-106091099D01*
X111530825Y-105979760D01*
X111245472Y-105923000D01*
X110954528Y-105923000D01*
X110669175Y-105979760D01*
X110621553Y-105999486D01*
X107702000Y-103079934D01*
X107702000Y-98720066D01*
X109370067Y-97052000D01*
X112542978Y-97052000D01*
X112575000Y-97055154D01*
X112607022Y-97052000D01*
X112702814Y-97042565D01*
X112825717Y-97005283D01*
X112938984Y-96944741D01*
X113038264Y-96863264D01*
X113058685Y-96838381D01*
X113252154Y-96644912D01*
X113348000Y-96654352D01*
X113348000Y-96741024D01*
X113279952Y-96809072D01*
X113178504Y-96960901D01*
X113108624Y-97129604D01*
X113073000Y-97308699D01*
X113073000Y-97491301D01*
X113108624Y-97670396D01*
X113178504Y-97839099D01*
X113279952Y-97990928D01*
X113409072Y-98120048D01*
X113560901Y-98221496D01*
X113729604Y-98291376D01*
X113908699Y-98327000D01*
X114091301Y-98327000D01*
X114270396Y-98291376D01*
X114439099Y-98221496D01*
X114590928Y-98120048D01*
X114720048Y-97990928D01*
X114821496Y-97839099D01*
X114891376Y-97670396D01*
X114927000Y-97491301D01*
X114927000Y-97308699D01*
X114891376Y-97129604D01*
X114821496Y-96960901D01*
X114720048Y-96809072D01*
X114652000Y-96741024D01*
X114652000Y-96654352D01*
X114753310Y-96644374D01*
X114852650Y-96614239D01*
X114944202Y-96565304D01*
X115024448Y-96499448D01*
X115090304Y-96419202D01*
X115139239Y-96327650D01*
X115169374Y-96228310D01*
X115179549Y-96125000D01*
X115179549Y-94681133D01*
X115180153Y-94675001D01*
X115176999Y-94642979D01*
X115176999Y-94622825D01*
X115205853Y-94607402D01*
X115288817Y-94539315D01*
X115301132Y-94527000D01*
X120260234Y-94527000D01*
X120321663Y-94729505D01*
X120449527Y-94968721D01*
X120621603Y-95178397D01*
X120831279Y-95350473D01*
X121070495Y-95478337D01*
X121330061Y-95557075D01*
X121532360Y-95577000D01*
X122067640Y-95577000D01*
X122269939Y-95557075D01*
X122529505Y-95478337D01*
X122768721Y-95350473D01*
X122978397Y-95178397D01*
X123150473Y-94968721D01*
X123278337Y-94729505D01*
X123357075Y-94469939D01*
X123361315Y-94426892D01*
X123428504Y-94589099D01*
X123473001Y-94655694D01*
X123473000Y-96278156D01*
X121678157Y-98073000D01*
X120118163Y-98073000D01*
X120080000Y-98069241D01*
X120041836Y-98073000D01*
X120041834Y-98073000D01*
X119927681Y-98084243D01*
X119781216Y-98128673D01*
X119734199Y-98153805D01*
X119646234Y-98200822D01*
X119612298Y-98228673D01*
X119527920Y-98297920D01*
X119503592Y-98327564D01*
X117540956Y-100290201D01*
X117532650Y-100285761D01*
X117433310Y-100255626D01*
X117330000Y-100245451D01*
X116270000Y-100245451D01*
X116166690Y-100255626D01*
X116067350Y-100285761D01*
X115975798Y-100334696D01*
X115923985Y-100377217D01*
X115782319Y-100334243D01*
X115668166Y-100323000D01*
X115668163Y-100323000D01*
X115630000Y-100319241D01*
X115591837Y-100323000D01*
X115402320Y-100323000D01*
X115332650Y-100285761D01*
X115233310Y-100255626D01*
X115130000Y-100245451D01*
X114070000Y-100245451D01*
X113966690Y-100255626D01*
X113867350Y-100285761D01*
X113797680Y-100323000D01*
X113405693Y-100323000D01*
X113339099Y-100278504D01*
X113170396Y-100208624D01*
X112991301Y-100173000D01*
X112808699Y-100173000D01*
X112629604Y-100208624D01*
X112460901Y-100278504D01*
X112309072Y-100379952D01*
X112179952Y-100509072D01*
X112078504Y-100660901D01*
X112008624Y-100829604D01*
X112005189Y-100846875D01*
X111902179Y-100791815D01*
X111757113Y-100747810D01*
X111606250Y-100732951D01*
X110693750Y-100732951D01*
X110542887Y-100747810D01*
X110397821Y-100791815D01*
X110264128Y-100863275D01*
X110146945Y-100959445D01*
X110050775Y-101076628D01*
X109979315Y-101210321D01*
X109935310Y-101355387D01*
X109920451Y-101506250D01*
X109920451Y-101993750D01*
X109935310Y-102144613D01*
X109979315Y-102289679D01*
X110050775Y-102423372D01*
X110146945Y-102540555D01*
X110264128Y-102636725D01*
X110397821Y-102708185D01*
X110542887Y-102752190D01*
X110693750Y-102767049D01*
X111606250Y-102767049D01*
X111757113Y-102752190D01*
X111902179Y-102708185D01*
X112035872Y-102636725D01*
X112153055Y-102540555D01*
X112164179Y-102527000D01*
X112211837Y-102527000D01*
X112250000Y-102530759D01*
X112288163Y-102527000D01*
X112288166Y-102527000D01*
X112402319Y-102515757D01*
X112548784Y-102471327D01*
X112683766Y-102399177D01*
X112802080Y-102302080D01*
X112826413Y-102272430D01*
X113091842Y-102007001D01*
X113170396Y-101991376D01*
X113339099Y-101921496D01*
X113405693Y-101877000D01*
X113797680Y-101877000D01*
X113867350Y-101914239D01*
X113966690Y-101944374D01*
X114070000Y-101954549D01*
X114923000Y-101954549D01*
X114923001Y-102145451D01*
X114070000Y-102145451D01*
X113966690Y-102155626D01*
X113867350Y-102185761D01*
X113775798Y-102234696D01*
X113695552Y-102300552D01*
X113629696Y-102380798D01*
X113580761Y-102472350D01*
X113550626Y-102571690D01*
X113540451Y-102675000D01*
X113540451Y-103325000D01*
X113550626Y-103428310D01*
X113580761Y-103527650D01*
X113629696Y-103619202D01*
X113695552Y-103699448D01*
X113775798Y-103765304D01*
X113867350Y-103814239D01*
X113966690Y-103844374D01*
X114070000Y-103854549D01*
X115130000Y-103854549D01*
X115233310Y-103844374D01*
X115332650Y-103814239D01*
X115402320Y-103777000D01*
X115591837Y-103777000D01*
X115630000Y-103780759D01*
X115668163Y-103777000D01*
X115668166Y-103777000D01*
X115782319Y-103765757D01*
X115923985Y-103722783D01*
X115975798Y-103765304D01*
X116067350Y-103814239D01*
X116166690Y-103844374D01*
X116270000Y-103854549D01*
X117330000Y-103854549D01*
X117433310Y-103844374D01*
X117532650Y-103814239D01*
X117624202Y-103765304D01*
X117704448Y-103699448D01*
X117770304Y-103619202D01*
X117819239Y-103527650D01*
X117849374Y-103428310D01*
X117859549Y-103325000D01*
X117859549Y-102675000D01*
X117849374Y-102571690D01*
X117840899Y-102543750D01*
X119982951Y-102543750D01*
X119982951Y-103456250D01*
X119997810Y-103607113D01*
X120041815Y-103752179D01*
X120113275Y-103885872D01*
X120209445Y-104003055D01*
X120326628Y-104099225D01*
X120460321Y-104170685D01*
X120492804Y-104180538D01*
X120528673Y-104298783D01*
X120600823Y-104433766D01*
X120635116Y-104475552D01*
X120697920Y-104552080D01*
X120727570Y-104576413D01*
X120823001Y-104671844D01*
X120823001Y-104824112D01*
X120820451Y-104850000D01*
X120820451Y-107150000D01*
X120830626Y-107253310D01*
X120860761Y-107352650D01*
X120909696Y-107444202D01*
X120975552Y-107524448D01*
X121055798Y-107590304D01*
X121147350Y-107639239D01*
X121246690Y-107669374D01*
X121350000Y-107679549D01*
X121850000Y-107679549D01*
X121953310Y-107669374D01*
X122000000Y-107655210D01*
X122046690Y-107669374D01*
X122150000Y-107679549D01*
X122650000Y-107679549D01*
X122753310Y-107669374D01*
X122800000Y-107655210D01*
X122846690Y-107669374D01*
X122950000Y-107679549D01*
X123450000Y-107679549D01*
X123553310Y-107669374D01*
X123600000Y-107655210D01*
X123646690Y-107669374D01*
X123750000Y-107679549D01*
X124250000Y-107679549D01*
X124353310Y-107669374D01*
X124452650Y-107639239D01*
X124544202Y-107590304D01*
X124558064Y-107578927D01*
X124670250Y-107577000D01*
X124777000Y-107470250D01*
X124777000Y-107175881D01*
X124779549Y-107150000D01*
X124779549Y-106023000D01*
X124823000Y-106023000D01*
X124823000Y-107470250D01*
X124929750Y-107577000D01*
X125050000Y-107579066D01*
X125052579Y-107578812D01*
X130773714Y-107578812D01*
X130837406Y-107801223D01*
X131058710Y-107925705D01*
X131300045Y-108004621D01*
X131552139Y-108034938D01*
X131805305Y-108015491D01*
X132049812Y-107947028D01*
X132276264Y-107832180D01*
X132322594Y-107801223D01*
X132386286Y-107578812D01*
X131580000Y-106772527D01*
X130773714Y-107578812D01*
X125052579Y-107578812D01*
X125133707Y-107570822D01*
X125214196Y-107546405D01*
X125288376Y-107506755D01*
X125353395Y-107453395D01*
X125406755Y-107388376D01*
X125446405Y-107314196D01*
X125470822Y-107233707D01*
X125479066Y-107150000D01*
X125478180Y-106712139D01*
X130285062Y-106712139D01*
X130304509Y-106965305D01*
X130372972Y-107209812D01*
X130487820Y-107436264D01*
X130518777Y-107482594D01*
X130741188Y-107546286D01*
X131547473Y-106740000D01*
X131612527Y-106740000D01*
X132418812Y-107546286D01*
X132641223Y-107482594D01*
X132765705Y-107261290D01*
X132844621Y-107019955D01*
X132874938Y-106767861D01*
X132855491Y-106514695D01*
X132787028Y-106270188D01*
X132672180Y-106043736D01*
X132641223Y-105997406D01*
X132418812Y-105933714D01*
X131612527Y-106740000D01*
X131547473Y-106740000D01*
X130741188Y-105933714D01*
X130518777Y-105997406D01*
X130394295Y-106218710D01*
X130315379Y-106460045D01*
X130285062Y-106712139D01*
X125478180Y-106712139D01*
X125477000Y-106129750D01*
X125370250Y-106023000D01*
X124823000Y-106023000D01*
X124779549Y-106023000D01*
X124779549Y-104850000D01*
X124777000Y-104824119D01*
X124777000Y-104529750D01*
X124823000Y-104529750D01*
X124823000Y-105977000D01*
X125370250Y-105977000D01*
X125477000Y-105870250D01*
X125479066Y-104850000D01*
X125470822Y-104766293D01*
X125446405Y-104685804D01*
X125406755Y-104611624D01*
X125353395Y-104546605D01*
X125288376Y-104493245D01*
X125214196Y-104453595D01*
X125133707Y-104429178D01*
X125050000Y-104420934D01*
X124929750Y-104423000D01*
X124823000Y-104529750D01*
X124777000Y-104529750D01*
X124670250Y-104423000D01*
X124558064Y-104421073D01*
X124544202Y-104409696D01*
X124452650Y-104360761D01*
X124353310Y-104330626D01*
X124250000Y-104320451D01*
X123750000Y-104320451D01*
X123646690Y-104330626D01*
X123600000Y-104344790D01*
X123553310Y-104330626D01*
X123450000Y-104320451D01*
X122950000Y-104320451D01*
X122846690Y-104330626D01*
X122800000Y-104344790D01*
X122753310Y-104330626D01*
X122650000Y-104320451D01*
X122377849Y-104320451D01*
X122377000Y-104311834D01*
X122365757Y-104197681D01*
X122327949Y-104073045D01*
X130311000Y-104073045D01*
X130311000Y-104326955D01*
X130360535Y-104575987D01*
X130457703Y-104810570D01*
X130598768Y-105021690D01*
X130778310Y-105201232D01*
X130989430Y-105342297D01*
X131224013Y-105439465D01*
X131352711Y-105465064D01*
X131110188Y-105532972D01*
X130883736Y-105647820D01*
X130837406Y-105678777D01*
X130773714Y-105901188D01*
X131580000Y-106707473D01*
X132386286Y-105901188D01*
X132322594Y-105678777D01*
X132101290Y-105554295D01*
X131859955Y-105475379D01*
X131819744Y-105470543D01*
X131975987Y-105439465D01*
X132210570Y-105342297D01*
X132421690Y-105201232D01*
X132601232Y-105021690D01*
X132742297Y-104810570D01*
X132839465Y-104575987D01*
X132889000Y-104326955D01*
X132889000Y-104073045D01*
X132839465Y-103824013D01*
X132742297Y-103589430D01*
X132601232Y-103378310D01*
X132421690Y-103198768D01*
X132210570Y-103057703D01*
X131975987Y-102960535D01*
X131726955Y-102911000D01*
X131473045Y-102911000D01*
X131224013Y-102960535D01*
X130989430Y-103057703D01*
X130778310Y-103198768D01*
X130598768Y-103378310D01*
X130457703Y-103589430D01*
X130360535Y-103824013D01*
X130311000Y-104073045D01*
X122327949Y-104073045D01*
X122321327Y-104051216D01*
X122249177Y-103916234D01*
X122152080Y-103797920D01*
X122122430Y-103773587D01*
X122027000Y-103678157D01*
X122027000Y-103288155D01*
X122030758Y-103249999D01*
X122027000Y-103211843D01*
X122027000Y-103211834D01*
X122017049Y-103110799D01*
X122017049Y-103081795D01*
X122071844Y-103027000D01*
X123428157Y-103027000D01*
X124023592Y-103622436D01*
X124047920Y-103652080D01*
X124077564Y-103676408D01*
X124077565Y-103676409D01*
X124166234Y-103749178D01*
X124254199Y-103796195D01*
X124301216Y-103821327D01*
X124447681Y-103865757D01*
X124561834Y-103877000D01*
X124561836Y-103877000D01*
X124600000Y-103880759D01*
X124638163Y-103877000D01*
X127694307Y-103877000D01*
X127760901Y-103921496D01*
X127929604Y-103991376D01*
X128108699Y-104027000D01*
X128291301Y-104027000D01*
X128470396Y-103991376D01*
X128639099Y-103921496D01*
X128790928Y-103820048D01*
X128920048Y-103690928D01*
X129021496Y-103539099D01*
X129091376Y-103370396D01*
X129127000Y-103191301D01*
X129127000Y-103008699D01*
X129091376Y-102829604D01*
X129021496Y-102660901D01*
X128920048Y-102509072D01*
X128790928Y-102379952D01*
X128639099Y-102278504D01*
X128470396Y-102208624D01*
X128291301Y-102173000D01*
X128108699Y-102173000D01*
X127929604Y-102208624D01*
X127760901Y-102278504D01*
X127694307Y-102323000D01*
X124921844Y-102323000D01*
X124326412Y-101727569D01*
X124302080Y-101697920D01*
X124183766Y-101600823D01*
X124048784Y-101528673D01*
X123902319Y-101484243D01*
X123788166Y-101473000D01*
X123788163Y-101473000D01*
X123750000Y-101469241D01*
X123711837Y-101473000D01*
X121788155Y-101473000D01*
X121749999Y-101469242D01*
X121711843Y-101473000D01*
X121711834Y-101473000D01*
X121597681Y-101484243D01*
X121452413Y-101528310D01*
X121451216Y-101528673D01*
X121316233Y-101600823D01*
X121227565Y-101673591D01*
X121197920Y-101697920D01*
X121173592Y-101727564D01*
X121130705Y-101770451D01*
X120756250Y-101770451D01*
X120605387Y-101785310D01*
X120460321Y-101829315D01*
X120326628Y-101900775D01*
X120209445Y-101996945D01*
X120113275Y-102114128D01*
X120041815Y-102247821D01*
X119997810Y-102392887D01*
X119982951Y-102543750D01*
X117840899Y-102543750D01*
X117819239Y-102472350D01*
X117770304Y-102380798D01*
X117704448Y-102300552D01*
X117624202Y-102234696D01*
X117532650Y-102185761D01*
X117433310Y-102155626D01*
X117330000Y-102145451D01*
X116477000Y-102145451D01*
X116477000Y-101954549D01*
X117330000Y-101954549D01*
X117433310Y-101944374D01*
X117532650Y-101914239D01*
X117602320Y-101877000D01*
X117791837Y-101877000D01*
X117830000Y-101880759D01*
X117868163Y-101877000D01*
X117868166Y-101877000D01*
X117982319Y-101865757D01*
X118128784Y-101821327D01*
X118263766Y-101749177D01*
X118382080Y-101652080D01*
X118406412Y-101622431D01*
X120401844Y-99627000D01*
X121961837Y-99627000D01*
X122000000Y-99630759D01*
X122038163Y-99627000D01*
X122038166Y-99627000D01*
X122152319Y-99615757D01*
X122298784Y-99571327D01*
X122433766Y-99499177D01*
X122552080Y-99402080D01*
X122576412Y-99372431D01*
X124772437Y-97176407D01*
X124802080Y-97152080D01*
X124826409Y-97122435D01*
X124899178Y-97033766D01*
X124946763Y-96944740D01*
X124971327Y-96898784D01*
X125015757Y-96752319D01*
X125027000Y-96638166D01*
X125027000Y-96638164D01*
X125030759Y-96600000D01*
X125027000Y-96561837D01*
X125027000Y-94655693D01*
X125071496Y-94589099D01*
X125141376Y-94420396D01*
X125177000Y-94241301D01*
X125177000Y-94058699D01*
X125141376Y-93879604D01*
X125071496Y-93710901D01*
X124970048Y-93559072D01*
X124840928Y-93429952D01*
X124689099Y-93328504D01*
X124520396Y-93258624D01*
X124341301Y-93223000D01*
X124158699Y-93223000D01*
X123979604Y-93258624D01*
X123810901Y-93328504D01*
X123659072Y-93429952D01*
X123529952Y-93559072D01*
X123428504Y-93710901D01*
X123358624Y-93879604D01*
X123351949Y-93913162D01*
X123278337Y-93670495D01*
X123150473Y-93431279D01*
X122978397Y-93221603D01*
X122952074Y-93200000D01*
X122978397Y-93178397D01*
X123150473Y-92968721D01*
X123278337Y-92729505D01*
X123357075Y-92469939D01*
X123383662Y-92200000D01*
X123357075Y-91930061D01*
X123278337Y-91670495D01*
X123150473Y-91431279D01*
X122978397Y-91221603D01*
X122768721Y-91049527D01*
X122585438Y-90951560D01*
X122741533Y-90847261D01*
X122947261Y-90641533D01*
X123108901Y-90399622D01*
X123220240Y-90130825D01*
X123277000Y-89845472D01*
X123277000Y-89554528D01*
X123220240Y-89269175D01*
X123108901Y-89000378D01*
X122947261Y-88758467D01*
X122741533Y-88552739D01*
X122499622Y-88391099D01*
X122230825Y-88279760D01*
X121945472Y-88223000D01*
X121654528Y-88223000D01*
X121460448Y-88261605D01*
X121027000Y-87828157D01*
X121027000Y-84521843D01*
X121372436Y-84176408D01*
X121402080Y-84152080D01*
X121487757Y-84047682D01*
X121499177Y-84033767D01*
X121571327Y-83898784D01*
X121608098Y-83777566D01*
X121615757Y-83752319D01*
X121627000Y-83638166D01*
X121627000Y-83638157D01*
X121630758Y-83600001D01*
X121627000Y-83561845D01*
X121627000Y-82238163D01*
X121630759Y-82200000D01*
X121621773Y-82108766D01*
X121615757Y-82047681D01*
X121571327Y-81901216D01*
X121499178Y-81766235D01*
X121499177Y-81766233D01*
X121426409Y-81677565D01*
X121426408Y-81677564D01*
X121402080Y-81647920D01*
X121372437Y-81623593D01*
X120853521Y-81104678D01*
X120920396Y-81091376D01*
X121089099Y-81021496D01*
X121240928Y-80920048D01*
X121370048Y-80790928D01*
X121471496Y-80639099D01*
X121541376Y-80470396D01*
X121577000Y-80291301D01*
X121577000Y-80108699D01*
X121541376Y-79929604D01*
X121471496Y-79760901D01*
X121370048Y-79609072D01*
X121240928Y-79479952D01*
X121089099Y-79378504D01*
X120920396Y-79308624D01*
X120741301Y-79273000D01*
X120558699Y-79273000D01*
X120379604Y-79308624D01*
X120210901Y-79378504D01*
X120059072Y-79479952D01*
X119929952Y-79609072D01*
X119828504Y-79760901D01*
X119758624Y-79929604D01*
X119742999Y-80008158D01*
X119527569Y-80223588D01*
X119497920Y-80247920D01*
X119483152Y-80265915D01*
X119414679Y-80229315D01*
X119269613Y-80185310D01*
X119118750Y-80170451D01*
X118631250Y-80170451D01*
X118480387Y-80185310D01*
X118335321Y-80229315D01*
X118201628Y-80300775D01*
X118084445Y-80396945D01*
X117988275Y-80514128D01*
X117916815Y-80647821D01*
X117872810Y-80792887D01*
X117857951Y-80943750D01*
X117857951Y-81444529D01*
X117834244Y-81522682D01*
X117819241Y-81675000D01*
X117823001Y-81713173D01*
X117823000Y-82923000D01*
X116602320Y-82923000D01*
X116532650Y-82885761D01*
X116433310Y-82855626D01*
X116330000Y-82845451D01*
X115270000Y-82845451D01*
X115166690Y-82855626D01*
X115067350Y-82885761D01*
X114975798Y-82934696D01*
X114895552Y-83000552D01*
X114829696Y-83080798D01*
X114780761Y-83172350D01*
X114750626Y-83271690D01*
X114740451Y-83375000D01*
X114740451Y-84025000D01*
X114750626Y-84128310D01*
X114780761Y-84227650D01*
X114829696Y-84319202D01*
X114895552Y-84399448D01*
X114975798Y-84465304D01*
X115067350Y-84514239D01*
X115166690Y-84544374D01*
X115270000Y-84554549D01*
X116330000Y-84554549D01*
X116433310Y-84544374D01*
X116532650Y-84514239D01*
X116602320Y-84477000D01*
X118311837Y-84477000D01*
X118350000Y-84480759D01*
X118388163Y-84477000D01*
X118388166Y-84477000D01*
X118502319Y-84465757D01*
X118648784Y-84421327D01*
X118783766Y-84349177D01*
X118902080Y-84252080D01*
X118926413Y-84222430D01*
X119122432Y-84026411D01*
X119152080Y-84002080D01*
X119249177Y-83883766D01*
X119321327Y-83748784D01*
X119365757Y-83602319D01*
X119377000Y-83488166D01*
X119377000Y-83488157D01*
X119380758Y-83450001D01*
X119377000Y-83411845D01*
X119377000Y-82582115D01*
X119414679Y-82570685D01*
X119548372Y-82499225D01*
X119665555Y-82403055D01*
X119761725Y-82285872D01*
X119787955Y-82236799D01*
X120073000Y-82521844D01*
X120073001Y-83278156D01*
X119727569Y-83623588D01*
X119697920Y-83647920D01*
X119673591Y-83677566D01*
X119600823Y-83766234D01*
X119594766Y-83777566D01*
X119528673Y-83901217D01*
X119484243Y-84047682D01*
X119474394Y-84147681D01*
X119469241Y-84200000D01*
X119473000Y-84238163D01*
X119473001Y-88111827D01*
X119469241Y-88150000D01*
X119478765Y-88246690D01*
X119484136Y-88301217D01*
X119484244Y-88302318D01*
X119528673Y-88448783D01*
X119600823Y-88583766D01*
X119673591Y-88672434D01*
X119697921Y-88702080D01*
X119727565Y-88726408D01*
X120361605Y-89360448D01*
X120323000Y-89554528D01*
X120323000Y-89845472D01*
X120379760Y-90130825D01*
X120491099Y-90399622D01*
X120652739Y-90641533D01*
X120858467Y-90847261D01*
X121014562Y-90951560D01*
X120831279Y-91049527D01*
X120621603Y-91221603D01*
X120449527Y-91431279D01*
X120321663Y-91670495D01*
X120242925Y-91930061D01*
X120216338Y-92200000D01*
X120226945Y-92307690D01*
X119955837Y-92473000D01*
X116526133Y-92473000D01*
X115701317Y-91648185D01*
X115679549Y-91630320D01*
X115679549Y-90275000D01*
X115669374Y-90171690D01*
X115639239Y-90072350D01*
X115590304Y-89980798D01*
X115524448Y-89900552D01*
X115444202Y-89834696D01*
X115352650Y-89785761D01*
X115253310Y-89755626D01*
X115150000Y-89745451D01*
X114850000Y-89745451D01*
X114750000Y-89755300D01*
X114650000Y-89745451D01*
X114649781Y-89745451D01*
X114642565Y-89672185D01*
X114618422Y-89592597D01*
X114605283Y-89549283D01*
X114544741Y-89436016D01*
X114489579Y-89368801D01*
X114474910Y-89320444D01*
X114407402Y-89194148D01*
X114339316Y-89111183D01*
X114139325Y-88911193D01*
X114116554Y-88883446D01*
X114005853Y-88792597D01*
X113879557Y-88725090D01*
X113742517Y-88683520D01*
X113635708Y-88673000D01*
X113600000Y-88669483D01*
X113564292Y-88673000D01*
X111525945Y-88673000D01*
X111569071Y-88620451D01*
X111599177Y-88583767D01*
X111671327Y-88448784D01*
X111671662Y-88447681D01*
X111715757Y-88302319D01*
X111727000Y-88188166D01*
X111727000Y-88188157D01*
X111730758Y-88150001D01*
X111727000Y-88111845D01*
X111727000Y-86477000D01*
X113461837Y-86477000D01*
X113500000Y-86480759D01*
X113538163Y-86477000D01*
X113538166Y-86477000D01*
X113652319Y-86465757D01*
X113689267Y-86454549D01*
X114130000Y-86454549D01*
X114233310Y-86444374D01*
X114332650Y-86414239D01*
X114424202Y-86365304D01*
X114504448Y-86299448D01*
X114570304Y-86219202D01*
X114619239Y-86127650D01*
X114649374Y-86028310D01*
X114659549Y-85925000D01*
X114659549Y-85275000D01*
X114740451Y-85275000D01*
X114740451Y-85925000D01*
X114750626Y-86028310D01*
X114780761Y-86127650D01*
X114829696Y-86219202D01*
X114895552Y-86299448D01*
X114975798Y-86365304D01*
X115067350Y-86414239D01*
X115166690Y-86444374D01*
X115270000Y-86454549D01*
X116330000Y-86454549D01*
X116433310Y-86444374D01*
X116532650Y-86414239D01*
X116624202Y-86365304D01*
X116704448Y-86299448D01*
X116770304Y-86219202D01*
X116819239Y-86127650D01*
X116849374Y-86028310D01*
X116859549Y-85925000D01*
X116859549Y-85275000D01*
X116849374Y-85171690D01*
X116819239Y-85072350D01*
X116770304Y-84980798D01*
X116704448Y-84900552D01*
X116624202Y-84834696D01*
X116532650Y-84785761D01*
X116433310Y-84755626D01*
X116330000Y-84745451D01*
X115270000Y-84745451D01*
X115166690Y-84755626D01*
X115067350Y-84785761D01*
X114975798Y-84834696D01*
X114895552Y-84900552D01*
X114829696Y-84980798D01*
X114780761Y-85072350D01*
X114750626Y-85171690D01*
X114740451Y-85275000D01*
X114659549Y-85275000D01*
X114649374Y-85171690D01*
X114619239Y-85072350D01*
X114570304Y-84980798D01*
X114504448Y-84900552D01*
X114424202Y-84834696D01*
X114332650Y-84785761D01*
X114233310Y-84755626D01*
X114130000Y-84745451D01*
X113070000Y-84745451D01*
X112966690Y-84755626D01*
X112867350Y-84785761D01*
X112775798Y-84834696D01*
X112695552Y-84900552D01*
X112677129Y-84923000D01*
X111727000Y-84923000D01*
X111727000Y-84621843D01*
X111871844Y-84477000D01*
X112797680Y-84477000D01*
X112867350Y-84514239D01*
X112966690Y-84544374D01*
X113070000Y-84554549D01*
X114130000Y-84554549D01*
X114233310Y-84544374D01*
X114332650Y-84514239D01*
X114424202Y-84465304D01*
X114504448Y-84399448D01*
X114570304Y-84319202D01*
X114619239Y-84227650D01*
X114649374Y-84128310D01*
X114659549Y-84025000D01*
X114659549Y-83375000D01*
X114649374Y-83271690D01*
X114619239Y-83172350D01*
X114570304Y-83080798D01*
X114504448Y-83000552D01*
X114424202Y-82934696D01*
X114377345Y-82909651D01*
X114380758Y-82874999D01*
X114377000Y-82836843D01*
X114377000Y-82836834D01*
X114365757Y-82722681D01*
X114321327Y-82576216D01*
X114288065Y-82513988D01*
X114249177Y-82441233D01*
X114208442Y-82391598D01*
X114152080Y-82322920D01*
X114122430Y-82298587D01*
X114045857Y-82222014D01*
X114083185Y-82152179D01*
X114127190Y-82007113D01*
X114142049Y-81856250D01*
X114142049Y-80943750D01*
X114127190Y-80792887D01*
X114083185Y-80647821D01*
X114011725Y-80514128D01*
X113915555Y-80396945D01*
X113798372Y-80300775D01*
X113664679Y-80229315D01*
X113519613Y-80185310D01*
X113368750Y-80170451D01*
X112881250Y-80170451D01*
X112730387Y-80185310D01*
X112585321Y-80229315D01*
X112451628Y-80300775D01*
X112334445Y-80396945D01*
X112238275Y-80514128D01*
X112166815Y-80647821D01*
X112122810Y-80792887D01*
X112107951Y-80943750D01*
X112107951Y-81856250D01*
X112122810Y-82007113D01*
X112166815Y-82152179D01*
X112238275Y-82285872D01*
X112334445Y-82403055D01*
X112345430Y-82412070D01*
X112348000Y-82438163D01*
X112348000Y-82438165D01*
X112359243Y-82552318D01*
X112394712Y-82669242D01*
X112403673Y-82698783D01*
X112475823Y-82833766D01*
X112508507Y-82873591D01*
X112549055Y-82923000D01*
X111588155Y-82923000D01*
X111549999Y-82919242D01*
X111511843Y-82923000D01*
X111511834Y-82923000D01*
X111397681Y-82934243D01*
X111251216Y-82978673D01*
X111116233Y-83050823D01*
X111030324Y-83121327D01*
X110997920Y-83147920D01*
X110973592Y-83177564D01*
X110427565Y-83723592D01*
X110397921Y-83747920D01*
X110373593Y-83777564D01*
X110373591Y-83777566D01*
X110300823Y-83866234D01*
X110228673Y-84001217D01*
X110198958Y-84099177D01*
X110188466Y-84133765D01*
X110184244Y-84147682D01*
X110169241Y-84300000D01*
X110173001Y-84338173D01*
X110173000Y-85661833D01*
X110169241Y-85700000D01*
X110173001Y-85738176D01*
X110173000Y-87823000D01*
X110025881Y-87823000D01*
X110000000Y-87820451D01*
X107700000Y-87820451D01*
X107596690Y-87830626D01*
X107497350Y-87860761D01*
X107405798Y-87909696D01*
X107325552Y-87975552D01*
X107259696Y-88055798D01*
X107210761Y-88147350D01*
X107180626Y-88246690D01*
X107170451Y-88350000D01*
X107170451Y-88850000D01*
X107180626Y-88953310D01*
X107194790Y-89000000D01*
X107180626Y-89046690D01*
X107170451Y-89150000D01*
X107170451Y-89650000D01*
X107180626Y-89753310D01*
X107194790Y-89800000D01*
X107180626Y-89846690D01*
X107170451Y-89950000D01*
X107170451Y-90450000D01*
X107180626Y-90553310D01*
X107194790Y-90600000D01*
X107180626Y-90646690D01*
X107170451Y-90750000D01*
X107170451Y-91250000D01*
X107180626Y-91353310D01*
X107194789Y-91399998D01*
X107180625Y-91446690D01*
X107170450Y-91550000D01*
X107173000Y-91645250D01*
X107304750Y-91777000D01*
X107674119Y-91777000D01*
X107700000Y-91779549D01*
X110000000Y-91779549D01*
X110025881Y-91777000D01*
X110395250Y-91777000D01*
X110527000Y-91645250D01*
X110529550Y-91550000D01*
X110519375Y-91446690D01*
X110505211Y-91399998D01*
X110519374Y-91353310D01*
X110529549Y-91250000D01*
X110529549Y-91157681D01*
X110873000Y-91501133D01*
X110873000Y-91964292D01*
X110869483Y-92000000D01*
X110883520Y-92142517D01*
X110925090Y-92279556D01*
X110965555Y-92355260D01*
X110992598Y-92405853D01*
X111083447Y-92516554D01*
X111111189Y-92539321D01*
X112711182Y-94139316D01*
X112735276Y-94159089D01*
X112647350Y-94185761D01*
X112555798Y-94234696D01*
X112475552Y-94300552D01*
X112409696Y-94380798D01*
X112360761Y-94472350D01*
X112330626Y-94571690D01*
X112320451Y-94675000D01*
X112320451Y-95732483D01*
X112304934Y-95748000D01*
X109132022Y-95748000D01*
X109100000Y-95744846D01*
X108972185Y-95757435D01*
X108849283Y-95794717D01*
X108736016Y-95855259D01*
X108636736Y-95936736D01*
X108616320Y-95961613D01*
X106611619Y-97966315D01*
X106586736Y-97986736D01*
X106505259Y-98086017D01*
X106460775Y-98169241D01*
X106444717Y-98199284D01*
X106407435Y-98322186D01*
X106394846Y-98450000D01*
X106398000Y-98482022D01*
X106398000Y-100457360D01*
X106284980Y-100410546D01*
X106096226Y-100373000D01*
X105903774Y-100373000D01*
X105715020Y-100410546D01*
X105537217Y-100484194D01*
X105377199Y-100591115D01*
X105241115Y-100727199D01*
X105134194Y-100887217D01*
X105060546Y-101065020D01*
X105023000Y-101253774D01*
X102927000Y-101253774D01*
X102927000Y-99271843D01*
X105044505Y-97154339D01*
X105060546Y-97234980D01*
X105134194Y-97412783D01*
X105241115Y-97572801D01*
X105377199Y-97708885D01*
X105537217Y-97815806D01*
X105715020Y-97889454D01*
X105903774Y-97927000D01*
X106096226Y-97927000D01*
X106284980Y-97889454D01*
X106462783Y-97815806D01*
X106622801Y-97708885D01*
X106758885Y-97572801D01*
X106865806Y-97412783D01*
X106939454Y-97234980D01*
X106977000Y-97046226D01*
X106977000Y-96853774D01*
X106939454Y-96665020D01*
X106865806Y-96487217D01*
X106758885Y-96327199D01*
X106622801Y-96191115D01*
X106462783Y-96084194D01*
X106284980Y-96010546D01*
X106152410Y-95984176D01*
X106171327Y-95948784D01*
X106215757Y-95802319D01*
X106227000Y-95688166D01*
X106227000Y-95688164D01*
X106230759Y-95650000D01*
X106227000Y-95611837D01*
X106227000Y-95155705D01*
X106271496Y-95089111D01*
X106341376Y-94920408D01*
X106377000Y-94741313D01*
X106377000Y-94558711D01*
X106341376Y-94379616D01*
X106271496Y-94210913D01*
X106170048Y-94059084D01*
X106040928Y-93929964D01*
X105889099Y-93828516D01*
X105720396Y-93758636D01*
X105541301Y-93723012D01*
X105358699Y-93723012D01*
X105179604Y-93758636D01*
X105010901Y-93828516D01*
X104859072Y-93929964D01*
X104729952Y-94059084D01*
X104628504Y-94210913D01*
X104558624Y-94379616D01*
X104523000Y-94558711D01*
X104523000Y-94741313D01*
X104558624Y-94920408D01*
X104628504Y-95089111D01*
X104673000Y-95155705D01*
X104673000Y-95328156D01*
X101627565Y-98373592D01*
X101597921Y-98397920D01*
X101573593Y-98427564D01*
X101573591Y-98427566D01*
X101500823Y-98516234D01*
X101428673Y-98651217D01*
X101384244Y-98797682D01*
X101369241Y-98950000D01*
X101373001Y-98988173D01*
X101373000Y-104212471D01*
X101136000Y-104449472D01*
X101136000Y-92303774D01*
X105023000Y-92303774D01*
X105023000Y-92496226D01*
X105060546Y-92684980D01*
X105134194Y-92862783D01*
X105241115Y-93022801D01*
X105377199Y-93158885D01*
X105537217Y-93265806D01*
X105715020Y-93339454D01*
X105903774Y-93377000D01*
X106096226Y-93377000D01*
X106284980Y-93339454D01*
X106462783Y-93265806D01*
X106622801Y-93158885D01*
X106758885Y-93022801D01*
X106865806Y-92862783D01*
X106939454Y-92684980D01*
X106977000Y-92496226D01*
X106977000Y-92303774D01*
X106939454Y-92115020D01*
X106912522Y-92050000D01*
X107170450Y-92050000D01*
X107180625Y-92153310D01*
X107210760Y-92252650D01*
X107259695Y-92344202D01*
X107325552Y-92424448D01*
X107405798Y-92490305D01*
X107497350Y-92539240D01*
X107596690Y-92569375D01*
X107700000Y-92579550D01*
X108695250Y-92577000D01*
X108827000Y-92445250D01*
X108827000Y-91823000D01*
X108873000Y-91823000D01*
X108873000Y-92445250D01*
X109004750Y-92577000D01*
X110000000Y-92579550D01*
X110103310Y-92569375D01*
X110202650Y-92539240D01*
X110294202Y-92490305D01*
X110374448Y-92424448D01*
X110440305Y-92344202D01*
X110489240Y-92252650D01*
X110519375Y-92153310D01*
X110529550Y-92050000D01*
X110527000Y-91954750D01*
X110395250Y-91823000D01*
X108873000Y-91823000D01*
X108827000Y-91823000D01*
X107304750Y-91823000D01*
X107173000Y-91954750D01*
X107170450Y-92050000D01*
X106912522Y-92050000D01*
X106865806Y-91937217D01*
X106758885Y-91777199D01*
X106622801Y-91641115D01*
X106462783Y-91534194D01*
X106284980Y-91460546D01*
X106096226Y-91423000D01*
X105903774Y-91423000D01*
X105715020Y-91460546D01*
X105537217Y-91534194D01*
X105377199Y-91641115D01*
X105241115Y-91777199D01*
X105134194Y-91937217D01*
X105060546Y-92115020D01*
X105023000Y-92303774D01*
X101136000Y-92303774D01*
X101136000Y-87903774D01*
X105023000Y-87903774D01*
X105023000Y-88096226D01*
X105060546Y-88284980D01*
X105134194Y-88462783D01*
X105241115Y-88622801D01*
X105377199Y-88758885D01*
X105537217Y-88865806D01*
X105715020Y-88939454D01*
X105903774Y-88977000D01*
X106096226Y-88977000D01*
X106284980Y-88939454D01*
X106462783Y-88865806D01*
X106622801Y-88758885D01*
X106758885Y-88622801D01*
X106865806Y-88462783D01*
X106939454Y-88284980D01*
X106977000Y-88096226D01*
X106977000Y-87903774D01*
X106939454Y-87715020D01*
X106865806Y-87537217D01*
X106758885Y-87377199D01*
X106622801Y-87241115D01*
X106462783Y-87134194D01*
X106284980Y-87060546D01*
X106096226Y-87023000D01*
X105903774Y-87023000D01*
X105715020Y-87060546D01*
X105537217Y-87134194D01*
X105377199Y-87241115D01*
X105241115Y-87377199D01*
X105134194Y-87537217D01*
X105060546Y-87715020D01*
X105023000Y-87903774D01*
X101136000Y-87903774D01*
X101136000Y-84035595D01*
X101471442Y-84259730D01*
X102058719Y-84502988D01*
X102682168Y-84627000D01*
X103317832Y-84627000D01*
X103941281Y-84502988D01*
X104528558Y-84259730D01*
X105057093Y-83906575D01*
X105506575Y-83457093D01*
X105859730Y-82928558D01*
X106102988Y-82341281D01*
X106227000Y-81717832D01*
X106227000Y-81082168D01*
X106102988Y-80458719D01*
X105859730Y-79871442D01*
X105506575Y-79342907D01*
X105057093Y-78893425D01*
X104528558Y-78540270D01*
X104134389Y-78377000D01*
X130865611Y-78377000D01*
X130471442Y-78540270D01*
X130471442Y-78540270D01*
G37*
X130471442Y-78540270D02*
X129942907Y-78893425D01*
X129493425Y-79342907D01*
X129140270Y-79871442D01*
X128897012Y-80458719D01*
X128773000Y-81082168D01*
X128773000Y-81717832D01*
X128897012Y-82341281D01*
X129140270Y-82928558D01*
X129493425Y-83457093D01*
X129942907Y-83906575D01*
X130471442Y-84259730D01*
X131058719Y-84502988D01*
X131682168Y-84627000D01*
X132317832Y-84627000D01*
X132941281Y-84502988D01*
X133528558Y-84259730D01*
X134057093Y-83906575D01*
X134322001Y-83641667D01*
X134322000Y-109758332D01*
X134057093Y-109493425D01*
X133528558Y-109140270D01*
X132941281Y-108897012D01*
X132317832Y-108773000D01*
X131682168Y-108773000D01*
X131058719Y-108897012D01*
X130471442Y-109140270D01*
X129942907Y-109493425D01*
X129493425Y-109942907D01*
X129140270Y-110471442D01*
X128897012Y-111058719D01*
X128773000Y-111682168D01*
X128773000Y-112317832D01*
X128897012Y-112941281D01*
X129140270Y-113528558D01*
X129286896Y-113748000D01*
X105713104Y-113748000D01*
X105859730Y-113528558D01*
X106102988Y-112941281D01*
X106227000Y-112317832D01*
X106227000Y-111682168D01*
X106102988Y-111058719D01*
X105859730Y-110471442D01*
X105506575Y-109942907D01*
X105057093Y-109493425D01*
X104528558Y-109140270D01*
X103941281Y-108897012D01*
X103317832Y-108773000D01*
X102682168Y-108773000D01*
X102058719Y-108897012D01*
X101471442Y-109140270D01*
X101136000Y-109364405D01*
X101136000Y-106531892D01*
X101279604Y-106591376D01*
X101458699Y-106627000D01*
X101641301Y-106627000D01*
X101820396Y-106591376D01*
X101989099Y-106521496D01*
X102140928Y-106420048D01*
X102270048Y-106290928D01*
X102371496Y-106139099D01*
X102441376Y-105970396D01*
X102477000Y-105791301D01*
X102477000Y-105608699D01*
X102441376Y-105429604D01*
X102415653Y-105367505D01*
X102672437Y-105110722D01*
X102702080Y-105086395D01*
X102755182Y-105021690D01*
X102799177Y-104968082D01*
X102871327Y-104833099D01*
X102889558Y-104773000D01*
X102915757Y-104686634D01*
X102927000Y-104572481D01*
X102927000Y-104572472D01*
X102930758Y-104534316D01*
X102927000Y-104496160D01*
X102927000Y-101253774D01*
X105023000Y-101253774D01*
X105023000Y-101446226D01*
X105060546Y-101634980D01*
X105134194Y-101812783D01*
X105241115Y-101972801D01*
X105377199Y-102108885D01*
X105537217Y-102215806D01*
X105715020Y-102289454D01*
X105903774Y-102327000D01*
X106096226Y-102327000D01*
X106284980Y-102289454D01*
X106398001Y-102242640D01*
X106398001Y-103317968D01*
X106394846Y-103350000D01*
X106407435Y-103477814D01*
X106444717Y-103600716D01*
X106470620Y-103649177D01*
X106505260Y-103713984D01*
X106586737Y-103813264D01*
X106611614Y-103833680D01*
X108698384Y-105920451D01*
X107650000Y-105920451D01*
X107546690Y-105930626D01*
X107447350Y-105960761D01*
X107355798Y-106009696D01*
X107275552Y-106075552D01*
X107209696Y-106155798D01*
X107160761Y-106247350D01*
X107130626Y-106346690D01*
X107120451Y-106450000D01*
X107120451Y-108350000D01*
X107130626Y-108453310D01*
X107160761Y-108552650D01*
X107209696Y-108644202D01*
X107275552Y-108724448D01*
X107355798Y-108790304D01*
X107447350Y-108839239D01*
X107546690Y-108869374D01*
X107650000Y-108879549D01*
X109550000Y-108879549D01*
X109653310Y-108869374D01*
X109752650Y-108839239D01*
X109844202Y-108790304D01*
X109924448Y-108724448D01*
X109990304Y-108644202D01*
X110039239Y-108552650D01*
X110068243Y-108457037D01*
X110158467Y-108547261D01*
X110400378Y-108708901D01*
X110669175Y-108820240D01*
X110954528Y-108877000D01*
X111245472Y-108877000D01*
X111530825Y-108820240D01*
X111799622Y-108708901D01*
X112041533Y-108547261D01*
X112247261Y-108341533D01*
X112350000Y-108187773D01*
X112452739Y-108341533D01*
X112658467Y-108547261D01*
X112900378Y-108708901D01*
X113169175Y-108820240D01*
X113454528Y-108877000D01*
X113745472Y-108877000D01*
X114030825Y-108820240D01*
X114191288Y-108753774D01*
X120023000Y-108753774D01*
X120023000Y-108946226D01*
X120060546Y-109134980D01*
X120134194Y-109312783D01*
X120241115Y-109472801D01*
X120377199Y-109608885D01*
X120537217Y-109715806D01*
X120715020Y-109789454D01*
X120903774Y-109827000D01*
X121096226Y-109827000D01*
X121284980Y-109789454D01*
X121462783Y-109715806D01*
X121622801Y-109608885D01*
X121758885Y-109472801D01*
X121865806Y-109312783D01*
X121939454Y-109134980D01*
X121977000Y-108946226D01*
X121977000Y-108753774D01*
X124423000Y-108753774D01*
X124423000Y-108946226D01*
X124460546Y-109134980D01*
X124534194Y-109312783D01*
X124641115Y-109472801D01*
X124777199Y-109608885D01*
X124937217Y-109715806D01*
X125115020Y-109789454D01*
X125303774Y-109827000D01*
X125496226Y-109827000D01*
X125684980Y-109789454D01*
X125862783Y-109715806D01*
X126022801Y-109608885D01*
X126158885Y-109472801D01*
X126265806Y-109312783D01*
X126339454Y-109134980D01*
X126377000Y-108946226D01*
X126377000Y-108753774D01*
X126339454Y-108565020D01*
X126265806Y-108387217D01*
X126158885Y-108227199D01*
X126022801Y-108091115D01*
X125862783Y-107984194D01*
X125684980Y-107910546D01*
X125496226Y-107873000D01*
X125303774Y-107873000D01*
X125115020Y-107910546D01*
X124937217Y-107984194D01*
X124777199Y-108091115D01*
X124641115Y-108227199D01*
X124534194Y-108387217D01*
X124460546Y-108565020D01*
X124423000Y-108753774D01*
X121977000Y-108753774D01*
X121939454Y-108565020D01*
X121865806Y-108387217D01*
X121758885Y-108227199D01*
X121622801Y-108091115D01*
X121462783Y-107984194D01*
X121284980Y-107910546D01*
X121096226Y-107873000D01*
X120903774Y-107873000D01*
X120715020Y-107910546D01*
X120537217Y-107984194D01*
X120377199Y-108091115D01*
X120241115Y-108227199D01*
X120134194Y-108387217D01*
X120060546Y-108565020D01*
X120023000Y-108753774D01*
X114191288Y-108753774D01*
X114299622Y-108708901D01*
X114541533Y-108547261D01*
X114747261Y-108341533D01*
X114908901Y-108099622D01*
X115020240Y-107830825D01*
X115077000Y-107545472D01*
X115077000Y-107254528D01*
X115020240Y-106969175D01*
X114908901Y-106700378D01*
X114747261Y-106458467D01*
X114541533Y-106252739D01*
X114299622Y-106091099D01*
X114030825Y-105979760D01*
X113745472Y-105923000D01*
X113454528Y-105923000D01*
X113169175Y-105979760D01*
X112900378Y-106091099D01*
X112658467Y-106252739D01*
X112452739Y-106458467D01*
X112350000Y-106612227D01*
X112247261Y-106458467D01*
X112041533Y-106252739D01*
X111799622Y-106091099D01*
X111530825Y-105979760D01*
X111245472Y-105923000D01*
X110954528Y-105923000D01*
X110669175Y-105979760D01*
X110621553Y-105999486D01*
X107702000Y-103079934D01*
X107702000Y-98720066D01*
X109370067Y-97052000D01*
X112542978Y-97052000D01*
X112575000Y-97055154D01*
X112607022Y-97052000D01*
X112702814Y-97042565D01*
X112825717Y-97005283D01*
X112938984Y-96944741D01*
X113038264Y-96863264D01*
X113058685Y-96838381D01*
X113252154Y-96644912D01*
X113348000Y-96654352D01*
X113348000Y-96741024D01*
X113279952Y-96809072D01*
X113178504Y-96960901D01*
X113108624Y-97129604D01*
X113073000Y-97308699D01*
X113073000Y-97491301D01*
X113108624Y-97670396D01*
X113178504Y-97839099D01*
X113279952Y-97990928D01*
X113409072Y-98120048D01*
X113560901Y-98221496D01*
X113729604Y-98291376D01*
X113908699Y-98327000D01*
X114091301Y-98327000D01*
X114270396Y-98291376D01*
X114439099Y-98221496D01*
X114590928Y-98120048D01*
X114720048Y-97990928D01*
X114821496Y-97839099D01*
X114891376Y-97670396D01*
X114927000Y-97491301D01*
X114927000Y-97308699D01*
X114891376Y-97129604D01*
X114821496Y-96960901D01*
X114720048Y-96809072D01*
X114652000Y-96741024D01*
X114652000Y-96654352D01*
X114753310Y-96644374D01*
X114852650Y-96614239D01*
X114944202Y-96565304D01*
X115024448Y-96499448D01*
X115090304Y-96419202D01*
X115139239Y-96327650D01*
X115169374Y-96228310D01*
X115179549Y-96125000D01*
X115179549Y-94681133D01*
X115180153Y-94675001D01*
X115176999Y-94642979D01*
X115176999Y-94622825D01*
X115205853Y-94607402D01*
X115288817Y-94539315D01*
X115301132Y-94527000D01*
X120260234Y-94527000D01*
X120321663Y-94729505D01*
X120449527Y-94968721D01*
X120621603Y-95178397D01*
X120831279Y-95350473D01*
X121070495Y-95478337D01*
X121330061Y-95557075D01*
X121532360Y-95577000D01*
X122067640Y-95577000D01*
X122269939Y-95557075D01*
X122529505Y-95478337D01*
X122768721Y-95350473D01*
X122978397Y-95178397D01*
X123150473Y-94968721D01*
X123278337Y-94729505D01*
X123357075Y-94469939D01*
X123361315Y-94426892D01*
X123428504Y-94589099D01*
X123473001Y-94655694D01*
X123473000Y-96278156D01*
X121678157Y-98073000D01*
X120118163Y-98073000D01*
X120080000Y-98069241D01*
X120041836Y-98073000D01*
X120041834Y-98073000D01*
X119927681Y-98084243D01*
X119781216Y-98128673D01*
X119734199Y-98153805D01*
X119646234Y-98200822D01*
X119612298Y-98228673D01*
X119527920Y-98297920D01*
X119503592Y-98327564D01*
X117540956Y-100290201D01*
X117532650Y-100285761D01*
X117433310Y-100255626D01*
X117330000Y-100245451D01*
X116270000Y-100245451D01*
X116166690Y-100255626D01*
X116067350Y-100285761D01*
X115975798Y-100334696D01*
X115923985Y-100377217D01*
X115782319Y-100334243D01*
X115668166Y-100323000D01*
X115668163Y-100323000D01*
X115630000Y-100319241D01*
X115591837Y-100323000D01*
X115402320Y-100323000D01*
X115332650Y-100285761D01*
X115233310Y-100255626D01*
X115130000Y-100245451D01*
X114070000Y-100245451D01*
X113966690Y-100255626D01*
X113867350Y-100285761D01*
X113797680Y-100323000D01*
X113405693Y-100323000D01*
X113339099Y-100278504D01*
X113170396Y-100208624D01*
X112991301Y-100173000D01*
X112808699Y-100173000D01*
X112629604Y-100208624D01*
X112460901Y-100278504D01*
X112309072Y-100379952D01*
X112179952Y-100509072D01*
X112078504Y-100660901D01*
X112008624Y-100829604D01*
X112005189Y-100846875D01*
X111902179Y-100791815D01*
X111757113Y-100747810D01*
X111606250Y-100732951D01*
X110693750Y-100732951D01*
X110542887Y-100747810D01*
X110397821Y-100791815D01*
X110264128Y-100863275D01*
X110146945Y-100959445D01*
X110050775Y-101076628D01*
X109979315Y-101210321D01*
X109935310Y-101355387D01*
X109920451Y-101506250D01*
X109920451Y-101993750D01*
X109935310Y-102144613D01*
X109979315Y-102289679D01*
X110050775Y-102423372D01*
X110146945Y-102540555D01*
X110264128Y-102636725D01*
X110397821Y-102708185D01*
X110542887Y-102752190D01*
X110693750Y-102767049D01*
X111606250Y-102767049D01*
X111757113Y-102752190D01*
X111902179Y-102708185D01*
X112035872Y-102636725D01*
X112153055Y-102540555D01*
X112164179Y-102527000D01*
X112211837Y-102527000D01*
X112250000Y-102530759D01*
X112288163Y-102527000D01*
X112288166Y-102527000D01*
X112402319Y-102515757D01*
X112548784Y-102471327D01*
X112683766Y-102399177D01*
X112802080Y-102302080D01*
X112826413Y-102272430D01*
X113091842Y-102007001D01*
X113170396Y-101991376D01*
X113339099Y-101921496D01*
X113405693Y-101877000D01*
X113797680Y-101877000D01*
X113867350Y-101914239D01*
X113966690Y-101944374D01*
X114070000Y-101954549D01*
X114923000Y-101954549D01*
X114923001Y-102145451D01*
X114070000Y-102145451D01*
X113966690Y-102155626D01*
X113867350Y-102185761D01*
X113775798Y-102234696D01*
X113695552Y-102300552D01*
X113629696Y-102380798D01*
X113580761Y-102472350D01*
X113550626Y-102571690D01*
X113540451Y-102675000D01*
X113540451Y-103325000D01*
X113550626Y-103428310D01*
X113580761Y-103527650D01*
X113629696Y-103619202D01*
X113695552Y-103699448D01*
X113775798Y-103765304D01*
X113867350Y-103814239D01*
X113966690Y-103844374D01*
X114070000Y-103854549D01*
X115130000Y-103854549D01*
X115233310Y-103844374D01*
X115332650Y-103814239D01*
X115402320Y-103777000D01*
X115591837Y-103777000D01*
X115630000Y-103780759D01*
X115668163Y-103777000D01*
X115668166Y-103777000D01*
X115782319Y-103765757D01*
X115923985Y-103722783D01*
X115975798Y-103765304D01*
X116067350Y-103814239D01*
X116166690Y-103844374D01*
X116270000Y-103854549D01*
X117330000Y-103854549D01*
X117433310Y-103844374D01*
X117532650Y-103814239D01*
X117624202Y-103765304D01*
X117704448Y-103699448D01*
X117770304Y-103619202D01*
X117819239Y-103527650D01*
X117849374Y-103428310D01*
X117859549Y-103325000D01*
X117859549Y-102675000D01*
X117849374Y-102571690D01*
X117840899Y-102543750D01*
X119982951Y-102543750D01*
X119982951Y-103456250D01*
X119997810Y-103607113D01*
X120041815Y-103752179D01*
X120113275Y-103885872D01*
X120209445Y-104003055D01*
X120326628Y-104099225D01*
X120460321Y-104170685D01*
X120492804Y-104180538D01*
X120528673Y-104298783D01*
X120600823Y-104433766D01*
X120635116Y-104475552D01*
X120697920Y-104552080D01*
X120727570Y-104576413D01*
X120823001Y-104671844D01*
X120823001Y-104824112D01*
X120820451Y-104850000D01*
X120820451Y-107150000D01*
X120830626Y-107253310D01*
X120860761Y-107352650D01*
X120909696Y-107444202D01*
X120975552Y-107524448D01*
X121055798Y-107590304D01*
X121147350Y-107639239D01*
X121246690Y-107669374D01*
X121350000Y-107679549D01*
X121850000Y-107679549D01*
X121953310Y-107669374D01*
X122000000Y-107655210D01*
X122046690Y-107669374D01*
X122150000Y-107679549D01*
X122650000Y-107679549D01*
X122753310Y-107669374D01*
X122800000Y-107655210D01*
X122846690Y-107669374D01*
X122950000Y-107679549D01*
X123450000Y-107679549D01*
X123553310Y-107669374D01*
X123600000Y-107655210D01*
X123646690Y-107669374D01*
X123750000Y-107679549D01*
X124250000Y-107679549D01*
X124353310Y-107669374D01*
X124452650Y-107639239D01*
X124544202Y-107590304D01*
X124558064Y-107578927D01*
X124670250Y-107577000D01*
X124777000Y-107470250D01*
X124777000Y-107175881D01*
X124779549Y-107150000D01*
X124779549Y-106023000D01*
X124823000Y-106023000D01*
X124823000Y-107470250D01*
X124929750Y-107577000D01*
X125050000Y-107579066D01*
X125052579Y-107578812D01*
X130773714Y-107578812D01*
X130837406Y-107801223D01*
X131058710Y-107925705D01*
X131300045Y-108004621D01*
X131552139Y-108034938D01*
X131805305Y-108015491D01*
X132049812Y-107947028D01*
X132276264Y-107832180D01*
X132322594Y-107801223D01*
X132386286Y-107578812D01*
X131580000Y-106772527D01*
X130773714Y-107578812D01*
X125052579Y-107578812D01*
X125133707Y-107570822D01*
X125214196Y-107546405D01*
X125288376Y-107506755D01*
X125353395Y-107453395D01*
X125406755Y-107388376D01*
X125446405Y-107314196D01*
X125470822Y-107233707D01*
X125479066Y-107150000D01*
X125478180Y-106712139D01*
X130285062Y-106712139D01*
X130304509Y-106965305D01*
X130372972Y-107209812D01*
X130487820Y-107436264D01*
X130518777Y-107482594D01*
X130741188Y-107546286D01*
X131547473Y-106740000D01*
X131612527Y-106740000D01*
X132418812Y-107546286D01*
X132641223Y-107482594D01*
X132765705Y-107261290D01*
X132844621Y-107019955D01*
X132874938Y-106767861D01*
X132855491Y-106514695D01*
X132787028Y-106270188D01*
X132672180Y-106043736D01*
X132641223Y-105997406D01*
X132418812Y-105933714D01*
X131612527Y-106740000D01*
X131547473Y-106740000D01*
X130741188Y-105933714D01*
X130518777Y-105997406D01*
X130394295Y-106218710D01*
X130315379Y-106460045D01*
X130285062Y-106712139D01*
X125478180Y-106712139D01*
X125477000Y-106129750D01*
X125370250Y-106023000D01*
X124823000Y-106023000D01*
X124779549Y-106023000D01*
X124779549Y-104850000D01*
X124777000Y-104824119D01*
X124777000Y-104529750D01*
X124823000Y-104529750D01*
X124823000Y-105977000D01*
X125370250Y-105977000D01*
X125477000Y-105870250D01*
X125479066Y-104850000D01*
X125470822Y-104766293D01*
X125446405Y-104685804D01*
X125406755Y-104611624D01*
X125353395Y-104546605D01*
X125288376Y-104493245D01*
X125214196Y-104453595D01*
X125133707Y-104429178D01*
X125050000Y-104420934D01*
X124929750Y-104423000D01*
X124823000Y-104529750D01*
X124777000Y-104529750D01*
X124670250Y-104423000D01*
X124558064Y-104421073D01*
X124544202Y-104409696D01*
X124452650Y-104360761D01*
X124353310Y-104330626D01*
X124250000Y-104320451D01*
X123750000Y-104320451D01*
X123646690Y-104330626D01*
X123600000Y-104344790D01*
X123553310Y-104330626D01*
X123450000Y-104320451D01*
X122950000Y-104320451D01*
X122846690Y-104330626D01*
X122800000Y-104344790D01*
X122753310Y-104330626D01*
X122650000Y-104320451D01*
X122377849Y-104320451D01*
X122377000Y-104311834D01*
X122365757Y-104197681D01*
X122327949Y-104073045D01*
X130311000Y-104073045D01*
X130311000Y-104326955D01*
X130360535Y-104575987D01*
X130457703Y-104810570D01*
X130598768Y-105021690D01*
X130778310Y-105201232D01*
X130989430Y-105342297D01*
X131224013Y-105439465D01*
X131352711Y-105465064D01*
X131110188Y-105532972D01*
X130883736Y-105647820D01*
X130837406Y-105678777D01*
X130773714Y-105901188D01*
X131580000Y-106707473D01*
X132386286Y-105901188D01*
X132322594Y-105678777D01*
X132101290Y-105554295D01*
X131859955Y-105475379D01*
X131819744Y-105470543D01*
X131975987Y-105439465D01*
X132210570Y-105342297D01*
X132421690Y-105201232D01*
X132601232Y-105021690D01*
X132742297Y-104810570D01*
X132839465Y-104575987D01*
X132889000Y-104326955D01*
X132889000Y-104073045D01*
X132839465Y-103824013D01*
X132742297Y-103589430D01*
X132601232Y-103378310D01*
X132421690Y-103198768D01*
X132210570Y-103057703D01*
X131975987Y-102960535D01*
X131726955Y-102911000D01*
X131473045Y-102911000D01*
X131224013Y-102960535D01*
X130989430Y-103057703D01*
X130778310Y-103198768D01*
X130598768Y-103378310D01*
X130457703Y-103589430D01*
X130360535Y-103824013D01*
X130311000Y-104073045D01*
X122327949Y-104073045D01*
X122321327Y-104051216D01*
X122249177Y-103916234D01*
X122152080Y-103797920D01*
X122122430Y-103773587D01*
X122027000Y-103678157D01*
X122027000Y-103288155D01*
X122030758Y-103249999D01*
X122027000Y-103211843D01*
X122027000Y-103211834D01*
X122017049Y-103110799D01*
X122017049Y-103081795D01*
X122071844Y-103027000D01*
X123428157Y-103027000D01*
X124023592Y-103622436D01*
X124047920Y-103652080D01*
X124077564Y-103676408D01*
X124077565Y-103676409D01*
X124166234Y-103749178D01*
X124254199Y-103796195D01*
X124301216Y-103821327D01*
X124447681Y-103865757D01*
X124561834Y-103877000D01*
X124561836Y-103877000D01*
X124600000Y-103880759D01*
X124638163Y-103877000D01*
X127694307Y-103877000D01*
X127760901Y-103921496D01*
X127929604Y-103991376D01*
X128108699Y-104027000D01*
X128291301Y-104027000D01*
X128470396Y-103991376D01*
X128639099Y-103921496D01*
X128790928Y-103820048D01*
X128920048Y-103690928D01*
X129021496Y-103539099D01*
X129091376Y-103370396D01*
X129127000Y-103191301D01*
X129127000Y-103008699D01*
X129091376Y-102829604D01*
X129021496Y-102660901D01*
X128920048Y-102509072D01*
X128790928Y-102379952D01*
X128639099Y-102278504D01*
X128470396Y-102208624D01*
X128291301Y-102173000D01*
X128108699Y-102173000D01*
X127929604Y-102208624D01*
X127760901Y-102278504D01*
X127694307Y-102323000D01*
X124921844Y-102323000D01*
X124326412Y-101727569D01*
X124302080Y-101697920D01*
X124183766Y-101600823D01*
X124048784Y-101528673D01*
X123902319Y-101484243D01*
X123788166Y-101473000D01*
X123788163Y-101473000D01*
X123750000Y-101469241D01*
X123711837Y-101473000D01*
X121788155Y-101473000D01*
X121749999Y-101469242D01*
X121711843Y-101473000D01*
X121711834Y-101473000D01*
X121597681Y-101484243D01*
X121452413Y-101528310D01*
X121451216Y-101528673D01*
X121316233Y-101600823D01*
X121227565Y-101673591D01*
X121197920Y-101697920D01*
X121173592Y-101727564D01*
X121130705Y-101770451D01*
X120756250Y-101770451D01*
X120605387Y-101785310D01*
X120460321Y-101829315D01*
X120326628Y-101900775D01*
X120209445Y-101996945D01*
X120113275Y-102114128D01*
X120041815Y-102247821D01*
X119997810Y-102392887D01*
X119982951Y-102543750D01*
X117840899Y-102543750D01*
X117819239Y-102472350D01*
X117770304Y-102380798D01*
X117704448Y-102300552D01*
X117624202Y-102234696D01*
X117532650Y-102185761D01*
X117433310Y-102155626D01*
X117330000Y-102145451D01*
X116477000Y-102145451D01*
X116477000Y-101954549D01*
X117330000Y-101954549D01*
X117433310Y-101944374D01*
X117532650Y-101914239D01*
X117602320Y-101877000D01*
X117791837Y-101877000D01*
X117830000Y-101880759D01*
X117868163Y-101877000D01*
X117868166Y-101877000D01*
X117982319Y-101865757D01*
X118128784Y-101821327D01*
X118263766Y-101749177D01*
X118382080Y-101652080D01*
X118406412Y-101622431D01*
X120401844Y-99627000D01*
X121961837Y-99627000D01*
X122000000Y-99630759D01*
X122038163Y-99627000D01*
X122038166Y-99627000D01*
X122152319Y-99615757D01*
X122298784Y-99571327D01*
X122433766Y-99499177D01*
X122552080Y-99402080D01*
X122576412Y-99372431D01*
X124772437Y-97176407D01*
X124802080Y-97152080D01*
X124826409Y-97122435D01*
X124899178Y-97033766D01*
X124946763Y-96944740D01*
X124971327Y-96898784D01*
X125015757Y-96752319D01*
X125027000Y-96638166D01*
X125027000Y-96638164D01*
X125030759Y-96600000D01*
X125027000Y-96561837D01*
X125027000Y-94655693D01*
X125071496Y-94589099D01*
X125141376Y-94420396D01*
X125177000Y-94241301D01*
X125177000Y-94058699D01*
X125141376Y-93879604D01*
X125071496Y-93710901D01*
X124970048Y-93559072D01*
X124840928Y-93429952D01*
X124689099Y-93328504D01*
X124520396Y-93258624D01*
X124341301Y-93223000D01*
X124158699Y-93223000D01*
X123979604Y-93258624D01*
X123810901Y-93328504D01*
X123659072Y-93429952D01*
X123529952Y-93559072D01*
X123428504Y-93710901D01*
X123358624Y-93879604D01*
X123351949Y-93913162D01*
X123278337Y-93670495D01*
X123150473Y-93431279D01*
X122978397Y-93221603D01*
X122952074Y-93200000D01*
X122978397Y-93178397D01*
X123150473Y-92968721D01*
X123278337Y-92729505D01*
X123357075Y-92469939D01*
X123383662Y-92200000D01*
X123357075Y-91930061D01*
X123278337Y-91670495D01*
X123150473Y-91431279D01*
X122978397Y-91221603D01*
X122768721Y-91049527D01*
X122585438Y-90951560D01*
X122741533Y-90847261D01*
X122947261Y-90641533D01*
X123108901Y-90399622D01*
X123220240Y-90130825D01*
X123277000Y-89845472D01*
X123277000Y-89554528D01*
X123220240Y-89269175D01*
X123108901Y-89000378D01*
X122947261Y-88758467D01*
X122741533Y-88552739D01*
X122499622Y-88391099D01*
X122230825Y-88279760D01*
X121945472Y-88223000D01*
X121654528Y-88223000D01*
X121460448Y-88261605D01*
X121027000Y-87828157D01*
X121027000Y-84521843D01*
X121372436Y-84176408D01*
X121402080Y-84152080D01*
X121487757Y-84047682D01*
X121499177Y-84033767D01*
X121571327Y-83898784D01*
X121608098Y-83777566D01*
X121615757Y-83752319D01*
X121627000Y-83638166D01*
X121627000Y-83638157D01*
X121630758Y-83600001D01*
X121627000Y-83561845D01*
X121627000Y-82238163D01*
X121630759Y-82200000D01*
X121621773Y-82108766D01*
X121615757Y-82047681D01*
X121571327Y-81901216D01*
X121499178Y-81766235D01*
X121499177Y-81766233D01*
X121426409Y-81677565D01*
X121426408Y-81677564D01*
X121402080Y-81647920D01*
X121372437Y-81623593D01*
X120853521Y-81104678D01*
X120920396Y-81091376D01*
X121089099Y-81021496D01*
X121240928Y-80920048D01*
X121370048Y-80790928D01*
X121471496Y-80639099D01*
X121541376Y-80470396D01*
X121577000Y-80291301D01*
X121577000Y-80108699D01*
X121541376Y-79929604D01*
X121471496Y-79760901D01*
X121370048Y-79609072D01*
X121240928Y-79479952D01*
X121089099Y-79378504D01*
X120920396Y-79308624D01*
X120741301Y-79273000D01*
X120558699Y-79273000D01*
X120379604Y-79308624D01*
X120210901Y-79378504D01*
X120059072Y-79479952D01*
X119929952Y-79609072D01*
X119828504Y-79760901D01*
X119758624Y-79929604D01*
X119742999Y-80008158D01*
X119527569Y-80223588D01*
X119497920Y-80247920D01*
X119483152Y-80265915D01*
X119414679Y-80229315D01*
X119269613Y-80185310D01*
X119118750Y-80170451D01*
X118631250Y-80170451D01*
X118480387Y-80185310D01*
X118335321Y-80229315D01*
X118201628Y-80300775D01*
X118084445Y-80396945D01*
X117988275Y-80514128D01*
X117916815Y-80647821D01*
X117872810Y-80792887D01*
X117857951Y-80943750D01*
X117857951Y-81444529D01*
X117834244Y-81522682D01*
X117819241Y-81675000D01*
X117823001Y-81713173D01*
X117823000Y-82923000D01*
X116602320Y-82923000D01*
X116532650Y-82885761D01*
X116433310Y-82855626D01*
X116330000Y-82845451D01*
X115270000Y-82845451D01*
X115166690Y-82855626D01*
X115067350Y-82885761D01*
X114975798Y-82934696D01*
X114895552Y-83000552D01*
X114829696Y-83080798D01*
X114780761Y-83172350D01*
X114750626Y-83271690D01*
X114740451Y-83375000D01*
X114740451Y-84025000D01*
X114750626Y-84128310D01*
X114780761Y-84227650D01*
X114829696Y-84319202D01*
X114895552Y-84399448D01*
X114975798Y-84465304D01*
X115067350Y-84514239D01*
X115166690Y-84544374D01*
X115270000Y-84554549D01*
X116330000Y-84554549D01*
X116433310Y-84544374D01*
X116532650Y-84514239D01*
X116602320Y-84477000D01*
X118311837Y-84477000D01*
X118350000Y-84480759D01*
X118388163Y-84477000D01*
X118388166Y-84477000D01*
X118502319Y-84465757D01*
X118648784Y-84421327D01*
X118783766Y-84349177D01*
X118902080Y-84252080D01*
X118926413Y-84222430D01*
X119122432Y-84026411D01*
X119152080Y-84002080D01*
X119249177Y-83883766D01*
X119321327Y-83748784D01*
X119365757Y-83602319D01*
X119377000Y-83488166D01*
X119377000Y-83488157D01*
X119380758Y-83450001D01*
X119377000Y-83411845D01*
X119377000Y-82582115D01*
X119414679Y-82570685D01*
X119548372Y-82499225D01*
X119665555Y-82403055D01*
X119761725Y-82285872D01*
X119787955Y-82236799D01*
X120073000Y-82521844D01*
X120073001Y-83278156D01*
X119727569Y-83623588D01*
X119697920Y-83647920D01*
X119673591Y-83677566D01*
X119600823Y-83766234D01*
X119594766Y-83777566D01*
X119528673Y-83901217D01*
X119484243Y-84047682D01*
X119474394Y-84147681D01*
X119469241Y-84200000D01*
X119473000Y-84238163D01*
X119473001Y-88111827D01*
X119469241Y-88150000D01*
X119478765Y-88246690D01*
X119484136Y-88301217D01*
X119484244Y-88302318D01*
X119528673Y-88448783D01*
X119600823Y-88583766D01*
X119673591Y-88672434D01*
X119697921Y-88702080D01*
X119727565Y-88726408D01*
X120361605Y-89360448D01*
X120323000Y-89554528D01*
X120323000Y-89845472D01*
X120379760Y-90130825D01*
X120491099Y-90399622D01*
X120652739Y-90641533D01*
X120858467Y-90847261D01*
X121014562Y-90951560D01*
X120831279Y-91049527D01*
X120621603Y-91221603D01*
X120449527Y-91431279D01*
X120321663Y-91670495D01*
X120242925Y-91930061D01*
X120216338Y-92200000D01*
X120226945Y-92307690D01*
X119955837Y-92473000D01*
X116526133Y-92473000D01*
X115701317Y-91648185D01*
X115679549Y-91630320D01*
X115679549Y-90275000D01*
X115669374Y-90171690D01*
X115639239Y-90072350D01*
X115590304Y-89980798D01*
X115524448Y-89900552D01*
X115444202Y-89834696D01*
X115352650Y-89785761D01*
X115253310Y-89755626D01*
X115150000Y-89745451D01*
X114850000Y-89745451D01*
X114750000Y-89755300D01*
X114650000Y-89745451D01*
X114649781Y-89745451D01*
X114642565Y-89672185D01*
X114618422Y-89592597D01*
X114605283Y-89549283D01*
X114544741Y-89436016D01*
X114489579Y-89368801D01*
X114474910Y-89320444D01*
X114407402Y-89194148D01*
X114339316Y-89111183D01*
X114139325Y-88911193D01*
X114116554Y-88883446D01*
X114005853Y-88792597D01*
X113879557Y-88725090D01*
X113742517Y-88683520D01*
X113635708Y-88673000D01*
X113600000Y-88669483D01*
X113564292Y-88673000D01*
X111525945Y-88673000D01*
X111569071Y-88620451D01*
X111599177Y-88583767D01*
X111671327Y-88448784D01*
X111671662Y-88447681D01*
X111715757Y-88302319D01*
X111727000Y-88188166D01*
X111727000Y-88188157D01*
X111730758Y-88150001D01*
X111727000Y-88111845D01*
X111727000Y-86477000D01*
X113461837Y-86477000D01*
X113500000Y-86480759D01*
X113538163Y-86477000D01*
X113538166Y-86477000D01*
X113652319Y-86465757D01*
X113689267Y-86454549D01*
X114130000Y-86454549D01*
X114233310Y-86444374D01*
X114332650Y-86414239D01*
X114424202Y-86365304D01*
X114504448Y-86299448D01*
X114570304Y-86219202D01*
X114619239Y-86127650D01*
X114649374Y-86028310D01*
X114659549Y-85925000D01*
X114659549Y-85275000D01*
X114740451Y-85275000D01*
X114740451Y-85925000D01*
X114750626Y-86028310D01*
X114780761Y-86127650D01*
X114829696Y-86219202D01*
X114895552Y-86299448D01*
X114975798Y-86365304D01*
X115067350Y-86414239D01*
X115166690Y-86444374D01*
X115270000Y-86454549D01*
X116330000Y-86454549D01*
X116433310Y-86444374D01*
X116532650Y-86414239D01*
X116624202Y-86365304D01*
X116704448Y-86299448D01*
X116770304Y-86219202D01*
X116819239Y-86127650D01*
X116849374Y-86028310D01*
X116859549Y-85925000D01*
X116859549Y-85275000D01*
X116849374Y-85171690D01*
X116819239Y-85072350D01*
X116770304Y-84980798D01*
X116704448Y-84900552D01*
X116624202Y-84834696D01*
X116532650Y-84785761D01*
X116433310Y-84755626D01*
X116330000Y-84745451D01*
X115270000Y-84745451D01*
X115166690Y-84755626D01*
X115067350Y-84785761D01*
X114975798Y-84834696D01*
X114895552Y-84900552D01*
X114829696Y-84980798D01*
X114780761Y-85072350D01*
X114750626Y-85171690D01*
X114740451Y-85275000D01*
X114659549Y-85275000D01*
X114649374Y-85171690D01*
X114619239Y-85072350D01*
X114570304Y-84980798D01*
X114504448Y-84900552D01*
X114424202Y-84834696D01*
X114332650Y-84785761D01*
X114233310Y-84755626D01*
X114130000Y-84745451D01*
X113070000Y-84745451D01*
X112966690Y-84755626D01*
X112867350Y-84785761D01*
X112775798Y-84834696D01*
X112695552Y-84900552D01*
X112677129Y-84923000D01*
X111727000Y-84923000D01*
X111727000Y-84621843D01*
X111871844Y-84477000D01*
X112797680Y-84477000D01*
X112867350Y-84514239D01*
X112966690Y-84544374D01*
X113070000Y-84554549D01*
X114130000Y-84554549D01*
X114233310Y-84544374D01*
X114332650Y-84514239D01*
X114424202Y-84465304D01*
X114504448Y-84399448D01*
X114570304Y-84319202D01*
X114619239Y-84227650D01*
X114649374Y-84128310D01*
X114659549Y-84025000D01*
X114659549Y-83375000D01*
X114649374Y-83271690D01*
X114619239Y-83172350D01*
X114570304Y-83080798D01*
X114504448Y-83000552D01*
X114424202Y-82934696D01*
X114377345Y-82909651D01*
X114380758Y-82874999D01*
X114377000Y-82836843D01*
X114377000Y-82836834D01*
X114365757Y-82722681D01*
X114321327Y-82576216D01*
X114288065Y-82513988D01*
X114249177Y-82441233D01*
X114208442Y-82391598D01*
X114152080Y-82322920D01*
X114122430Y-82298587D01*
X114045857Y-82222014D01*
X114083185Y-82152179D01*
X114127190Y-82007113D01*
X114142049Y-81856250D01*
X114142049Y-80943750D01*
X114127190Y-80792887D01*
X114083185Y-80647821D01*
X114011725Y-80514128D01*
X113915555Y-80396945D01*
X113798372Y-80300775D01*
X113664679Y-80229315D01*
X113519613Y-80185310D01*
X113368750Y-80170451D01*
X112881250Y-80170451D01*
X112730387Y-80185310D01*
X112585321Y-80229315D01*
X112451628Y-80300775D01*
X112334445Y-80396945D01*
X112238275Y-80514128D01*
X112166815Y-80647821D01*
X112122810Y-80792887D01*
X112107951Y-80943750D01*
X112107951Y-81856250D01*
X112122810Y-82007113D01*
X112166815Y-82152179D01*
X112238275Y-82285872D01*
X112334445Y-82403055D01*
X112345430Y-82412070D01*
X112348000Y-82438163D01*
X112348000Y-82438165D01*
X112359243Y-82552318D01*
X112394712Y-82669242D01*
X112403673Y-82698783D01*
X112475823Y-82833766D01*
X112508507Y-82873591D01*
X112549055Y-82923000D01*
X111588155Y-82923000D01*
X111549999Y-82919242D01*
X111511843Y-82923000D01*
X111511834Y-82923000D01*
X111397681Y-82934243D01*
X111251216Y-82978673D01*
X111116233Y-83050823D01*
X111030324Y-83121327D01*
X110997920Y-83147920D01*
X110973592Y-83177564D01*
X110427565Y-83723592D01*
X110397921Y-83747920D01*
X110373593Y-83777564D01*
X110373591Y-83777566D01*
X110300823Y-83866234D01*
X110228673Y-84001217D01*
X110198958Y-84099177D01*
X110188466Y-84133765D01*
X110184244Y-84147682D01*
X110169241Y-84300000D01*
X110173001Y-84338173D01*
X110173000Y-85661833D01*
X110169241Y-85700000D01*
X110173001Y-85738176D01*
X110173000Y-87823000D01*
X110025881Y-87823000D01*
X110000000Y-87820451D01*
X107700000Y-87820451D01*
X107596690Y-87830626D01*
X107497350Y-87860761D01*
X107405798Y-87909696D01*
X107325552Y-87975552D01*
X107259696Y-88055798D01*
X107210761Y-88147350D01*
X107180626Y-88246690D01*
X107170451Y-88350000D01*
X107170451Y-88850000D01*
X107180626Y-88953310D01*
X107194790Y-89000000D01*
X107180626Y-89046690D01*
X107170451Y-89150000D01*
X107170451Y-89650000D01*
X107180626Y-89753310D01*
X107194790Y-89800000D01*
X107180626Y-89846690D01*
X107170451Y-89950000D01*
X107170451Y-90450000D01*
X107180626Y-90553310D01*
X107194790Y-90600000D01*
X107180626Y-90646690D01*
X107170451Y-90750000D01*
X107170451Y-91250000D01*
X107180626Y-91353310D01*
X107194789Y-91399998D01*
X107180625Y-91446690D01*
X107170450Y-91550000D01*
X107173000Y-91645250D01*
X107304750Y-91777000D01*
X107674119Y-91777000D01*
X107700000Y-91779549D01*
X110000000Y-91779549D01*
X110025881Y-91777000D01*
X110395250Y-91777000D01*
X110527000Y-91645250D01*
X110529550Y-91550000D01*
X110519375Y-91446690D01*
X110505211Y-91399998D01*
X110519374Y-91353310D01*
X110529549Y-91250000D01*
X110529549Y-91157681D01*
X110873000Y-91501133D01*
X110873000Y-91964292D01*
X110869483Y-92000000D01*
X110883520Y-92142517D01*
X110925090Y-92279556D01*
X110965555Y-92355260D01*
X110992598Y-92405853D01*
X111083447Y-92516554D01*
X111111189Y-92539321D01*
X112711182Y-94139316D01*
X112735276Y-94159089D01*
X112647350Y-94185761D01*
X112555798Y-94234696D01*
X112475552Y-94300552D01*
X112409696Y-94380798D01*
X112360761Y-94472350D01*
X112330626Y-94571690D01*
X112320451Y-94675000D01*
X112320451Y-95732483D01*
X112304934Y-95748000D01*
X109132022Y-95748000D01*
X109100000Y-95744846D01*
X108972185Y-95757435D01*
X108849283Y-95794717D01*
X108736016Y-95855259D01*
X108636736Y-95936736D01*
X108616320Y-95961613D01*
X106611619Y-97966315D01*
X106586736Y-97986736D01*
X106505259Y-98086017D01*
X106460775Y-98169241D01*
X106444717Y-98199284D01*
X106407435Y-98322186D01*
X106394846Y-98450000D01*
X106398000Y-98482022D01*
X106398000Y-100457360D01*
X106284980Y-100410546D01*
X106096226Y-100373000D01*
X105903774Y-100373000D01*
X105715020Y-100410546D01*
X105537217Y-100484194D01*
X105377199Y-100591115D01*
X105241115Y-100727199D01*
X105134194Y-100887217D01*
X105060546Y-101065020D01*
X105023000Y-101253774D01*
X102927000Y-101253774D01*
X102927000Y-99271843D01*
X105044505Y-97154339D01*
X105060546Y-97234980D01*
X105134194Y-97412783D01*
X105241115Y-97572801D01*
X105377199Y-97708885D01*
X105537217Y-97815806D01*
X105715020Y-97889454D01*
X105903774Y-97927000D01*
X106096226Y-97927000D01*
X106284980Y-97889454D01*
X106462783Y-97815806D01*
X106622801Y-97708885D01*
X106758885Y-97572801D01*
X106865806Y-97412783D01*
X106939454Y-97234980D01*
X106977000Y-97046226D01*
X106977000Y-96853774D01*
X106939454Y-96665020D01*
X106865806Y-96487217D01*
X106758885Y-96327199D01*
X106622801Y-96191115D01*
X106462783Y-96084194D01*
X106284980Y-96010546D01*
X106152410Y-95984176D01*
X106171327Y-95948784D01*
X106215757Y-95802319D01*
X106227000Y-95688166D01*
X106227000Y-95688164D01*
X106230759Y-95650000D01*
X106227000Y-95611837D01*
X106227000Y-95155705D01*
X106271496Y-95089111D01*
X106341376Y-94920408D01*
X106377000Y-94741313D01*
X106377000Y-94558711D01*
X106341376Y-94379616D01*
X106271496Y-94210913D01*
X106170048Y-94059084D01*
X106040928Y-93929964D01*
X105889099Y-93828516D01*
X105720396Y-93758636D01*
X105541301Y-93723012D01*
X105358699Y-93723012D01*
X105179604Y-93758636D01*
X105010901Y-93828516D01*
X104859072Y-93929964D01*
X104729952Y-94059084D01*
X104628504Y-94210913D01*
X104558624Y-94379616D01*
X104523000Y-94558711D01*
X104523000Y-94741313D01*
X104558624Y-94920408D01*
X104628504Y-95089111D01*
X104673000Y-95155705D01*
X104673000Y-95328156D01*
X101627565Y-98373592D01*
X101597921Y-98397920D01*
X101573593Y-98427564D01*
X101573591Y-98427566D01*
X101500823Y-98516234D01*
X101428673Y-98651217D01*
X101384244Y-98797682D01*
X101369241Y-98950000D01*
X101373001Y-98988173D01*
X101373000Y-104212471D01*
X101136000Y-104449472D01*
X101136000Y-92303774D01*
X105023000Y-92303774D01*
X105023000Y-92496226D01*
X105060546Y-92684980D01*
X105134194Y-92862783D01*
X105241115Y-93022801D01*
X105377199Y-93158885D01*
X105537217Y-93265806D01*
X105715020Y-93339454D01*
X105903774Y-93377000D01*
X106096226Y-93377000D01*
X106284980Y-93339454D01*
X106462783Y-93265806D01*
X106622801Y-93158885D01*
X106758885Y-93022801D01*
X106865806Y-92862783D01*
X106939454Y-92684980D01*
X106977000Y-92496226D01*
X106977000Y-92303774D01*
X106939454Y-92115020D01*
X106912522Y-92050000D01*
X107170450Y-92050000D01*
X107180625Y-92153310D01*
X107210760Y-92252650D01*
X107259695Y-92344202D01*
X107325552Y-92424448D01*
X107405798Y-92490305D01*
X107497350Y-92539240D01*
X107596690Y-92569375D01*
X107700000Y-92579550D01*
X108695250Y-92577000D01*
X108827000Y-92445250D01*
X108827000Y-91823000D01*
X108873000Y-91823000D01*
X108873000Y-92445250D01*
X109004750Y-92577000D01*
X110000000Y-92579550D01*
X110103310Y-92569375D01*
X110202650Y-92539240D01*
X110294202Y-92490305D01*
X110374448Y-92424448D01*
X110440305Y-92344202D01*
X110489240Y-92252650D01*
X110519375Y-92153310D01*
X110529550Y-92050000D01*
X110527000Y-91954750D01*
X110395250Y-91823000D01*
X108873000Y-91823000D01*
X108827000Y-91823000D01*
X107304750Y-91823000D01*
X107173000Y-91954750D01*
X107170450Y-92050000D01*
X106912522Y-92050000D01*
X106865806Y-91937217D01*
X106758885Y-91777199D01*
X106622801Y-91641115D01*
X106462783Y-91534194D01*
X106284980Y-91460546D01*
X106096226Y-91423000D01*
X105903774Y-91423000D01*
X105715020Y-91460546D01*
X105537217Y-91534194D01*
X105377199Y-91641115D01*
X105241115Y-91777199D01*
X105134194Y-91937217D01*
X105060546Y-92115020D01*
X105023000Y-92303774D01*
X101136000Y-92303774D01*
X101136000Y-87903774D01*
X105023000Y-87903774D01*
X105023000Y-88096226D01*
X105060546Y-88284980D01*
X105134194Y-88462783D01*
X105241115Y-88622801D01*
X105377199Y-88758885D01*
X105537217Y-88865806D01*
X105715020Y-88939454D01*
X105903774Y-88977000D01*
X106096226Y-88977000D01*
X106284980Y-88939454D01*
X106462783Y-88865806D01*
X106622801Y-88758885D01*
X106758885Y-88622801D01*
X106865806Y-88462783D01*
X106939454Y-88284980D01*
X106977000Y-88096226D01*
X106977000Y-87903774D01*
X106939454Y-87715020D01*
X106865806Y-87537217D01*
X106758885Y-87377199D01*
X106622801Y-87241115D01*
X106462783Y-87134194D01*
X106284980Y-87060546D01*
X106096226Y-87023000D01*
X105903774Y-87023000D01*
X105715020Y-87060546D01*
X105537217Y-87134194D01*
X105377199Y-87241115D01*
X105241115Y-87377199D01*
X105134194Y-87537217D01*
X105060546Y-87715020D01*
X105023000Y-87903774D01*
X101136000Y-87903774D01*
X101136000Y-84035595D01*
X101471442Y-84259730D01*
X102058719Y-84502988D01*
X102682168Y-84627000D01*
X103317832Y-84627000D01*
X103941281Y-84502988D01*
X104528558Y-84259730D01*
X105057093Y-83906575D01*
X105506575Y-83457093D01*
X105859730Y-82928558D01*
X106102988Y-82341281D01*
X106227000Y-81717832D01*
X106227000Y-81082168D01*
X106102988Y-80458719D01*
X105859730Y-79871442D01*
X105506575Y-79342907D01*
X105057093Y-78893425D01*
X104528558Y-78540270D01*
X104134389Y-78377000D01*
X130865611Y-78377000D01*
X130471442Y-78540270D01*
G36*
X113555798Y-92165304D02*
G01*
X113647350Y-92214239D01*
X113746690Y-92244374D01*
X113848000Y-92254352D01*
X113848000Y-92456892D01*
X113778504Y-92560901D01*
X113708624Y-92729604D01*
X113673000Y-92908699D01*
X113673000Y-93044866D01*
X112882682Y-92254549D01*
X113150000Y-92254549D01*
X113253310Y-92244374D01*
X113352650Y-92214239D01*
X113444202Y-92165304D01*
X113500000Y-92119512D01*
X113555798Y-92165304D01*
X113555798Y-92165304D01*
G37*
X113555798Y-92165304D02*
X113647350Y-92214239D01*
X113746690Y-92244374D01*
X113848000Y-92254352D01*
X113848000Y-92456892D01*
X113778504Y-92560901D01*
X113708624Y-92729604D01*
X113673000Y-92908699D01*
X113673000Y-93044866D01*
X112882682Y-92254549D01*
X113150000Y-92254549D01*
X113253310Y-92244374D01*
X113352650Y-92214239D01*
X113444202Y-92165304D01*
X113500000Y-92119512D01*
X113555798Y-92165304D01*
M02*
